{"glyphs":{"0":{"ha":740,"x_min":53,"x_max":688,"o":"m 688 357 q 688 278 688 357 q 592 92 688 200 q 357 -17 497 -17 q 135 78 217 -17 q 53 331 53 172 q 149 595 53 489 q 383 701 244 701 q 605 608 522 701 q 688 357 688 514 m 131 344 q 131 288 131 344 q 199 160 131 232 q 374 89 267 89 q 545 155 481 89 q 610 331 610 221 q 540 515 610 442 q 364 589 471 589 q 194 523 257 589 q 131 344 131 457 z "},"1":{"ha":492,"x_min":49,"x_max":440,"o":"m 296 156 q 310 81 296 100 q 364 61 324 61 l 438 65 l 440 60 l 428 -4 q 261 0 311 0 q 68 -17 179 0 l 76 47 q 178 84 154 54 q 201 206 201 114 l 201 522 q 184 586 201 571 q 126 601 167 601 l 53 593 l 49 597 l 54 656 q 344 701 257 679 l 347 701 l 356 678 q 317 631 328 654 q 304 561 307 608 q 296 156 296 340 z "},"2":{"ha":660,"x_min":38,"x_max":629,"o":"m 374 503 q 346 581 374 553 q 270 608 318 608 q 176 575 222 608 q 99 485 131 542 l 86 485 l 71 547 q 172 658 106 614 q 315 701 239 701 q 444 656 392 701 q 496 541 496 610 q 433 380 496 472 q 200 94 371 288 l 206 85 l 418 85 q 524 108 494 85 q 574 211 553 132 l 629 218 q 589 0 600 101 l 572 -10 q 126 0 246 0 l 51 -17 l 38 8 l 147 131 q 374 503 374 388 z "},"3":{"ha":576,"x_min":28,"x_max":496,"o":"m 146 -49 q 321 4 250 -49 q 392 136 392 57 q 143 276 392 275 l 136 283 l 129 332 l 219 354 q 310 426 275 381 q 346 515 346 471 q 315 587 346 560 q 241 614 283 614 q 155 594 199 614 q 79 543 111 575 l 65 543 l 51 601 q 166 670 97 639 q 281 701 235 701 q 412 659 363 701 q 461 553 461 617 q 419 438 461 490 q 308 349 378 385 l 308 342 q 496 169 496 297 q 373 -44 496 58 q 117 -146 250 -146 q 49 -122 69 -146 q 28 -44 29 -99 l 35 -36 q 146 -49 93 -49 z "},"4":{"ha":621,"x_min":6,"x_max":582,"o":"m 444 199 l 574 199 l 582 188 l 571 111 q 444 115 519 113 l 454 -119 l 447 -129 l 349 -146 l 340 -133 q 349 118 347 10 q 6 124 135 124 l 11 175 l 394 700 l 400 701 l 444 688 l 444 199 m 349 199 l 349 510 l 336 510 l 113 199 l 349 199 z "},"5":{"ha":597,"x_min":22,"x_max":528,"o":"m 172 411 q 419 322 332 374 q 506 183 506 269 q 441 20 506 97 q 285 -101 376 -57 q 110 -146 193 -146 q 46 -124 67 -146 q 22 -44 25 -103 l 29 -36 q 142 -49 88 -49 q 326 3 253 -49 q 400 129 400 54 q 336 244 400 204 q 110 311 272 283 l 97 326 l 121 665 l 132 676 l 394 688 q 453 701 436 690 q 482 742 471 711 l 528 747 l 494 583 l 486 575 q 182 586 343 586 l 172 411 z "},"6":{"ha":632,"x_min":56,"x_max":582,"o":"m 342 478 q 518 408 454 478 q 582 250 582 338 q 504 61 582 139 q 309 -17 426 -17 q 124 66 192 -17 q 56 274 56 149 q 81 435 56 358 q 147 567 107 513 q 237 668 188 622 q 336 743 286 714 q 492 822 443 807 l 517 831 l 526 824 l 542 782 q 440 731 497 765 q 339 657 383 696 q 249 551 294 618 q 182 408 203 485 l 188 406 q 342 478 300 478 m 479 214 q 479 251 479 214 q 431 342 479 289 q 312 396 383 396 q 171 344 240 396 q 167 282 167 314 q 211 113 167 176 q 328 50 256 50 q 440 94 400 50 q 479 214 479 139 z "},"7":{"ha":583,"x_min":53,"x_max":581,"o":"m 257 685 l 550 685 l 581 646 q 269 -26 438 358 l 235 -146 l 225 -146 l 142 -121 l 128 -90 l 475 590 l 235 581 q 144 553 167 578 q 107 451 121 528 l 53 443 q 79 683 72 578 l 88 690 q 257 685 171 685 z "},"8":{"ha":674,"x_min":78,"x_max":599,"o":"m 78 172 q 257 401 78 318 q 144 487 185 440 q 103 614 103 533 q 174 763 103 694 q 343 831 246 831 q 505 782 440 831 q 569 644 569 733 q 432 443 569 517 q 555 353 511 401 q 599 231 599 304 q 517 56 599 128 q 326 -17 435 -17 q 147 34 217 -17 q 78 172 78 85 m 179 206 q 228 92 179 140 q 344 43 276 43 q 457 85 411 43 q 503 180 503 128 q 472 269 503 232 q 415 320 440 306 q 306 376 389 335 q 179 206 179 322 m 200 646 q 279 525 200 575 q 326 498 311 506 q 382 468 340 490 q 465 615 465 518 q 427 727 465 688 q 331 767 389 767 q 236 731 272 767 q 200 646 200 694 z "},"9":{"ha":632,"x_min":50,"x_max":576,"o":"m 290 207 q 114 277 178 207 q 50 435 50 347 q 128 624 50 546 q 323 701 206 701 q 508 619 440 701 q 576 411 576 536 q 551 249 576 326 q 485 117 525 172 q 395 17 444 63 q 297 -58 346 -29 q 142 -137 189 -122 l 115 -146 l 106 -139 l 90 -97 q 192 -47 135 -81 q 293 26 249 -12 q 383 132 338 65 q 449 275 429 199 l 444 279 q 290 207 332 207 m 153 470 q 153 432 153 470 q 200 342 153 394 q 317 289 247 289 q 461 340 386 289 q 465 403 465 369 q 420 572 465 508 q 303 635 375 635 q 192 590 232 635 q 153 470 153 546 z "}," ":{"ha":281,"x_min":0,"x_max":0,"o":""},"!":{"ha":396,"x_min":85,"x_max":274,"o":"m 250 68 q 250 51 250 68 q 226 8 250 33 q 163 -17 201 -17 q 105 6 125 -17 q 85 64 85 29 q 108 124 85 99 q 170 149 132 149 q 229 126 208 149 q 250 68 250 103 m 147 292 l 136 925 l 146 939 l 261 964 l 274 949 l 201 290 l 163 281 l 147 292 z "},"\"":{"ha":414,"x_min":82,"x_max":358,"o":"m 90 579 q 92 661 92 625 q 82 882 92 756 l 179 901 l 189 890 q 140 596 169 738 l 106 576 l 90 579 m 260 579 q 261 661 261 625 q 251 882 261 756 l 349 901 l 358 890 q 310 596 339 738 l 275 576 l 260 579 z "},"#":{"ha":692,"x_min":15,"x_max":667,"o":"m 71 503 l 67 517 l 88 568 l 236 567 l 288 789 l 343 796 l 354 788 l 300 565 l 374 565 l 447 564 l 499 789 l 554 796 l 565 788 l 511 564 l 661 564 l 667 551 l 640 501 l 496 503 l 461 350 l 610 350 l 615 338 l 589 288 l 447 289 l 397 60 l 343 49 l 333 57 l 385 290 l 288 292 l 238 290 l 186 60 l 132 49 l 122 57 l 174 290 l 19 289 l 15 303 l 36 354 l 188 353 l 222 504 l 71 503 m 286 504 l 250 351 l 322 351 l 399 350 l 433 504 l 339 506 l 286 504 z "},"$":{"ha":638,"x_min":74,"x_max":556,"o":"m 454 485 q 457 543 457 506 q 365 631 457 621 l 343 400 q 367 389 344 399 q 408 370 389 379 q 461 340 426 361 q 511 300 496 318 q 556 200 556 253 q 486 56 556 114 q 304 -11 417 -1 l 286 -210 l 250 -214 l 243 -204 l 261 -12 q 167 -3 213 -12 q 81 25 122 7 l 74 38 q 89 225 89 125 l 151 231 q 174 94 151 129 q 267 54 197 58 l 290 297 q 144 382 214 328 q 86 505 86 429 q 154 638 86 581 q 328 703 222 694 l 347 908 l 383 914 l 392 901 l 372 704 q 538 678 465 701 l 543 668 q 517 485 524 583 l 463 479 l 454 485 m 442 161 q 332 276 442 222 l 311 54 q 406 87 371 58 q 442 161 442 115 m 321 632 q 229 603 265 629 q 193 539 193 576 q 221 475 193 501 q 301 421 249 449 l 321 632 z "},"%":{"ha":932,"x_min":49,"x_max":915,"o":"m 114 679 q 114 647 114 679 q 156 578 114 615 q 251 542 199 542 q 342 569 304 542 q 379 661 379 596 q 340 768 379 726 q 240 810 301 810 q 147 776 179 810 q 114 679 114 743 m 444 687 q 444 641 444 687 q 388 524 444 594 q 241 453 332 453 q 99 513 150 453 q 49 672 49 574 q 108 835 49 769 q 258 901 167 901 q 397 840 349 901 q 444 687 444 779 m 585 210 q 585 178 585 210 q 627 109 585 146 q 722 72 669 72 q 813 99 775 72 q 850 192 850 126 q 811 299 850 257 q 711 340 772 340 q 617 307 650 340 q 585 210 585 274 m 915 217 q 915 171 915 217 q 859 54 915 125 q 711 -17 803 -17 q 569 44 619 -17 q 519 202 519 104 q 578 366 519 300 q 728 432 638 432 q 867 371 819 432 q 915 217 915 310 m 815 915 l 822 896 q 458 340 581 536 l 160 -132 l 107 -106 l 100 -89 q 761 942 285 192 l 815 915 z "},"&":{"ha":865,"x_min":49,"x_max":993,"o":"m 414 532 q 401 482 414 504 l 407 479 q 665 867 661 667 l 672 874 l 699 874 q 744 755 744 783 q 690 658 744 726 q 513 480 628 567 q 146 242 399 393 q 247 112 178 158 q 422 65 317 65 q 598 135 528 65 q 679 328 668 204 l 601 339 q 568 319 590 339 q 513 258 546 299 l 504 258 l 468 286 l 468 293 l 571 421 l 592 428 q 726 410 618 428 q 863 393 833 393 q 949 474 882 393 l 958 474 l 992 446 l 993 439 l 892 311 l 871 301 l 758 317 q 628 78 735 172 q 377 -17 522 -17 q 140 82 232 -17 q 49 344 49 181 q 120 555 49 465 q 289 644 192 644 q 381 615 347 644 q 414 532 414 585 m 126 375 q 133 296 126 338 q 279 407 240 365 q 318 488 318 449 q 301 544 318 526 q 256 561 283 561 q 163 508 200 561 q 126 375 126 454 z "},"'":{"ha":244,"x_min":82,"x_max":189,"o":"m 90 579 q 92 661 92 625 q 82 882 92 756 l 179 901 l 189 890 q 140 596 169 738 l 106 576 l 90 579 z "},"(":{"ha":429,"x_min":117,"x_max":408,"o":"m 117 226 l 117 467 q 144 642 117 563 q 208 768 171 722 q 350 889 288 863 l 378 901 l 383 901 l 401 861 l 400 856 q 340 814 379 849 q 276 742 301 779 q 231 636 251 704 q 210 488 210 568 l 210 247 q 230 87 210 161 q 279 -31 250 13 q 389 -147 339 -119 l 408 -160 l 408 -167 l 379 -203 l 374 -203 q 328 -180 361 -200 q 272 -140 296 -160 q 218 -83 247 -119 q 167 -6 189 -47 q 117 226 117 93 z "},")":{"ha":429,"x_min":21,"x_max":313,"o":"m 313 472 l 313 232 q 285 56 313 136 q 219 -69 258 -24 q 78 -192 142 -164 l 51 -203 l 46 -203 l 28 -162 l 29 -157 q 89 -115 50 -150 q 153 -43 128 -81 q 199 63 178 -6 q 219 211 219 131 l 219 451 q 199 612 219 538 q 150 729 179 686 q 42 847 90 818 l 21 858 l 21 865 l 50 901 l 56 901 q 101 878 68 899 q 158 838 133 858 q 211 782 182 818 q 261 704 240 746 q 313 472 313 606 z "},"*":{"ha":633,"x_min":94,"x_max":540,"o":"m 119 925 q 258 838 196 885 l 250 792 l 242 785 l 94 825 q 107 919 94 878 l 119 925 m 126 657 q 253 763 188 718 l 293 740 l 297 731 q 214 603 258 678 q 128 644 164 619 l 126 657 m 383 581 q 322 733 344 658 l 356 765 l 367 767 q 461 647 406 711 q 396 579 431 606 l 383 581 m 535 801 q 423 792 464 792 q 371 792 382 792 l 351 832 l 353 843 q 496 897 410 861 q 540 814 526 854 l 535 801 m 372 1014 q 332 856 357 929 l 285 849 l 276 854 l 269 1007 q 363 1024 319 1024 l 372 1014 z "},"+":{"ha":703,"x_min":25,"x_max":678,"o":"m 381 694 l 394 686 q 386 404 386 515 l 669 413 l 678 399 l 667 328 l 386 326 l 388 57 l 319 42 l 307 50 q 308 326 308 204 l 33 325 l 25 338 l 40 406 q 308 404 188 404 l 310 683 l 381 694 z "},",":{"ha":331,"x_min":21,"x_max":240,"o":"m 89 101 q 168 138 136 138 q 220 109 200 138 q 240 19 240 81 q 182 -108 240 -43 q 46 -218 124 -172 l 21 -197 l 21 -183 q 100 -104 69 -150 q 131 -9 131 -58 q 86 82 131 40 l 89 101 z "},"-":{"ha":450,"x_min":50,"x_max":400,"o":"m 390 415 l 400 403 l 393 328 l 60 292 l 50 303 l 58 375 l 300 403 l 390 415 z "},".":{"ha":331,"x_min":83,"x_max":249,"o":"m 249 68 q 249 51 249 68 q 224 8 249 33 q 162 -17 200 -17 q 103 6 124 -17 q 83 64 83 29 q 107 124 83 99 q 169 149 131 149 q 228 126 207 149 q 249 68 249 103 z "},"/":{"ha":457,"x_min":47,"x_max":410,"o":"m 399 938 l 410 924 q 124 -153 272 425 l 57 -153 l 47 -142 q 175 314 121 103 l 335 938 l 399 938 z "},":":{"ha":331,"x_min":78,"x_max":243,"o":"m 243 68 q 243 51 243 68 q 219 8 243 33 q 156 -17 194 -17 q 98 6 118 -17 q 78 64 78 29 q 101 124 78 99 q 163 149 125 149 q 222 126 201 149 q 243 68 243 103 m 243 457 q 243 440 243 457 q 219 397 243 422 q 156 372 194 372 q 98 395 118 372 q 78 453 78 418 q 101 513 78 488 q 163 538 125 538 q 222 515 201 538 q 243 457 243 492 z "},";":{"ha":331,"x_min":21,"x_max":243,"o":"m 89 101 q 168 138 136 138 q 220 109 200 138 q 240 19 240 81 q 182 -108 240 -43 q 46 -218 124 -172 l 21 -197 l 21 -183 q 100 -104 69 -150 q 131 -9 131 -58 q 86 82 131 40 l 89 101 m 243 457 q 243 440 243 457 q 219 397 243 422 q 156 372 194 372 q 98 395 118 372 q 78 453 78 418 q 101 513 78 488 q 163 538 125 538 q 222 515 201 538 q 243 457 243 492 z "},"<":{"ha":703,"x_min":43,"x_max":632,"o":"m 54 332 l 43 347 l 46 413 l 328 532 l 607 644 l 619 638 l 629 568 q 360 467 474 514 l 146 383 l 146 375 l 379 278 l 631 168 l 632 153 l 590 97 q 54 332 438 169 z "},"=":{"ha":703,"x_min":25,"x_max":678,"o":"m 669 306 l 678 292 l 667 221 l 33 218 l 25 231 l 40 299 q 372 297 249 297 l 669 306 m 669 524 l 678 510 l 667 439 l 33 436 l 25 449 l 40 517 q 372 515 249 515 l 669 524 z "},">":{"ha":703,"x_min":71,"x_max":660,"o":"m 649 410 l 660 394 l 657 329 l 375 210 l 96 97 l 83 104 l 74 174 q 343 275 229 228 l 557 358 l 557 367 l 324 464 l 72 574 l 71 589 l 113 644 q 649 410 265 572 z "},"?":{"ha":500,"x_min":81,"x_max":457,"o":"m 365 693 q 83 869 365 853 l 81 885 l 126 958 l 146 964 q 366 894 275 960 q 457 735 457 828 q 403 589 457 646 q 354 543 375 560 q 289 497 333 526 q 226 456 244 468 l 222 443 l 251 311 l 247 300 l 163 276 l 150 282 l 117 449 l 121 468 l 286 574 q 365 693 365 628 m 286 68 q 286 51 286 68 q 262 8 286 33 q 199 -17 238 -17 q 141 6 161 -17 q 121 64 121 29 q 144 124 121 99 q 206 149 168 149 q 265 126 244 149 q 286 68 286 103 z "},"@":{"ha":1156,"x_min":46,"x_max":1110,"o":"m 663 -17 q 613 24 613 -17 q 672 313 613 51 l 664 315 q 404 -17 539 78 q 322 35 350 -17 q 293 186 293 86 q 342 396 293 286 q 464 572 390 506 q 611 639 538 639 l 750 617 l 763 651 l 769 653 l 813 632 l 824 615 q 707 81 743 339 l 713 75 q 937 160 860 75 q 1014 389 1014 244 q 903 672 1014 569 q 595 774 792 774 q 272 631 399 774 q 144 280 144 489 q 267 -73 144 71 q 635 -231 390 -217 l 635 -240 l 599 -290 q 192 -122 338 -278 q 46 261 46 33 q 88 481 46 375 q 206 670 131 588 q 394 802 281 753 q 639 851 507 851 q 978 728 846 851 q 1110 424 1110 606 q 991 113 1110 242 q 663 -17 872 -17 m 431 96 q 549 217 468 96 q 708 518 631 338 q 567 564 633 564 q 446 465 501 564 q 390 240 390 367 q 402 139 390 182 q 431 96 414 96 z "},"A":{"ha":803,"x_min":-25,"x_max":821,"o":"m 457 -14 l 453 -4 l 458 50 q 556 67 529 56 q 582 104 582 78 q 569 169 582 131 l 524 321 q 401 322 490 322 q 228 311 313 322 l 176 167 q 164 113 164 129 q 247 56 164 56 l 326 56 l 329 50 l 321 -10 q 128 0 219 0 l -25 -4 l -14 61 q 49 88 25 65 q 94 168 72 111 l 365 878 l 453 901 l 464 901 q 685 157 581 469 q 729 85 701 106 q 818 58 757 64 l 821 53 l 811 -4 q 640 0 711 0 q 457 -14 568 0 m 375 379 q 504 386 425 379 l 394 750 l 385 750 l 253 379 l 375 379 z "},"B":{"ha":829,"x_min":81,"x_max":753,"o":"m 426 -14 q 336 -7 397 -14 q 242 0 275 0 q 81 -17 178 0 l 89 47 q 175 84 153 60 q 197 167 197 108 l 199 750 q 188 810 199 794 q 147 825 178 825 l 100 822 l 97 828 l 107 889 q 261 885 208 885 l 425 890 q 628 835 557 890 q 699 679 699 781 q 656 554 699 610 q 538 465 614 499 q 696 388 639 443 q 753 254 753 332 q 656 66 753 146 q 426 -14 558 -14 m 296 154 q 332 79 296 101 q 453 57 368 57 q 585 103 538 57 q 633 229 633 150 q 446 417 633 383 l 301 414 l 296 154 m 586 656 q 526 788 586 744 q 342 831 467 831 q 322 825 328 831 q 304 488 311 810 q 448 477 435 476 q 469 481 461 478 q 501 497 478 483 q 541 528 524 510 q 572 580 558 546 q 586 656 586 614 z "},"C":{"ha":874,"x_min":56,"x_max":801,"o":"m 756 39 q 458 -17 636 -17 q 168 99 281 -17 q 56 419 56 215 q 193 763 56 624 q 540 901 331 901 q 782 868 643 901 l 788 860 q 753 628 761 756 l 686 622 q 690 690 690 660 q 486 819 690 819 q 263 722 346 819 q 181 449 181 624 q 267 164 181 275 q 499 53 354 53 q 651 106 593 53 q 735 272 708 160 l 801 278 q 764 51 774 151 l 756 39 z "},"D":{"ha":976,"x_min":81,"x_max":921,"o":"m 440 -17 q 261 0 311 0 q 81 -17 178 0 l 89 47 q 175 84 153 60 q 197 167 197 108 l 199 750 q 188 810 199 794 q 147 825 178 825 l 100 822 l 97 828 l 107 889 q 253 885 200 885 l 464 890 q 794 775 667 890 q 921 464 921 660 q 782 126 921 268 q 440 -17 643 -17 m 368 822 q 329 816 339 822 q 318 792 319 810 q 297 181 297 257 q 332 80 297 106 q 472 54 367 54 q 708 158 622 54 q 794 443 794 261 q 684 724 794 625 q 368 822 574 822 z "},"E":{"ha":821,"x_min":81,"x_max":739,"o":"m 304 492 l 447 490 l 617 506 l 622 499 l 603 417 q 420 421 483 421 q 301 411 357 421 q 296 150 296 211 q 313 76 296 89 q 426 63 331 63 q 571 74 522 63 q 641 119 619 86 q 674 232 663 151 l 735 239 l 739 232 q 701 -1 714 117 l 694 -10 q 317 0 406 0 q 81 -14 181 0 l 89 50 q 174 83 151 58 q 197 167 197 107 l 199 750 q 188 810 199 794 q 147 825 178 825 l 100 822 l 97 828 l 107 889 q 406 885 217 885 q 717 901 594 885 l 721 893 q 689 663 697 790 l 622 657 q 625 717 625 697 q 592 800 625 785 q 452 815 560 815 q 331 808 344 815 q 315 761 317 800 l 304 492 z "},"F":{"ha":711,"x_min":81,"x_max":694,"o":"m 446 -6 q 261 0 314 0 q 81 -17 178 0 l 89 47 q 175 84 153 60 q 197 167 197 108 l 199 750 q 188 810 199 794 q 147 825 178 825 l 100 822 l 97 828 l 107 889 q 395 885 217 885 q 690 901 574 885 l 694 893 q 663 658 671 786 l 596 653 q 599 717 599 697 q 569 800 599 785 q 442 815 540 815 q 331 808 344 815 q 315 761 317 800 l 304 468 l 447 467 l 593 482 l 599 475 l 579 392 q 415 396 474 396 q 301 386 357 396 l 296 156 q 308 80 296 99 q 357 61 321 61 l 456 65 l 458 60 l 446 -6 z "},"G":{"ha":926,"x_min":56,"x_max":822,"o":"m 822 396 q 788 330 797 375 q 779 193 779 285 q 789 60 779 101 l 781 47 q 630 3 721 22 q 461 -17 539 -17 q 165 99 275 -17 q 56 423 56 215 q 190 766 56 631 q 543 901 325 901 q 813 868 646 901 l 818 860 q 782 628 790 756 l 717 622 q 721 697 721 660 q 672 790 721 761 q 511 819 622 819 q 265 724 353 819 q 176 451 176 629 q 263 163 176 274 q 493 53 350 53 q 590 66 543 53 q 683 106 638 79 l 683 275 q 669 336 683 322 q 607 350 654 350 l 511 350 l 508 356 l 521 425 q 697 419 615 419 l 817 426 l 822 396 z "},"H":{"ha":1047,"x_min":81,"x_max":968,"o":"m 842 156 q 854 80 842 99 q 903 61 867 61 l 965 65 l 968 60 l 956 -4 q 785 0 846 0 l 625 -3 l 638 60 q 723 89 703 61 q 743 208 743 117 l 743 418 q 532 419 596 419 l 301 404 l 296 156 q 308 80 296 99 q 357 61 321 61 l 419 65 l 422 60 l 410 -4 q 320 0 410 0 q 156 -6 231 0 q 81 -17 82 -11 l 89 47 q 175 84 153 60 q 197 167 197 108 l 199 750 q 188 810 199 794 q 147 825 178 825 l 100 822 l 97 828 l 107 889 q 247 885 208 885 q 410 897 304 885 l 404 835 q 330 805 344 825 q 313 710 315 785 l 304 485 l 538 483 q 743 497 626 483 l 744 750 q 734 810 744 794 q 693 825 724 825 l 646 822 l 643 828 l 653 889 q 736 885 653 885 q 956 897 833 885 l 950 835 q 881 812 899 828 q 861 756 864 796 q 842 156 842 350 z "},"I":{"ha":501,"x_min":78,"x_max":433,"o":"m 296 156 q 308 80 296 99 q 357 61 321 61 l 431 65 l 433 60 l 421 -4 q 256 0 304 0 q 78 -17 175 0 l 86 47 q 174 84 151 60 q 197 167 197 108 l 199 750 q 188 810 199 794 q 147 825 178 825 l 89 822 l 86 828 l 96 889 q 247 885 204 885 q 421 897 306 885 l 415 835 q 338 812 357 828 q 315 756 318 796 q 296 156 296 353 z "},"J":{"ha":454,"x_min":32,"x_max":385,"o":"m 182 160 l 183 750 q 174 809 183 794 q 132 824 164 824 l 67 818 l 64 824 l 74 885 l 224 885 l 385 897 l 379 835 q 317 814 331 828 q 300 756 303 800 q 282 161 285 425 q 227 -66 281 19 q 56 -200 174 -151 l 32 -154 l 36 -143 q 151 -28 121 -92 q 182 160 182 35 z "},"K":{"ha":872,"x_min":79,"x_max":858,"o":"m 107 889 q 247 885 208 885 q 410 897 304 885 l 404 835 q 333 809 353 826 q 313 751 314 792 q 296 124 296 150 q 308 80 296 99 q 357 61 319 61 l 419 65 l 422 60 l 410 -4 q 239 0 300 0 l 79 -1 l 93 61 q 178 88 158 68 q 197 167 197 107 l 199 750 q 188 810 199 794 q 147 825 178 825 l 100 822 l 97 828 l 107 889 m 629 788 q 542 829 629 824 l 539 835 l 549 894 q 701 885 650 885 l 829 890 l 835 881 l 825 824 q 758 794 789 817 q 665 707 728 772 l 442 472 l 675 168 q 765 76 725 103 q 853 50 804 50 l 858 44 l 850 -3 q 735 -19 750 -19 q 579 100 665 -19 l 336 438 l 338 457 l 586 715 q 629 788 629 758 z "},"L":{"ha":704,"x_min":94,"x_max":701,"o":"m 654 -12 q 324 0 413 0 q 94 -14 189 0 l 103 50 q 177 83 157 58 q 197 167 197 107 l 199 750 q 188 810 199 794 q 147 825 178 825 l 100 822 l 97 828 l 107 889 q 250 885 210 885 q 411 897 306 885 l 406 835 q 378 830 390 832 q 358 824 367 828 q 342 817 349 819 q 331 806 336 815 q 324 794 326 797 q 320 777 322 790 q 317 758 318 764 q 314 706 314 731 q 297 169 297 474 q 317 81 297 99 q 437 63 338 63 q 574 97 536 63 q 636 260 613 132 l 697 267 l 701 260 q 661 -4 676 133 l 654 -12 z "},"M":{"ha":1176,"x_min":64,"x_max":1108,"o":"m 275 722 q 228 101 228 140 q 271 61 228 61 l 328 63 l 331 57 l 318 -6 q 194 0 229 0 q 64 -11 133 0 l 71 53 q 135 81 115 58 q 160 160 154 104 q 221 756 221 717 q 192 814 221 796 q 100 836 164 832 l 96 843 l 107 892 q 258 885 214 885 l 353 890 q 588 201 471 511 l 594 201 q 835 888 703 490 q 926 885 901 885 l 1076 893 l 1079 888 l 1072 836 q 988 812 1013 829 q 963 760 963 794 q 999 193 963 653 q 1021 86 1008 111 q 1067 61 1033 61 l 1106 64 l 1108 58 l 1096 -4 q 964 0 1014 0 l 819 -11 l 825 53 q 907 122 907 63 l 860 722 l 853 722 l 585 -17 l 551 -26 l 282 722 l 275 722 z "},"N":{"ha":999,"x_min":75,"x_max":953,"o":"m 772 201 l 772 764 q 726 824 772 824 l 674 822 l 671 828 l 683 890 q 806 885 768 885 q 953 896 867 885 l 946 832 q 875 805 897 825 q 851 744 853 785 l 832 -36 l 792 -56 q 275 710 540 335 l 268 710 l 261 117 q 271 74 261 86 q 304 61 281 61 l 375 63 l 378 57 l 365 -6 q 236 0 278 0 q 89 -11 169 0 l 96 53 q 182 140 181 63 l 200 747 q 174 808 200 790 q 79 833 149 826 l 75 840 l 86 892 q 206 885 167 885 l 299 890 q 765 201 504 571 l 772 201 z "},"O":{"ha":961,"x_min":56,"x_max":906,"o":"m 175 449 q 175 364 175 449 q 261 167 175 279 q 481 54 347 54 q 699 155 615 54 q 782 424 782 256 q 694 706 782 593 q 471 818 606 818 q 256 718 336 818 q 175 449 175 618 m 440 -17 q 163 103 269 -17 q 56 420 56 222 q 188 760 56 618 q 503 901 319 901 q 796 782 686 901 q 906 465 906 663 q 772 125 906 267 q 440 -17 638 -17 z "},"P":{"ha":765,"x_min":88,"x_max":733,"o":"m 436 890 q 657 826 581 890 q 733 644 733 763 q 636 432 733 525 q 415 339 539 339 l 299 339 l 296 203 q 306 85 296 108 q 357 61 317 61 l 432 65 l 435 60 l 422 -4 q 331 0 422 0 q 165 -4 239 0 q 88 -11 90 -8 l 97 53 q 178 85 158 64 q 197 167 197 107 l 199 750 q 188 810 199 794 q 147 825 178 825 l 100 822 l 97 828 l 107 889 q 261 885 208 885 l 436 890 m 617 617 q 553 773 617 724 q 356 822 490 822 q 325 819 331 822 q 318 803 319 817 q 301 421 306 626 l 449 400 q 617 617 617 428 z "},"Q":{"ha":968,"x_min":56,"x_max":1117,"o":"m 565 -7 q 979 -190 835 -190 q 1103 -176 1050 -190 l 1108 -181 l 1117 -206 q 985 -300 1013 -300 q 787 -249 886 -300 q 440 -17 688 -197 q 163 103 269 -17 q 56 420 56 222 q 188 760 56 618 q 503 901 319 901 q 796 782 686 901 q 906 483 906 663 q 810 172 906 303 q 565 0 715 42 l 565 -7 m 175 449 q 175 364 175 449 q 261 167 175 279 q 481 54 347 54 q 699 155 615 54 q 782 424 782 256 q 694 706 782 593 q 471 818 606 818 q 256 718 336 818 q 175 449 175 618 z "},"R":{"ha":849,"x_min":79,"x_max":838,"o":"m 432 890 q 636 832 561 890 q 711 681 711 774 q 507 406 711 499 l 660 164 q 738 72 700 97 q 832 46 776 46 l 838 40 l 829 -7 l 711 -22 q 637 13 676 -22 q 564 110 597 49 l 415 379 l 300 379 l 296 172 q 313 78 296 97 q 396 58 329 58 l 399 53 l 386 -6 q 239 -1 386 -4 l 79 -6 l 92 57 q 177 85 157 64 q 197 167 197 107 l 199 750 q 188 810 199 794 q 147 825 178 825 l 100 822 l 97 828 l 107 889 q 261 885 208 885 l 432 890 m 596 647 q 342 831 596 831 q 323 824 328 831 q 317 799 318 818 q 303 457 304 586 l 446 443 q 544 504 497 456 q 580 563 564 525 q 596 647 596 601 z "},"S":{"ha":736,"x_min":79,"x_max":647,"o":"m 304 -17 q 192 -5 246 -17 q 86 31 138 7 l 79 44 q 96 286 96 151 l 158 293 q 192 97 158 143 q 326 51 226 51 q 479 92 426 51 q 532 204 532 133 q 469 313 532 265 q 378 371 424 347 q 330 395 332 394 q 326 397 328 396 q 296 413 324 399 q 237 447 268 428 q 168 497 206 465 q 94 643 94 558 q 187 827 94 753 q 414 901 279 901 q 626 867 519 901 l 631 858 q 600 624 608 751 l 546 618 l 538 625 q 542 697 542 654 q 506 799 542 771 q 385 826 469 826 q 251 788 300 826 q 201 694 201 750 q 249 597 201 638 q 413 496 297 556 q 572 397 528 436 q 647 254 647 333 q 551 59 647 135 q 304 -17 456 -17 z "},"T":{"ha":758,"x_min":13,"x_max":743,"o":"m 324 225 l 324 831 q 230 826 258 828 q 169 817 201 825 q 127 801 136 808 q 105 770 118 794 q 88 725 92 746 q 78 656 85 704 l 13 650 q 33 890 29 772 l 46 901 l 161 886 l 592 886 l 710 901 l 722 890 q 743 656 725 800 l 678 650 q 665 721 669 699 q 649 768 661 743 q 626 800 636 793 q 587 816 617 807 q 529 826 557 825 q 443 831 501 828 q 421 156 421 608 q 439 83 421 104 q 500 61 457 61 l 576 65 l 581 60 l 568 -4 q 364 0 429 0 l 174 -6 l 185 54 q 303 88 282 63 q 324 225 324 114 z "},"U":{"ha":946,"x_min":49,"x_max":900,"o":"m 256 347 q 315 136 256 210 q 488 63 375 63 q 661 123 601 63 q 721 297 721 183 l 713 750 q 701 812 710 799 q 661 825 692 825 l 601 822 l 599 828 l 608 889 q 753 885 713 885 q 900 897 810 885 l 894 835 q 816 813 833 826 q 799 756 799 799 l 799 289 q 708 63 799 143 q 463 -17 618 -17 q 229 63 308 -17 q 150 290 150 143 l 150 750 q 140 810 150 794 q 99 825 129 825 l 51 822 l 49 828 l 58 889 q 203 885 163 885 q 361 897 258 885 l 356 835 q 287 812 304 828 q 267 756 269 796 l 256 347 z "},"V":{"ha":847,"x_min":-12,"x_max":849,"o":"m -3 889 q 151 885 111 885 q 367 900 236 885 l 371 890 l 365 836 q 266 819 290 831 q 242 783 242 808 q 417 135 242 738 l 429 135 q 660 774 660 729 q 564 829 660 829 l 492 829 l 489 835 l 497 894 q 696 885 604 885 l 849 889 l 838 824 q 778 810 794 822 q 746 757 761 797 l 447 7 l 358 -24 q 118 744 235 383 q -10 824 93 822 l -12 829 l -3 889 z "},"W":{"ha":1294,"x_min":-10,"x_max":1293,"o":"m -8 824 l -10 829 l -1 889 q 156 885 110 885 q 357 900 253 885 l 361 890 l 356 836 q 260 819 285 831 q 236 782 236 808 q 407 135 236 728 l 415 135 l 611 668 l 586 744 q 543 803 572 785 q 461 824 514 821 l 458 829 l 468 889 q 621 885 579 885 q 826 900 710 885 l 831 890 l 825 836 q 728 819 753 831 q 704 783 704 808 q 876 135 704 738 l 885 135 q 1110 781 1110 742 q 1015 829 1110 829 l 946 829 l 943 835 l 953 894 q 1146 885 1057 885 l 1293 889 l 1283 824 q 1225 809 1242 821 q 1194 757 1208 797 l 903 7 l 817 -24 q 643 565 738 261 l 635 565 l 438 7 l 349 -24 q 117 744 233 385 q -8 824 92 822 z "},"X":{"ha":911,"x_min":17,"x_max":904,"o":"m 38 889 q 231 885 174 885 q 425 896 336 885 l 429 886 l 425 838 q 317 788 317 829 q 474 524 317 763 q 516 580 488 543 q 565 645 544 617 q 608 706 586 674 q 656 793 656 771 q 575 835 656 826 l 572 840 l 581 894 q 733 885 682 885 l 868 890 l 874 881 l 865 829 q 772 790 806 817 q 676 685 739 763 l 508 472 l 711 176 q 792 94 749 121 q 901 61 836 67 l 904 56 l 894 -4 q 722 0 786 0 l 507 -11 l 503 -1 l 508 53 q 617 101 617 58 q 589 163 617 122 l 438 390 q 253 140 267 164 q 239 97 239 117 q 319 56 239 61 l 322 50 l 313 -10 q 160 0 211 0 l 22 -6 l 17 4 l 26 61 q 132 122 83 78 q 251 253 181 165 l 404 442 l 222 714 q 32 829 156 813 l 29 835 l 38 889 z "},"Y":{"ha":747,"x_min":-26,"x_max":775,"o":"m 332 838 q 248 822 269 832 q 226 790 226 811 q 265 680 226 769 q 342 510 304 590 q 382 429 381 429 l 389 429 l 547 724 q 569 793 569 764 q 482 835 569 829 l 479 840 l 488 894 q 642 885 590 885 l 769 890 l 775 881 l 767 829 q 676 790 703 817 q 599 674 649 764 q 594 665 596 668 l 446 404 q 418 283 422 361 q 415 163 415 226 q 428 81 415 100 q 476 61 440 61 l 544 65 l 547 60 l 535 -4 q 374 0 419 0 q 200 -17 297 0 l 208 47 q 299 89 281 61 q 317 197 317 117 l 317 258 q 276 415 317 335 l 151 669 q 85 788 104 767 q -24 829 53 822 l -26 835 l -18 889 q 135 885 71 885 l 332 896 l 336 886 l 332 838 z "},"Z":{"ha":789,"x_min":47,"x_max":728,"o":"m 688 18 l 667 -4 l 164 4 l 67 -4 l 47 40 l 565 824 l 325 815 q 189 770 229 811 q 138 624 149 729 l 72 618 q 97 889 94 761 l 111 901 l 354 886 l 713 876 l 728 836 q 192 56 463 483 l 474 65 q 590 122 546 67 q 657 296 635 178 l 722 303 q 688 18 694 151 z "},"[":{"ha":429,"x_min":133,"x_max":394,"o":"m 386 -190 l 133 -175 q 149 347 149 208 l 133 874 l 389 889 l 394 881 l 386 838 l 228 804 l 228 -106 l 389 -139 l 394 -149 l 386 -190 z "},"\\":{"ha":457,"x_min":51,"x_max":414,"o":"m 51 924 l 63 938 l 126 938 q 345 94 317 196 q 414 -142 374 -8 l 404 -153 l 338 -153 q 221 299 279 69 l 51 924 z "},"]":{"ha":429,"x_min":35,"x_max":296,"o":"m 43 889 l 296 874 q 281 351 281 490 l 296 -175 l 40 -190 l 35 -182 l 43 -139 l 201 -106 l 201 804 l 40 838 l 35 847 l 43 889 z "},"^":{"ha":703,"x_min":78,"x_max":625,"o":"m 375 668 l 390 657 q 507 382 463 483 l 625 121 l 569 79 l 554 81 q 347 565 432 363 l 339 565 l 256 351 l 154 82 l 85 92 l 78 104 q 310 665 131 242 l 375 668 z "},"_":{"ha":636,"x_min":-8,"x_max":644,"o":"m 633 -197 l 0 -200 l -8 -187 l 7 -119 q 326 -121 215 -121 q 537 -117 438 -121 q 636 -112 636 -114 l 644 -126 l 633 -197 z "},"`":{"ha":553,"x_min":99,"x_max":374,"o":"m 100 917 l 99 932 l 151 989 l 165 992 q 374 753 274 861 l 346 726 l 333 724 q 100 917 240 810 z "},"a":{"ha":703,"x_min":-3,"x_max":700,"o":"m 693 -3 q 567 0 608 0 q 392 -10 501 0 l 388 -3 l 392 47 q 470 60 450 51 q 490 89 490 68 q 481 135 490 110 l 447 242 q 356 243 419 243 q 213 235 292 243 q 164 93 164 106 q 229 51 164 51 l 289 51 l 293 46 l 285 -7 q 125 0 200 0 l -3 -3 l 6 54 q 54 76 36 58 q 90 135 72 93 l 308 686 l 407 704 l 417 703 q 593 129 514 353 q 628 73 607 89 q 697 53 650 57 l 700 47 l 693 -3 m 329 300 q 431 306 378 300 l 346 575 l 336 575 l 235 300 l 329 300 z "},"b":{"ha":719,"x_min":75,"x_max":647,"o":"m 372 -11 l 214 0 q 75 -12 153 0 l 82 44 q 151 73 133 54 q 169 136 169 92 l 171 581 q 163 626 171 614 q 131 638 154 638 l 92 636 l 88 642 l 96 694 q 231 692 189 692 l 375 697 q 544 654 485 697 q 604 531 604 611 q 569 431 604 475 q 475 364 533 386 q 599 306 551 349 q 647 201 647 264 q 567 51 647 113 q 372 -11 486 -11 m 268 128 q 296 73 268 89 q 390 57 324 57 q 494 90 457 57 q 531 182 531 124 q 388 318 531 293 l 272 317 l 268 128 m 494 510 q 304 636 494 636 q 289 631 293 636 q 275 386 279 617 q 401 380 390 376 q 429 393 413 383 q 458 417 446 403 q 494 510 494 451 z "},"c":{"ha":744,"x_min":57,"x_max":672,"o":"m 635 31 q 388 -12 535 -12 q 149 78 240 -12 q 57 330 57 168 q 169 598 57 492 q 456 704 281 704 q 658 678 544 704 l 664 669 q 635 481 642 586 l 565 476 q 568 531 568 504 q 413 628 568 628 q 242 556 304 628 q 179 353 179 485 q 245 139 179 221 q 422 57 311 57 q 603 221 565 57 l 672 226 q 643 42 650 124 l 635 31 z "},"d":{"ha":828,"x_min":76,"x_max":771,"o":"m 376 -12 q 228 0 271 0 q 76 -12 151 0 l 83 46 q 151 74 133 54 q 169 138 169 93 l 171 579 q 163 626 171 614 q 131 638 154 638 l 92 635 l 89 642 l 97 694 q 222 692 179 692 l 397 696 q 669 608 567 696 q 771 364 771 519 q 658 98 771 208 q 376 -12 544 -12 m 324 631 q 294 626 301 631 q 285 606 286 621 q 268 153 268 215 q 294 73 268 92 q 400 54 321 54 q 583 131 517 54 q 649 346 649 207 q 565 558 649 485 q 324 631 482 631 z "},"e":{"ha":706,"x_min":75,"x_max":629,"o":"m 275 389 l 389 388 l 526 399 l 532 392 l 515 319 q 370 322 419 322 q 272 315 321 322 q 268 145 268 210 q 281 70 268 81 q 369 60 294 60 q 481 69 443 60 q 536 103 519 78 q 563 190 553 128 l 624 196 l 629 189 q 599 0 608 97 l 590 -7 q 281 0 360 0 q 75 -11 164 0 l 82 47 q 151 72 133 53 q 169 139 169 92 l 171 579 q 163 626 171 614 q 129 638 154 638 l 92 636 l 89 642 l 97 694 q 348 692 196 692 q 611 704 500 692 l 615 697 q 589 511 596 611 l 522 506 q 525 551 525 536 q 499 615 525 603 q 390 626 472 626 q 296 620 307 626 q 283 586 285 614 l 275 389 z "},"f":{"ha":619,"x_min":75,"x_max":593,"o":"m 390 -4 q 235 0 279 0 q 75 -12 153 0 l 82 44 q 152 73 135 54 q 169 139 169 92 l 171 579 q 163 626 171 614 q 129 638 154 638 l 92 636 l 89 642 l 97 694 q 340 692 196 692 q 588 704 483 692 l 593 697 q 567 508 574 608 l 500 504 q 503 551 503 538 q 479 614 503 601 q 381 626 456 626 q 296 620 307 626 q 283 586 285 614 l 274 371 l 389 369 l 508 381 l 514 374 l 499 300 q 367 303 413 303 q 272 296 321 303 l 268 132 q 278 74 268 89 q 318 60 288 60 l 396 64 l 400 57 l 390 -4 z "},"g":{"ha":786,"x_min":57,"x_max":693,"o":"m 438 339 l 585 336 l 688 342 l 693 311 q 663 260 671 294 q 656 151 656 225 q 663 46 656 78 l 656 35 q 390 -12 542 -12 q 148 78 239 -12 q 57 333 57 169 q 167 600 57 496 q 458 704 276 704 q 681 678 551 704 l 686 669 q 657 483 663 586 l 589 478 q 592 536 592 507 q 554 606 592 585 q 432 628 517 628 q 242 559 308 628 q 176 355 176 490 q 242 138 176 219 q 418 57 307 57 q 493 66 457 57 q 563 93 529 75 l 563 215 q 551 261 563 250 q 503 272 539 272 l 429 272 l 426 278 l 438 339 z "},"h":{"ha":888,"x_min":75,"x_max":814,"o":"m 713 129 q 722 70 713 85 q 761 56 732 56 l 810 58 l 814 53 l 803 -3 q 657 0 713 0 l 518 -1 l 529 54 q 597 76 581 54 q 614 164 614 97 l 614 319 q 454 321 503 321 l 272 310 l 268 129 q 278 69 268 85 q 317 54 288 54 l 365 58 l 368 53 l 358 -3 q 245 0 292 0 q 138 -4 199 0 q 75 -12 76 -8 l 82 44 q 151 73 133 54 q 169 138 169 92 l 171 579 q 163 626 171 614 q 129 638 154 638 l 92 636 l 88 642 l 96 694 q 225 692 181 692 l 360 701 l 354 644 q 295 622 307 638 q 281 553 283 607 l 274 385 l 454 383 q 614 393 528 383 l 615 579 q 607 626 615 614 q 574 638 599 638 l 535 636 l 532 642 l 540 694 q 660 692 540 692 l 804 701 l 800 644 q 743 627 757 639 q 728 583 729 615 q 713 129 713 314 z "},"i":{"ha":443,"x_min":74,"x_max":376,"o":"m 88 694 l 229 692 l 368 701 l 363 644 q 301 627 317 639 q 283 583 286 615 q 268 129 268 311 q 278 69 268 85 q 317 54 288 54 l 374 58 l 376 53 l 367 -3 q 225 0 265 0 q 74 -12 151 0 l 81 44 q 151 73 133 54 q 169 138 169 92 l 171 579 q 163 626 171 614 q 129 638 154 638 l 83 636 l 81 642 l 88 694 z "},"j":{"ha":406,"x_min":38,"x_max":340,"o":"m 157 128 l 158 579 q 150 625 158 614 q 117 636 142 636 l 65 633 l 61 639 l 69 692 l 197 692 l 340 701 l 335 644 q 285 628 296 639 q 271 583 274 617 q 256 135 257 260 q 209 -56 256 11 q 60 -160 163 -122 l 38 -121 l 40 -111 q 133 -20 108 -69 q 157 128 157 29 z "},"k":{"ha":754,"x_min":75,"x_max":729,"o":"m 281 581 q 268 103 268 124 q 278 69 268 83 q 317 54 288 54 l 365 58 l 368 53 l 358 -3 q 213 0 263 0 l 75 -1 l 86 54 q 154 75 139 60 q 169 138 169 90 l 171 579 q 163 626 171 614 q 129 638 154 638 l 92 636 l 88 642 l 96 694 q 229 692 189 692 l 360 701 l 356 644 q 297 624 313 638 q 281 581 282 611 m 528 607 q 460 640 528 636 l 457 646 l 465 699 q 594 692 551 692 l 707 696 l 713 688 l 704 638 q 647 609 674 629 q 568 536 619 589 l 401 371 l 582 140 q 653 69 622 90 q 724 47 685 49 l 729 40 l 722 -3 q 618 -15 632 -15 q 490 76 557 -15 l 299 342 l 300 360 l 494 553 q 528 607 528 583 z "},"l":{"ha":614,"x_min":85,"x_max":597,"o":"m 96 694 l 231 692 l 365 701 l 360 643 q 292 613 301 636 q 277 483 286 601 q 268 138 268 364 q 284 74 268 88 q 376 60 300 60 q 483 88 453 60 q 532 218 514 115 l 593 225 l 597 217 q 565 -1 578 113 l 558 -10 q 286 0 363 0 q 85 -11 171 0 l 93 47 q 153 73 138 54 q 169 139 169 92 l 171 579 q 163 626 171 614 q 129 638 154 638 l 92 636 l 88 642 l 96 694 z "},"m":{"ha":993,"x_min":63,"x_max":929,"o":"m 919 -3 q 823 0 851 0 q 678 -8 794 0 l 683 49 q 735 65 719 53 q 750 103 750 78 l 715 538 l 708 538 q 500 -11 626 328 l 460 -19 q 250 538 319 361 l 243 538 q 208 86 208 117 q 244 56 208 56 l 289 56 l 292 51 l 282 -4 q 164 0 203 0 l 63 -8 l 68 49 q 119 70 104 53 q 140 131 135 88 q 189 588 189 519 q 167 628 189 615 q 93 644 146 642 l 89 651 l 99 697 q 228 692 190 692 l 318 696 q 497 189 410 410 l 504 189 q 689 693 589 406 l 710 693 l 781 692 l 901 699 l 904 694 l 897 646 q 829 627 849 640 q 810 586 810 614 q 839 157 810 490 q 857 75 846 94 q 894 56 868 56 l 926 57 l 929 53 l 919 -3 z "},"n":{"ha":853,"x_min":71,"x_max":804,"o":"m 603 636 l 561 636 l 558 642 l 568 696 q 686 692 644 692 l 804 700 l 799 643 q 722 574 724 633 l 706 -24 l 651 -39 q 250 521 438 272 l 243 521 l 239 100 q 247 64 239 74 q 275 54 256 54 l 331 56 l 335 51 l 324 -4 q 197 0 246 0 l 82 -8 l 89 49 q 158 117 157 57 l 174 575 q 153 623 174 610 q 76 643 133 636 l 71 650 l 81 697 q 186 692 149 692 l 271 696 q 635 189 439 449 l 642 189 l 640 590 q 603 636 640 636 z "},"o":{"ha":813,"x_min":57,"x_max":756,"o":"m 175 352 q 175 287 175 352 q 240 138 175 222 q 408 54 304 54 q 574 127 511 54 q 636 330 636 200 q 569 543 636 460 q 399 626 503 626 q 235 554 296 626 q 175 352 175 482 m 756 363 q 756 284 756 363 q 647 97 756 206 q 386 -12 539 -12 q 145 80 233 -12 q 57 330 57 172 q 164 596 57 488 q 424 704 271 704 q 667 613 578 704 q 756 363 756 521 z "},"p":{"ha":665,"x_min":81,"x_max":629,"o":"m 96 694 l 226 692 l 378 696 q 566 643 503 696 q 629 497 629 590 q 549 331 629 404 q 365 258 468 258 l 269 258 l 268 161 q 276 74 268 92 q 318 56 285 56 l 378 58 l 381 53 l 369 -3 q 252 0 294 0 q 146 -3 210 0 q 81 -8 82 -6 l 89 49 q 153 74 138 57 q 169 138 169 92 l 171 579 q 163 626 171 614 q 131 638 154 638 l 92 636 l 88 642 l 96 694 m 517 479 q 468 594 517 557 q 314 631 419 631 q 290 628 294 631 q 285 614 286 626 q 272 333 274 438 l 388 318 q 517 479 517 339 z "},"q":{"ha":819,"x_min":57,"x_max":935,"o":"m 828 -137 q 921 -126 874 -137 l 926 -132 l 935 -160 q 815 -239 840 -239 q 656 -198 735 -239 q 376 -12 576 -157 q 145 80 233 -12 q 57 330 57 172 q 164 596 57 488 q 424 704 271 704 q 667 613 578 704 q 756 380 756 521 q 682 140 756 239 q 489 6 608 40 l 489 -1 q 828 -137 703 -137 m 175 352 q 175 287 175 352 q 240 138 175 222 q 408 54 304 54 q 574 127 511 54 q 636 330 636 200 q 569 543 636 460 q 399 626 503 626 q 235 554 296 626 q 175 352 175 482 z "},"r":{"ha":735,"x_min":75,"x_max":713,"o":"m 375 696 q 551 649 488 696 q 615 531 615 603 q 451 314 615 388 l 569 136 q 633 65 603 86 q 707 44 664 44 l 713 38 l 706 -6 l 599 -17 q 478 85 533 -17 l 361 289 l 271 289 l 268 140 q 281 69 268 83 q 350 53 294 54 l 353 49 l 342 -4 q 214 -1 342 -1 l 75 -6 l 85 51 q 153 75 136 58 q 169 138 169 92 l 171 581 q 163 626 171 614 q 131 638 154 638 l 92 636 l 88 642 l 96 694 q 226 692 183 692 l 375 696 m 386 350 q 503 501 503 397 q 304 636 503 636 q 285 611 285 636 q 274 361 274 442 l 386 350 z "},"s":{"ha":638,"x_min":74,"x_max":556,"o":"m 265 -12 q 170 -3 217 -12 q 81 25 124 6 l 74 38 q 89 225 89 125 l 151 231 q 179 88 151 122 q 283 54 207 54 q 401 83 360 54 q 442 161 442 113 q 392 242 442 207 q 347 269 363 261 q 268 308 308 288 q 201 343 228 328 q 144 382 175 358 q 86 499 86 429 q 164 646 86 588 q 358 704 242 704 q 538 678 456 704 l 543 668 q 517 485 524 583 l 463 479 l 454 485 q 457 547 457 506 q 428 610 457 589 q 335 632 400 632 q 231 605 269 632 q 193 536 193 578 q 231 465 193 494 q 329 408 269 436 q 408 370 389 379 q 461 340 426 361 q 511 300 496 318 q 556 200 556 253 q 475 47 556 106 q 265 -12 394 -12 z "},"t":{"ha":658,"x_min":24,"x_max":632,"o":"m 276 176 l 276 636 q 136 617 165 632 q 89 497 104 601 l 24 493 q 40 694 38 599 l 51 704 l 150 693 l 504 693 l 606 704 l 617 694 q 632 497 619 593 l 568 493 q 558 552 563 531 q 542 591 554 574 q 524 615 531 608 q 492 628 518 622 q 390 636 463 633 q 372 129 372 468 q 388 72 372 89 q 438 56 403 56 l 499 58 l 503 54 l 493 -4 q 318 0 372 0 l 153 -6 l 163 50 q 259 76 242 56 q 276 176 276 97 z "},"u":{"ha":799,"x_min":50,"x_max":750,"o":"m 413 60 q 590 231 590 60 l 585 579 q 575 627 582 617 q 544 638 568 638 l 497 636 l 496 640 l 504 694 q 633 692 590 692 l 750 700 l 746 644 q 683 626 697 638 q 669 585 669 615 l 669 229 q 595 51 669 114 q 391 -12 521 -12 q 197 49 261 -12 q 132 225 132 110 l 132 579 q 124 626 132 614 q 90 638 115 638 l 53 636 l 50 640 l 58 694 q 196 692 147 692 l 319 700 l 314 644 q 260 626 274 639 q 243 583 246 614 l 235 265 q 281 113 235 167 q 413 60 326 60 z "},"v":{"ha":729,"x_min":6,"x_max":717,"o":"m 325 644 q 245 632 264 640 q 226 604 226 624 q 360 117 226 569 l 372 117 q 485 406 421 233 q 550 600 550 578 q 476 640 550 640 l 421 640 l 418 646 l 425 699 q 589 692 514 692 l 717 694 l 707 638 q 660 626 674 636 q 635 583 647 615 l 400 6 l 297 -18 q 108 574 196 317 q 8 638 89 633 l 6 642 l 14 694 q 149 692 107 692 l 325 703 l 329 694 l 325 644 z "},"w":{"ha":1101,"x_min":7,"x_max":1086,"o":"m 15 694 q 144 692 106 692 q 317 703 219 692 l 321 694 l 315 644 q 239 632 257 640 q 221 603 221 624 q 351 117 221 564 l 360 117 q 442 335 388 185 q 513 525 497 485 q 506 542 510 533 q 492 586 499 561 q 396 638 478 632 l 393 642 l 401 694 q 533 692 496 692 q 707 703 601 692 l 711 694 l 707 644 q 630 632 649 640 q 611 604 611 624 q 742 117 611 569 l 751 117 q 860 403 796 225 q 924 603 924 582 q 908 632 924 624 q 851 640 892 640 l 799 640 l 796 646 l 804 699 q 963 692 892 692 l 1086 694 l 1078 638 q 1033 625 1046 635 q 1008 583 1019 615 l 779 6 l 681 -18 q 549 418 669 49 l 542 418 l 390 6 l 290 -18 q 107 574 194 317 q 10 638 88 633 q 7 642 10 639 l 15 694 z "},"x":{"ha":786,"x_min":28,"x_max":764,"o":"m 492 699 l 624 692 l 739 696 l 743 688 l 736 640 q 658 606 686 628 q 582 526 631 585 l 449 363 l 607 146 q 761 56 668 63 l 764 51 l 756 -3 q 613 0 664 0 l 429 -8 l 425 0 l 429 49 q 513 85 513 53 q 490 129 513 99 l 372 294 l 275 172 q 222 83 222 107 q 285 51 222 56 l 289 46 l 281 -7 q 150 0 192 0 l 32 -4 l 28 4 l 35 56 q 119 103 79 68 q 215 203 160 138 l 338 349 l 194 549 q 42 639 142 625 l 39 644 l 46 694 q 214 692 153 692 l 374 700 l 376 692 l 372 646 q 289 610 289 642 q 411 417 289 589 q 464 483 419 429 q 551 614 551 589 q 488 644 551 639 l 485 649 l 492 699 z "},"y":{"ha":660,"x_min":-4,"x_max":665,"o":"m 419 699 l 553 692 l 661 696 l 665 688 l 658 640 q 583 605 606 629 q 511 500 560 581 l 399 308 q 381 250 383 282 q 375 144 375 203 q 385 71 375 86 q 426 56 396 56 l 482 58 l 485 54 l 474 -4 q 331 0 371 0 q 176 -12 257 0 l 185 44 q 261 75 246 54 q 276 157 276 96 l 276 200 q 243 319 276 258 q 101 586 114 567 q -1 639 71 632 l -4 644 l 4 694 q 135 692 83 692 l 301 700 l 306 692 l 301 646 q 237 635 254 643 q 219 607 219 628 q 339 347 219 586 l 346 347 l 465 561 q 483 614 483 593 q 415 644 483 640 l 413 649 l 419 699 z "},"z":{"ha":681,"x_min":50,"x_max":622,"o":"m 589 15 l 571 -3 l 150 3 l 68 -4 l 50 35 l 468 633 l 285 626 q 176 592 207 622 q 136 482 144 561 l 72 476 q 92 694 90 594 l 104 706 l 304 693 l 607 686 l 622 651 q 190 54 371 335 l 407 64 q 501 108 465 67 q 553 239 536 150 l 618 246 q 589 15 594 119 z "},"{":{"ha":429,"x_min":64,"x_max":400,"o":"m 69 372 q 162 417 125 388 q 199 481 199 446 q 170 607 199 517 q 142 740 142 697 q 188 855 142 808 q 317 901 235 901 l 396 893 l 400 886 l 389 844 q 315 851 349 851 q 261 824 282 851 q 240 761 240 797 q 259 634 240 725 q 278 507 278 543 q 176 368 278 401 l 176 360 q 278 214 278 322 q 259 83 278 176 q 240 -46 240 -10 q 261 -108 240 -82 q 326 -135 282 -135 l 396 -126 l 400 -135 l 389 -174 q 314 -185 356 -185 q 188 -138 235 -185 q 142 -24 142 -92 q 170 108 142 21 q 199 221 199 196 q 64 343 199 313 l 69 372 z "},"|":{"ha":517,"x_min":211,"x_max":313,"o":"m 297 1121 l 313 1113 q 304 404 304 635 l 306 -358 l 224 -374 l 211 -365 q 214 1106 211 -339 l 297 1121 z "},"}":{"ha":429,"x_min":29,"x_max":365,"o":"m 360 344 q 267 300 304 329 q 231 235 231 271 q 259 110 231 200 q 288 -24 288 19 q 241 -138 288 -92 q 113 -185 194 -185 l 33 -176 l 29 -169 l 40 -128 q 114 -135 81 -135 q 168 -108 147 -135 q 189 -44 189 -81 q 170 83 189 -8 q 151 210 151 174 q 253 349 151 315 l 253 357 q 151 503 151 394 q 170 633 151 540 q 189 763 189 726 q 168 825 189 799 q 103 851 147 851 l 33 843 l 29 851 l 40 890 q 115 901 74 901 q 241 855 194 901 q 288 740 288 808 q 259 608 288 696 q 231 496 231 521 q 365 374 231 404 l 360 344 z "},"~":{"ha":703,"x_min":60,"x_max":647,"o":"m 188 446 q 358 416 226 446 q 514 386 490 386 q 594 444 549 386 l 608 463 l 617 463 l 647 433 l 647 426 l 542 303 l 519 297 q 349 327 481 297 q 194 357 217 357 q 114 300 156 357 l 99 281 l 90 281 l 60 310 l 60 317 l 165 440 l 188 446 z "}," ":{"ha":281,"x_min":0,"x_max":0,"o":""},"¡":{"ha":396,"x_min":122,"x_max":311,"o":"m 146 560 q 146 577 146 560 q 170 619 146 594 q 233 644 194 644 q 291 622 271 644 q 311 564 311 599 q 288 504 311 529 q 226 479 264 479 q 167 502 188 479 q 146 560 146 525 m 249 336 l 260 -297 l 250 -311 l 135 -336 l 122 -321 l 194 338 l 233 347 l 249 336 z "},"¢":{"ha":589,"x_min":50,"x_max":538,"o":"m 340 -17 q 318 -15 325 -17 l 300 -210 l 264 -214 l 257 -204 l 275 -10 q 110 90 171 10 q 50 299 50 169 q 131 528 50 429 q 336 642 213 628 l 361 908 l 397 914 l 406 901 l 381 644 q 533 618 461 642 l 538 608 q 508 417 513 525 l 451 413 l 451 456 q 431 526 451 497 q 374 564 410 554 l 326 78 q 360 76 335 76 q 424 88 385 76 q 507 122 463 100 l 515 119 l 531 76 q 340 -17 408 -17 m 329 569 q 205 506 249 567 q 161 344 161 446 q 194 177 161 242 q 283 89 226 113 l 329 569 z "},"£":{"ha":729,"x_min":53,"x_max":654,"o":"m 636 194 q 654 106 654 153 q 624 21 654 58 q 547 -17 593 -17 q 378 15 500 -17 q 197 46 256 46 q 83 4 139 46 l 74 10 l 53 57 q 197 283 197 153 l 197 350 q 179 393 196 382 q 110 407 163 404 l 104 415 l 114 463 l 197 478 l 197 501 q 272 740 197 650 q 468 831 346 831 q 611 810 565 831 l 618 794 l 586 707 l 560 703 q 417 749 475 749 q 290 576 296 749 l 286 468 l 510 472 l 514 468 l 500 394 q 283 399 390 399 l 281 289 q 192 108 274 176 l 268 124 q 392 108 310 124 q 507 93 474 93 q 611 197 601 93 l 636 194 z "},"¤":{"ha":617,"x_min":42,"x_max":575,"o":"m 136 385 q 101 499 101 435 q 139 617 101 564 l 42 713 l 44 729 l 99 765 q 192 669 143 718 q 304 703 243 703 q 417 669 365 703 l 511 774 l 529 769 l 567 714 l 469 618 q 508 503 508 567 q 476 390 508 440 l 575 299 l 571 283 l 515 242 l 424 333 q 305 296 371 296 q 186 333 239 296 l 93 240 l 78 244 l 46 299 q 136 385 90 340 m 208 596 q 188 576 208 596 q 168 499 168 556 q 208 402 168 442 q 304 363 247 363 q 401 402 361 363 q 442 499 442 442 q 401 596 442 556 q 304 636 361 636 q 208 596 247 636 z "},"¥":{"ha":763,"x_min":43,"x_max":729,"o":"m 269 388 l 86 386 l 79 396 l 86 436 l 242 436 q 206 504 229 460 q 174 563 183 549 q 146 600 165 578 q 103 630 126 622 q 46 639 81 638 l 43 651 l 53 701 q 175 697 133 697 q 354 707 231 697 l 361 693 l 357 646 q 285 633 301 640 q 269 612 269 626 q 286 563 269 597 l 285 563 l 396 344 l 525 565 q 543 617 543 596 q 469 644 543 638 l 468 654 l 475 706 q 611 697 561 697 l 722 701 l 729 692 l 721 640 q 628 594 656 631 q 528 439 604 564 l 688 442 l 696 429 l 692 388 l 496 388 l 447 308 q 433 254 436 285 l 688 260 l 696 247 l 692 206 l 432 206 l 431 125 q 440 72 431 86 q 475 58 449 58 l 539 61 l 542 50 l 529 -3 q 390 0 429 0 q 238 -14 326 0 l 244 46 q 323 81 310 57 q 336 188 336 104 q 336 206 336 199 l 86 204 l 79 214 l 86 254 l 332 254 q 303 328 319 299 l 269 388 z "},"¦":{"ha":517,"x_min":211,"x_max":313,"o":"m 211 231 l 300 247 l 304 243 l 306 -358 l 224 -374 l 211 -365 l 211 231 m 213 514 l 214 1106 l 297 1121 l 313 1113 q 304 522 306 767 l 218 510 l 213 514 z "},"§":{"ha":711,"x_min":49,"x_max":663,"o":"m 179 271 q 152 291 179 271 q 87 367 125 311 q 49 485 49 422 q 92 608 49 547 q 210 713 135 668 q 274 846 215 790 q 414 901 333 901 q 510 881 468 901 q 551 834 551 860 q 542 772 551 808 q 525 725 533 735 l 506 725 q 446 803 486 772 q 368 833 406 833 q 308 809 331 833 q 286 742 286 785 q 325 656 286 700 q 419 574 364 611 q 530 496 475 536 q 624 402 585 456 q 663 284 663 349 q 617 152 663 219 q 500 49 571 85 q 428 -83 497 -19 q 280 -146 360 -146 q 153 -114 200 -146 q 107 -35 107 -82 q 114 34 107 -4 q 128 83 121 72 l 149 83 q 207 -35 163 10 q 304 -81 251 -81 q 388 -51 357 -81 q 419 22 419 -22 q 381 110 419 67 q 288 192 343 154 q 179 271 233 231 m 126 532 q 178 424 126 479 q 293 325 229 368 q 418 221 357 282 q 494 100 479 160 q 582 240 582 156 q 464 403 582 314 q 361 481 414 442 q 214 664 233 578 q 126 532 126 611 z "},"¨":{"ha":553,"x_min":97,"x_max":454,"o":"m 454 853 q 454 840 454 853 q 434 806 454 826 q 386 786 414 786 q 343 804 358 786 q 328 849 328 822 q 348 895 328 875 q 396 915 368 915 q 439 898 424 915 q 454 853 454 881 m 224 853 q 224 840 224 853 q 203 806 224 826 q 156 786 183 786 q 113 804 128 786 q 97 849 97 822 q 117 895 97 875 q 165 915 138 915 q 208 898 193 915 q 224 853 224 881 z "},"©":{"ha":963,"x_min":58,"x_max":904,"o":"m 621 208 q 464 182 558 182 q 316 243 369 182 q 263 404 263 304 q 328 574 263 504 q 503 643 394 643 q 636 626 558 643 l 639 621 q 621 496 625 567 l 575 493 q 576 526 576 511 q 488 588 576 588 q 390 545 425 588 q 354 418 354 503 q 388 283 354 333 q 490 232 422 232 q 563 257 538 232 q 600 336 589 282 l 644 339 q 626 218 629 271 l 621 208 m 182 108 q 120 170 182 108 q 58 407 58 232 q 182 706 58 582 q 481 831 306 831 q 781 706 657 831 q 904 407 904 582 q 781 108 904 232 q 481 -17 657 -17 q 182 108 306 -17 m 223 667 q 170 614 223 667 q 117 407 117 560 q 223 147 117 254 q 481 39 329 39 q 739 147 632 39 q 846 407 846 254 q 739 667 846 560 q 481 775 632 775 q 223 667 329 775 z "},"ª":{"ha":446,"x_min":42,"x_max":431,"o":"m 369 556 q 418 574 394 556 l 431 557 q 349 476 392 490 q 264 546 271 476 l 258 547 q 160 481 189 481 q 76 515 110 481 q 42 603 42 549 q 92 672 42 658 l 261 714 l 263 742 q 242 804 263 782 q 192 826 222 826 q 94 794 136 826 l 81 785 l 74 788 l 61 833 q 215 899 175 899 q 318 867 283 899 q 353 782 353 835 l 336 593 q 369 556 336 556 m 154 642 q 131 610 131 635 q 147 570 131 586 q 190 554 163 554 q 257 586 218 554 l 260 672 l 154 642 z "},"«":{"ha":593,"x_min":28,"x_max":529,"o":"m 497 556 l 528 535 l 529 521 l 381 314 l 529 99 l 528 85 l 497 64 q 258 294 403 161 l 258 315 q 497 556 392 442 m 267 556 l 297 535 l 299 521 l 150 314 l 299 99 l 297 85 l 267 64 q 28 294 172 161 l 28 315 q 267 556 161 442 z "},"¬":{"ha":703,"x_min":25,"x_max":636,"o":"m 628 413 l 636 399 q 625 246 626 311 l 626 57 l 558 42 l 546 50 q 547 328 547 206 l 33 325 l 25 338 l 40 406 q 372 404 249 404 l 628 413 z "},"®":{"ha":650,"x_min":42,"x_max":608,"o":"m 124 503 q 83 545 124 503 q 42 704 42 586 q 124 905 42 822 q 325 988 207 988 q 526 905 443 988 q 608 704 608 822 q 526 503 608 586 q 325 421 443 421 q 124 503 207 421 m 159 870 q 125 836 159 870 q 90 704 90 801 q 159 538 90 607 q 325 469 228 469 q 491 538 422 469 q 560 704 560 607 q 491 870 560 801 q 325 939 422 939 q 159 870 228 939 m 232 653 l 232 807 q 215 832 232 832 l 200 832 l 197 838 l 201 861 q 261 860 243 860 l 276 860 l 319 863 q 402 842 372 863 q 432 786 432 822 q 365 699 432 729 l 406 639 q 463 594 435 594 l 467 589 q 456 569 467 572 q 415 565 444 565 q 361 610 385 565 l 321 686 l 286 686 q 285 640 285 667 q 290 608 285 614 q 318 601 294 601 l 321 596 l 318 572 q 274 574 293 574 l 257 574 l 194 571 l 197 600 q 226 611 221 601 q 232 653 232 621 m 288 722 l 328 718 q 371 776 371 735 q 299 829 371 829 q 290 818 290 829 q 288 722 288 754 z "},"¯":{"ha":553,"x_min":69,"x_max":485,"o":"m 476 907 l 485 893 l 475 828 l 78 825 l 69 838 l 83 900 q 297 899 215 899 l 476 907 z "},"°":{"ha":419,"x_min":35,"x_max":385,"o":"m 85 602 q 60 627 85 602 q 35 726 35 653 q 85 851 35 800 q 210 901 136 901 q 334 851 283 901 q 385 726 385 800 q 334 602 385 653 q 210 551 283 551 q 85 602 136 551 m 127 809 q 110 792 127 809 q 93 726 93 775 q 127 644 93 678 q 210 610 161 610 q 292 644 258 610 q 326 726 326 678 q 292 809 326 775 q 210 843 258 843 q 127 809 161 843 z "},"±":{"ha":703,"x_min":25,"x_max":678,"o":"m 667 346 l 386 344 l 388 89 l 319 74 l 307 82 q 308 344 308 225 l 33 343 l 25 356 l 40 424 q 308 422 188 422 l 310 688 l 381 699 l 394 690 q 386 422 386 533 l 669 431 l 678 417 l 667 346 m 667 -101 l 33 -104 l 25 -92 l 40 -24 q 360 -25 249 -25 q 570 -22 471 -25 q 669 -17 669 -18 l 678 -31 l 667 -101 z "},"²":{"ha":457,"x_min":33,"x_max":428,"o":"m 261 865 q 188 929 261 929 q 63 843 114 929 l 53 843 l 39 900 q 117 979 67 947 q 225 1011 167 1011 q 324 978 283 1011 q 365 893 365 946 q 321 767 365 840 q 165 565 276 694 l 169 558 l 283 558 q 346 574 328 558 q 375 638 364 589 l 428 643 q 401 489 408 557 l 389 481 q 100 488 181 488 l 42 478 l 33 513 l 129 619 q 261 865 261 782 z "},"³":{"ha":407,"x_min":43,"x_max":353,"o":"m 51 565 q 135 554 89 554 q 220 580 182 554 q 258 646 258 606 q 114 726 258 726 l 107 733 l 101 778 l 160 790 q 233 882 233 826 q 217 924 233 908 q 172 939 200 939 q 72 900 121 939 l 63 900 l 49 951 q 116 989 68 967 q 212 1011 164 1011 q 294 982 260 1011 q 329 911 329 953 q 232 785 329 831 l 232 778 q 353 656 353 744 q 274 534 353 592 q 108 476 196 476 q 59 494 74 476 q 43 556 44 513 l 51 565 z "},"´":{"ha":553,"x_min":179,"x_max":454,"o":"m 454 933 l 453 918 q 219 724 336 829 l 207 726 l 179 753 q 388 993 281 863 l 401 990 l 454 933 z "},"µ":{"ha":722,"x_min":74,"x_max":719,"o":"m 176 15 q 171 -137 171 -118 q 182 -306 171 -194 l 175 -315 l 83 -336 l 74 -319 q 94 101 89 -122 l 103 456 q 93 608 103 531 l 100 618 l 221 644 l 229 628 q 205 469 217 593 q 193 213 193 346 q 310 79 193 79 q 382 99 343 79 q 465 157 421 118 l 465 481 l 456 610 l 463 619 l 582 644 l 590 628 q 569 455 578 596 q 560 146 560 314 q 617 82 560 82 q 700 117 654 82 l 719 94 q 654 15 689 47 q 599 -17 619 -17 q 475 90 482 -17 l 467 93 q 288 -17 353 -3 q 183 19 229 -17 l 176 15 z "},"¶":{"ha":779,"x_min":58,"x_max":704,"o":"m 351 890 l 531 885 l 704 889 l 696 831 l 693 825 q 654 825 682 825 q 606 813 626 825 q 582 763 585 801 q 567 214 567 663 q 545 7 567 71 q 496 -85 524 -57 q 313 -146 435 -146 q 181 -112 235 -146 q 126 -16 126 -79 q 179 108 126 47 l 200 108 q 236 -32 200 17 q 333 -81 272 -81 q 446 -23 418 -81 q 474 186 474 35 l 474 803 q 467 819 472 817 q 436 822 463 822 q 334 767 368 822 q 300 615 300 711 q 322 452 300 519 q 396 315 344 385 l 396 294 q 154 388 250 307 q 58 618 58 469 q 139 812 58 733 q 351 890 219 890 z "},"·":{"ha":331,"x_min":83,"x_max":249,"o":"m 249 318 q 249 301 249 318 q 224 258 249 283 q 162 233 200 233 q 103 256 124 233 q 83 314 83 279 q 107 374 83 349 q 169 399 131 399 q 228 376 207 399 q 249 318 249 353 z "},"¸":{"ha":553,"x_min":138,"x_max":399,"o":"m 399 -193 q 345 -285 399 -246 q 244 -324 292 -324 q 167 -310 197 -324 q 138 -274 138 -296 q 172 -196 138 -251 l 185 -196 q 207 -254 186 -233 q 258 -275 228 -275 q 308 -260 289 -275 q 328 -222 328 -246 q 210 -118 328 -186 l 256 32 l 315 32 l 281 -69 q 305 -86 286 -74 q 333 -105 324 -99 q 356 -124 342 -111 q 378 -146 371 -136 q 399 -193 399 -171 z "},"¹":{"ha":346,"x_min":38,"x_max":307,"o":"m 243 1010 l 251 1011 l 253 1011 l 260 990 q 226 919 232 965 q 218 596 218 764 q 227 549 218 563 q 260 536 236 536 l 304 539 l 307 535 l 297 485 q 175 488 219 488 l 49 478 l 54 526 q 115 544 97 529 q 133 597 133 560 l 133 888 q 123 927 133 918 q 88 936 113 936 l 42 932 l 38 936 l 42 981 q 137 993 115 990 q 171 998 158 996 q 193 1001 183 1000 q 211 1004 203 1003 q 225 1006 219 1006 q 235 1008 231 1007 q 243 1010 240 1010 z "},"º":{"ha":469,"x_min":39,"x_max":431,"o":"m 431 697 q 431 650 431 697 q 372 540 431 603 q 226 476 313 476 q 89 531 139 476 q 39 679 39 586 q 99 835 39 772 q 245 899 158 899 q 381 844 332 899 q 431 697 431 790 m 136 704 q 165 578 136 624 q 239 533 193 533 q 332 664 332 533 q 303 790 332 744 q 229 835 275 835 q 136 704 136 835 z "},"»":{"ha":593,"x_min":64,"x_max":565,"o":"m 326 64 l 296 85 l 294 99 l 443 306 l 294 521 l 296 535 l 326 556 q 565 325 421 458 l 565 304 q 326 64 432 178 m 96 64 l 65 85 l 64 99 l 213 306 l 64 521 l 65 535 l 96 556 q 335 325 190 458 l 335 304 q 96 64 201 178 z "},"¼":{"ha":951,"x_min":38,"x_max":917,"o":"m 243 893 l 251 894 l 253 894 l 260 874 q 226 803 232 849 q 218 479 218 647 q 227 433 218 446 q 260 419 236 419 l 304 422 l 307 418 l 297 368 q 175 371 219 371 l 49 361 l 54 410 q 115 428 97 413 q 133 481 133 443 l 133 771 q 123 810 133 801 q 88 819 113 819 l 42 815 l 38 819 l 42 864 q 137 876 115 874 q 171 881 158 879 q 193 885 183 883 q 211 888 203 886 q 225 890 219 889 q 235 892 231 890 q 243 893 240 893 m 810 915 l 817 896 q 453 340 575 536 l 154 -132 l 101 -106 l 94 -89 q 756 942 279 192 l 810 915 m 833 211 l 910 211 l 917 201 l 908 140 l 833 143 l 839 8 l 833 0 l 749 -10 l 742 -1 q 747 144 747 79 l 533 149 l 536 196 l 775 522 l 779 524 l 833 515 l 833 211 m 747 211 l 747 385 l 739 385 l 614 211 l 747 211 z "},"½":{"ha":990,"x_min":38,"x_max":961,"o":"m 243 893 l 251 894 l 253 894 l 260 874 q 226 803 232 849 q 218 479 218 647 q 227 433 218 446 q 260 419 236 419 l 304 422 l 307 418 l 297 368 q 175 371 219 371 l 49 361 l 54 410 q 115 428 97 413 q 133 481 133 443 l 133 771 q 123 810 133 801 q 88 819 113 819 l 42 815 l 38 819 l 42 864 q 137 876 115 874 q 171 881 158 879 q 193 885 183 883 q 211 888 203 886 q 225 890 219 889 q 235 892 231 890 q 243 893 240 893 m 810 915 l 817 896 q 453 340 575 536 l 154 -132 l 101 -106 l 94 -89 q 756 942 279 192 l 810 915 m 794 378 q 721 442 794 442 q 596 356 647 442 l 586 356 l 572 413 q 650 492 600 460 q 758 524 700 524 q 858 491 817 524 q 899 406 899 458 q 854 280 899 353 q 699 78 810 207 l 703 71 l 817 71 q 879 86 861 71 q 908 150 897 101 l 961 156 q 935 1 942 69 l 922 -7 q 633 0 714 0 l 575 -10 l 567 25 l 663 132 q 794 378 794 294 z "},"¾":{"ha":957,"x_min":43,"x_max":922,"o":"m 51 449 q 135 438 89 438 q 220 463 182 438 q 258 529 258 489 q 114 610 258 610 l 107 617 l 101 661 l 160 674 q 233 765 233 710 q 217 807 233 792 q 172 822 200 822 q 72 783 121 822 l 63 783 l 49 835 q 116 872 68 850 q 212 894 164 894 q 294 865 260 894 q 329 794 329 836 q 232 668 329 714 l 232 661 q 353 539 353 628 q 274 417 353 475 q 108 360 196 360 q 59 378 74 360 q 43 439 44 396 l 51 449 m 815 915 l 822 896 q 458 340 581 536 l 160 -132 l 107 -106 l 100 -89 q 761 942 285 192 l 815 915 m 839 211 l 915 211 l 922 201 l 914 140 l 839 143 l 844 8 l 839 0 l 754 -10 l 747 -1 q 753 144 753 79 l 539 149 l 542 196 l 781 522 l 785 524 l 839 515 l 839 211 m 753 211 l 753 385 l 744 385 l 619 211 l 753 211 z "},"¿":{"ha":500,"x_min":43,"x_max":419,"o":"m 135 -65 q 417 -242 135 -225 l 419 -257 l 374 -331 l 354 -336 q 134 -266 225 -332 q 43 -107 43 -200 q 97 39 43 -18 q 146 85 125 68 q 211 131 167 101 q 274 172 256 160 l 278 185 l 249 317 l 253 328 l 338 351 l 350 346 l 383 179 l 379 160 l 214 54 q 135 -65 135 0 m 214 560 q 214 577 214 560 q 238 619 214 594 q 301 644 263 644 q 359 622 339 644 q 379 564 379 599 q 356 504 379 529 q 294 479 332 479 q 235 502 256 479 q 214 560 214 525 z "},"À":{"ha":803,"x_min":-25,"x_max":821,"o":"m 457 -14 l 453 -4 l 458 50 q 556 67 529 56 q 582 104 582 78 q 569 169 582 131 l 524 321 q 401 322 490 322 q 228 311 313 322 l 176 167 q 164 113 164 129 q 247 56 164 56 l 326 56 l 329 50 l 321 -10 q 128 0 219 0 l -25 -4 l -14 61 q 49 88 25 65 q 94 168 72 111 l 365 878 l 453 901 l 464 901 q 685 157 581 469 q 729 85 701 106 q 818 58 757 64 l 821 53 l 811 -4 q 640 0 711 0 q 457 -14 568 0 m 375 379 q 504 386 425 379 l 394 750 l 385 750 l 253 379 l 375 379 m 203 1079 l 197 1093 l 219 1160 l 232 1168 q 508 1017 378 1085 l 500 983 l 489 976 l 203 1079 z "},"Á":{"ha":803,"x_min":-25,"x_max":821,"o":"m 457 -14 l 453 -4 l 458 50 q 556 67 529 56 q 582 104 582 78 q 569 169 582 131 l 524 321 q 401 322 490 322 q 228 311 313 322 l 176 167 q 164 113 164 129 q 247 56 164 56 l 326 56 l 329 50 l 321 -10 q 128 0 219 0 l -25 -4 l -14 61 q 49 88 25 65 q 94 168 72 111 l 365 878 l 453 901 l 464 901 q 685 157 581 469 q 729 85 701 106 q 818 58 757 64 l 821 53 l 811 -4 q 640 0 711 0 q 457 -14 568 0 m 375 379 q 504 386 425 379 l 394 750 l 385 750 l 253 379 l 375 379 m 632 1093 l 626 1079 q 340 976 486 1032 l 329 983 l 321 1017 l 597 1168 l 610 1160 l 632 1093 z "},"Â":{"ha":803,"x_min":-25,"x_max":821,"o":"m 457 -14 l 453 -4 l 458 50 q 556 67 529 56 q 582 104 582 78 q 569 169 582 131 l 524 321 q 401 322 490 322 q 228 311 313 322 l 176 167 q 164 113 164 129 q 247 56 164 56 l 326 56 l 329 50 l 321 -10 q 128 0 219 0 l -25 -4 l -14 61 q 49 88 25 65 q 94 168 72 111 l 365 878 l 453 901 l 464 901 q 685 157 581 469 q 729 85 701 106 q 818 58 757 64 l 821 53 l 811 -4 q 640 0 711 0 q 457 -14 568 0 m 375 379 q 504 386 425 379 l 394 750 l 385 750 l 253 379 l 375 379 m 228 990 l 208 1021 l 400 1175 l 419 1175 q 611 1021 521 1089 l 592 990 l 579 989 q 410 1079 486 1043 q 240 989 338 1046 l 228 990 z "},"Ã":{"ha":803,"x_min":-25,"x_max":821,"o":"m 457 -14 l 453 -4 l 458 50 q 556 67 529 56 q 582 104 582 78 q 569 169 582 131 l 524 321 q 401 322 490 322 q 228 311 313 322 l 176 167 q 164 113 164 129 q 247 56 164 56 l 326 56 l 329 50 l 321 -10 q 128 0 219 0 l -25 -4 l -14 61 q 49 88 25 65 q 94 168 72 111 l 365 878 l 453 901 l 464 901 q 685 157 581 469 q 729 85 701 106 q 818 58 757 64 l 821 53 l 811 -4 q 640 0 711 0 q 457 -14 568 0 m 375 379 q 504 386 425 379 l 394 750 l 385 750 l 253 379 l 375 379 m 311 1122 q 415 1099 335 1122 q 511 1076 496 1076 q 586 1124 542 1076 l 601 1139 l 610 1139 l 640 1110 l 640 1103 l 535 993 l 513 988 q 408 1010 489 988 q 311 1033 328 1033 q 236 986 279 1033 l 222 971 l 214 971 l 183 1000 l 183 1007 l 289 1117 l 311 1122 z "},"Ä":{"ha":803,"x_min":-25,"x_max":821,"o":"m 457 -14 l 453 -4 l 458 50 q 556 67 529 56 q 582 104 582 78 q 569 169 582 131 l 524 321 q 401 322 490 322 q 228 311 313 322 l 176 167 q 164 113 164 129 q 247 56 164 56 l 326 56 l 329 50 l 321 -10 q 128 0 219 0 l -25 -4 l -14 61 q 49 88 25 65 q 94 168 72 111 l 365 878 l 453 901 l 464 901 q 685 157 581 469 q 729 85 701 106 q 818 58 757 64 l 821 53 l 811 -4 q 640 0 711 0 q 457 -14 568 0 m 375 379 q 504 386 425 379 l 394 750 l 385 750 l 253 379 l 375 379 m 588 1074 q 588 1061 588 1074 q 567 1027 588 1047 q 519 1007 547 1007 q 476 1025 492 1007 q 461 1069 461 1043 q 481 1116 461 1096 q 529 1136 501 1136 q 572 1119 557 1136 q 588 1074 588 1101 m 357 1074 q 357 1061 357 1074 q 337 1027 357 1047 q 289 1007 317 1007 q 246 1025 261 1007 q 231 1069 231 1043 q 251 1116 231 1096 q 299 1136 271 1136 q 342 1119 326 1136 q 357 1074 357 1101 z "},"Å":{"ha":803,"x_min":-25,"x_max":821,"o":"m 457 -14 l 453 -4 l 458 50 q 556 67 529 56 q 582 104 582 78 q 569 169 582 131 l 524 321 q 401 322 490 322 q 228 311 313 322 l 176 167 q 164 113 164 129 q 247 56 164 56 l 326 56 l 329 50 l 321 -10 q 128 0 219 0 l -25 -4 l -14 61 q 49 88 25 65 q 94 168 72 111 l 365 878 l 453 901 l 464 901 q 685 157 581 469 q 729 85 701 106 q 818 58 757 64 l 821 53 l 811 -4 q 640 0 711 0 q 457 -14 568 0 m 375 379 q 504 386 425 379 l 394 750 l 385 750 l 253 379 l 375 379 m 413 989 q 474 1043 474 989 q 455 1092 474 1074 q 403 1110 436 1110 q 342 1056 342 1110 q 364 1006 342 1022 q 413 989 386 989 m 521 1056 q 521 1032 521 1056 q 489 972 521 1008 q 405 936 457 936 q 325 967 353 936 q 297 1048 297 997 q 329 1131 297 1099 q 414 1164 361 1164 q 494 1133 467 1164 q 521 1056 521 1103 z "},"Æ":{"ha":1125,"x_min":-14,"x_max":1089,"o":"m 418 50 q 526 70 500 57 q 553 113 553 83 q 518 383 553 146 l 381 372 l 254 358 l 156 167 q 133 103 133 124 q 210 56 133 56 l 289 56 l 282 -10 q 90 0 179 0 l -4 -6 l -14 43 q 74 168 32 92 l 417 803 q 382 825 411 825 l 335 822 l 332 828 l 342 889 q 563 885 496 885 q 976 901 865 885 l 981 893 q 949 663 957 790 l 882 657 q 885 717 885 697 q 850 800 885 785 q 708 815 815 815 q 586 808 601 815 q 569 772 571 801 l 613 456 l 776 471 l 904 489 l 910 482 l 892 408 l 772 404 l 621 392 l 660 157 q 694 83 668 104 q 776 63 719 63 q 968 90 928 63 q 1024 232 1008 118 l 1085 239 l 1089 232 q 1051 -1 1064 117 l 1044 -10 q 671 0 756 0 l 624 0 q 418 -14 529 0 l 415 -4 l 418 50 m 292 431 l 510 446 l 468 749 l 456 749 l 292 431 z "},"Ç":{"ha":874,"x_min":56,"x_max":801,"o":"m 444 -15 q 160 108 265 -7 q 56 423 56 222 q 193 763 56 624 q 540 901 331 901 q 782 868 643 901 l 788 860 q 753 628 761 756 l 686 622 q 690 690 690 660 q 486 819 690 819 q 263 722 346 819 q 181 449 181 624 q 267 164 181 275 q 499 53 354 53 q 651 106 593 53 q 735 272 708 160 l 801 278 q 764 51 774 151 l 756 39 q 503 -15 650 -10 l 485 -69 q 509 -86 490 -74 q 537 -105 528 -99 q 560 -124 546 -111 q 583 -146 575 -136 q 603 -193 603 -171 q 549 -285 603 -246 q 449 -324 496 -324 q 372 -310 401 -324 q 342 -274 342 -296 q 376 -196 342 -251 l 389 -196 q 410 -254 390 -233 q 462 -275 431 -275 q 513 -260 493 -275 q 532 -222 532 -246 q 414 -118 532 -186 l 444 -15 z "},"È":{"ha":821,"x_min":81,"x_max":739,"o":"m 304 492 l 447 490 l 617 506 l 622 499 l 603 417 q 420 421 483 421 q 301 411 357 421 q 296 150 296 211 q 313 76 296 89 q 426 63 331 63 q 571 74 522 63 q 641 119 619 86 q 674 232 663 151 l 735 239 l 739 232 q 701 -1 714 117 l 694 -10 q 317 0 406 0 q 81 -14 181 0 l 89 50 q 174 83 151 58 q 197 167 197 107 l 199 750 q 188 810 199 794 q 147 825 178 825 l 100 822 l 97 828 l 107 889 q 406 885 217 885 q 717 901 594 885 l 721 893 q 689 663 697 790 l 622 657 q 625 717 625 697 q 592 800 625 785 q 452 815 560 815 q 331 808 344 815 q 315 761 317 800 l 304 492 m 224 1079 l 218 1093 l 240 1160 l 253 1168 q 529 1017 399 1085 l 521 983 l 510 976 l 224 1079 z "},"É":{"ha":821,"x_min":81,"x_max":739,"o":"m 304 492 l 447 490 l 617 506 l 622 499 l 603 417 q 420 421 483 421 q 301 411 357 421 q 296 150 296 211 q 313 76 296 89 q 426 63 331 63 q 571 74 522 63 q 641 119 619 86 q 674 232 663 151 l 735 239 l 739 232 q 701 -1 714 117 l 694 -10 q 317 0 406 0 q 81 -14 181 0 l 89 50 q 174 83 151 58 q 197 167 197 107 l 199 750 q 188 810 199 794 q 147 825 178 825 l 100 822 l 97 828 l 107 889 q 406 885 217 885 q 717 901 594 885 l 721 893 q 689 663 697 790 l 622 657 q 625 717 625 697 q 592 800 625 785 q 452 815 560 815 q 331 808 344 815 q 315 761 317 800 l 304 492 m 653 1093 l 647 1079 q 361 976 507 1032 l 350 983 l 342 1017 l 618 1168 l 631 1160 l 653 1093 z "},"Ê":{"ha":821,"x_min":81,"x_max":739,"o":"m 304 492 l 447 490 l 617 506 l 622 499 l 603 417 q 420 421 483 421 q 301 411 357 421 q 296 150 296 211 q 313 76 296 89 q 426 63 331 63 q 571 74 522 63 q 641 119 619 86 q 674 232 663 151 l 735 239 l 739 232 q 701 -1 714 117 l 694 -10 q 317 0 406 0 q 81 -14 181 0 l 89 50 q 174 83 151 58 q 197 167 197 107 l 199 750 q 188 810 199 794 q 147 825 178 825 l 100 822 l 97 828 l 107 889 q 406 885 217 885 q 717 901 594 885 l 721 893 q 689 663 697 790 l 622 657 q 625 717 625 697 q 592 800 625 785 q 452 815 560 815 q 331 808 344 815 q 315 761 317 800 l 304 492 m 249 990 l 229 1021 l 421 1175 l 440 1175 q 632 1021 542 1089 l 613 990 l 600 989 q 431 1079 507 1043 q 261 989 358 1046 l 249 990 z "},"Ë":{"ha":821,"x_min":81,"x_max":739,"o":"m 304 492 l 447 490 l 617 506 l 622 499 l 603 417 q 420 421 483 421 q 301 411 357 421 q 296 150 296 211 q 313 76 296 89 q 426 63 331 63 q 571 74 522 63 q 641 119 619 86 q 674 232 663 151 l 735 239 l 739 232 q 701 -1 714 117 l 694 -10 q 317 0 406 0 q 81 -14 181 0 l 89 50 q 174 83 151 58 q 197 167 197 107 l 199 750 q 188 810 199 794 q 147 825 178 825 l 100 822 l 97 828 l 107 889 q 406 885 217 885 q 717 901 594 885 l 721 893 q 689 663 697 790 l 622 657 q 625 717 625 697 q 592 800 625 785 q 452 815 560 815 q 331 808 344 815 q 315 761 317 800 l 304 492 m 608 1074 q 608 1061 608 1074 q 588 1027 608 1047 q 540 1007 568 1007 q 497 1025 513 1007 q 482 1069 482 1043 q 502 1116 482 1096 q 550 1136 522 1136 q 593 1119 578 1136 q 608 1074 608 1101 m 378 1074 q 378 1061 378 1074 q 358 1027 378 1047 q 310 1007 338 1007 q 267 1025 282 1007 q 251 1069 251 1043 q 272 1116 251 1096 q 319 1136 292 1136 q 363 1119 347 1136 q 378 1074 378 1101 z "},"Ì":{"ha":501,"x_min":43,"x_max":433,"o":"m 296 156 q 308 80 296 99 q 357 61 321 61 l 431 65 l 433 60 l 421 -4 q 256 0 304 0 q 78 -17 175 0 l 86 47 q 174 84 151 60 q 197 167 197 108 l 199 750 q 188 810 199 794 q 147 825 178 825 l 89 822 l 86 828 l 96 889 q 247 885 204 885 q 421 897 306 885 l 415 835 q 338 812 357 828 q 315 756 318 796 q 296 156 296 353 m 49 1079 l 43 1093 l 65 1160 l 78 1168 q 354 1017 224 1085 l 346 983 l 335 976 l 49 1079 z "},"Í":{"ha":501,"x_min":78,"x_max":478,"o":"m 296 156 q 308 80 296 99 q 357 61 321 61 l 431 65 l 433 60 l 421 -4 q 256 0 304 0 q 78 -17 175 0 l 86 47 q 174 84 151 60 q 197 167 197 108 l 199 750 q 188 810 199 794 q 147 825 178 825 l 89 822 l 86 828 l 96 889 q 247 885 204 885 q 421 897 306 885 l 415 835 q 338 812 357 828 q 315 756 318 796 q 296 156 296 353 m 478 1093 l 472 1079 q 186 976 332 1032 l 175 983 l 167 1017 l 443 1168 l 456 1160 l 478 1093 z "},"Î":{"ha":501,"x_min":54,"x_max":457,"o":"m 296 156 q 308 80 296 99 q 357 61 321 61 l 431 65 l 433 60 l 421 -4 q 256 0 304 0 q 78 -17 175 0 l 86 47 q 174 84 151 60 q 197 167 197 108 l 199 750 q 188 810 199 794 q 147 825 178 825 l 89 822 l 86 828 l 96 889 q 247 885 204 885 q 421 897 306 885 l 415 835 q 338 812 357 828 q 315 756 318 796 q 296 156 296 353 m 74 990 l 54 1021 l 246 1175 l 265 1175 q 457 1021 367 1089 l 438 990 l 425 989 q 256 1079 332 1043 q 86 989 183 1046 l 74 990 z "},"Ï":{"ha":501,"x_min":76,"x_max":433,"o":"m 296 156 q 308 80 296 99 q 357 61 321 61 l 431 65 l 433 60 l 421 -4 q 256 0 304 0 q 78 -17 175 0 l 86 47 q 174 84 151 60 q 197 167 197 108 l 199 750 q 188 810 199 794 q 147 825 178 825 l 89 822 l 86 828 l 96 889 q 247 885 204 885 q 421 897 306 885 l 415 835 q 338 812 357 828 q 315 756 318 796 q 296 156 296 353 m 433 1074 q 433 1061 433 1074 q 413 1027 433 1047 q 365 1007 393 1007 q 322 1025 338 1007 q 307 1069 307 1043 q 327 1116 307 1096 q 375 1136 347 1136 q 418 1119 403 1136 q 433 1074 433 1101 m 203 1074 q 203 1061 203 1074 q 183 1027 203 1047 q 135 1007 163 1007 q 92 1025 107 1007 q 76 1069 76 1043 q 97 1116 76 1096 q 144 1136 117 1136 q 188 1119 172 1136 q 203 1074 203 1101 z "},"Ð":{"ha":990,"x_min":13,"x_max":931,"o":"m 450 -17 q 269 0 321 0 q 90 -17 188 0 l 99 47 q 189 90 171 61 q 207 218 207 118 l 207 422 l 22 422 l 13 432 l 22 476 l 207 476 l 208 750 q 198 810 208 794 q 157 825 188 825 l 110 822 l 107 828 l 117 889 q 263 885 210 885 l 474 890 q 802 774 674 890 q 931 475 931 657 q 792 126 931 268 q 450 -17 653 -17 m 482 54 q 718 158 632 54 q 804 443 804 261 q 694 724 804 625 q 378 822 583 822 q 339 816 349 822 q 328 792 329 810 l 315 476 l 551 476 l 558 467 l 550 422 l 314 422 l 307 182 q 342 80 307 106 q 482 54 378 54 z "},"Ñ":{"ha":999,"x_min":75,"x_max":953,"o":"m 772 201 l 772 764 q 726 824 772 824 l 674 822 l 671 828 l 683 890 q 806 885 768 885 q 953 896 867 885 l 946 832 q 875 805 897 825 q 851 744 853 785 l 832 -36 l 792 -56 q 275 710 540 335 l 268 710 l 261 117 q 271 74 261 86 q 304 61 281 61 l 375 63 l 378 57 l 365 -6 q 236 0 278 0 q 89 -11 169 0 l 96 53 q 182 140 181 63 l 200 747 q 174 808 200 790 q 79 833 149 826 l 75 840 l 86 892 q 206 885 167 885 l 299 890 q 765 201 504 571 l 772 201 m 417 1122 q 521 1099 440 1122 q 617 1076 601 1076 q 692 1124 647 1076 l 707 1139 l 715 1139 l 746 1110 l 746 1103 l 640 993 l 618 988 q 514 1010 594 988 q 417 1033 433 1033 q 342 986 385 1033 l 328 971 l 319 971 l 289 1000 l 289 1007 l 394 1117 l 417 1122 z "},"Ò":{"ha":961,"x_min":56,"x_max":906,"o":"m 175 449 q 175 364 175 449 q 261 167 175 279 q 481 54 347 54 q 699 155 615 54 q 782 424 782 256 q 694 706 782 593 q 471 818 606 818 q 256 718 336 818 q 175 449 175 618 m 440 -17 q 163 103 269 -17 q 56 420 56 222 q 188 760 56 618 q 503 901 319 901 q 796 782 686 901 q 906 465 906 663 q 772 125 906 267 q 440 -17 638 -17 m 268 1079 l 263 1093 l 285 1160 l 297 1168 q 574 1017 443 1085 l 565 983 l 554 976 l 268 1079 z "},"Ó":{"ha":961,"x_min":56,"x_max":906,"o":"m 175 449 q 175 364 175 449 q 261 167 175 279 q 481 54 347 54 q 699 155 615 54 q 782 424 782 256 q 694 706 782 593 q 471 818 606 818 q 256 718 336 818 q 175 449 175 618 m 440 -17 q 163 103 269 -17 q 56 420 56 222 q 188 760 56 618 q 503 901 319 901 q 796 782 686 901 q 906 465 906 663 q 772 125 906 267 q 440 -17 638 -17 m 697 1093 l 692 1079 q 406 976 551 1032 l 394 983 l 386 1017 l 663 1168 l 675 1160 l 697 1093 z "},"Ô":{"ha":961,"x_min":56,"x_max":906,"o":"m 175 449 q 175 364 175 449 q 261 167 175 279 q 481 54 347 54 q 699 155 615 54 q 782 424 782 256 q 694 706 782 593 q 471 818 606 818 q 256 718 336 818 q 175 449 175 618 m 440 -17 q 163 103 269 -17 q 56 420 56 222 q 188 760 56 618 q 503 901 319 901 q 796 782 686 901 q 906 465 906 663 q 772 125 906 267 q 440 -17 638 -17 m 293 990 l 274 1021 l 465 1175 l 485 1175 q 676 1021 586 1089 l 657 990 l 644 989 q 475 1079 551 1043 q 306 989 403 1046 l 293 990 z "},"Õ":{"ha":961,"x_min":56,"x_max":906,"o":"m 175 449 q 175 364 175 449 q 261 167 175 279 q 481 54 347 54 q 699 155 615 54 q 782 424 782 256 q 694 706 782 593 q 471 818 606 818 q 256 718 336 818 q 175 449 175 618 m 440 -17 q 163 103 269 -17 q 56 420 56 222 q 188 760 56 618 q 503 901 319 901 q 796 782 686 901 q 906 465 906 663 q 772 125 906 267 q 440 -17 638 -17 m 376 1122 q 481 1099 400 1122 q 578 1076 561 1076 q 653 1124 607 1076 l 667 1139 l 675 1139 l 706 1110 l 706 1103 l 600 993 l 578 988 q 474 1010 554 988 q 376 1033 393 1033 q 303 986 344 1033 l 288 971 l 279 971 l 249 1000 l 249 1007 l 354 1117 l 376 1122 z "},"Ö":{"ha":961,"x_min":56,"x_max":906,"o":"m 175 449 q 175 364 175 449 q 261 167 175 279 q 481 54 347 54 q 699 155 615 54 q 782 424 782 256 q 694 706 782 593 q 471 818 606 818 q 256 718 336 818 q 175 449 175 618 m 440 -17 q 163 103 269 -17 q 56 420 56 222 q 188 760 56 618 q 503 901 319 901 q 796 782 686 901 q 906 465 906 663 q 772 125 906 267 q 440 -17 638 -17 m 653 1074 q 653 1061 653 1074 q 633 1027 653 1047 q 585 1007 613 1007 q 542 1025 557 1007 q 526 1069 526 1043 q 547 1116 526 1096 q 594 1136 567 1136 q 638 1119 622 1136 q 653 1074 653 1101 m 422 1074 q 422 1061 422 1074 q 402 1027 422 1047 q 354 1007 382 1007 q 311 1025 326 1007 q 296 1069 296 1043 q 316 1116 296 1096 q 364 1136 336 1136 q 407 1119 392 1136 q 422 1074 422 1101 z "},"×":{"ha":703,"x_min":94,"x_max":607,"o":"m 544 624 l 560 619 l 603 561 l 406 363 l 607 175 l 603 158 l 544 117 l 351 308 l 157 111 l 142 115 l 104 174 q 296 363 210 276 l 94 563 l 97 578 l 157 614 q 351 418 265 504 l 544 624 z "},"Ø":{"ha":961,"x_min":56,"x_max":906,"o":"m 56 413 q 188 760 56 618 q 513 901 319 901 q 664 872 594 901 l 722 983 l 763 974 l 767 957 l 710 851 q 853 700 801 799 q 906 474 906 601 q 772 125 906 267 q 440 -17 638 -17 q 272 19 353 -17 l 189 -136 l 151 -128 l 149 -114 l 231 43 q 101 194 147 97 q 56 413 56 290 m 483 54 q 699 155 615 54 q 782 415 782 256 q 654 747 782 633 l 318 108 q 483 54 392 54 m 175 457 q 282 142 175 253 l 614 776 q 465 818 546 818 q 256 718 336 818 q 175 457 175 618 z "},"Ù":{"ha":946,"x_min":49,"x_max":900,"o":"m 256 347 q 315 136 256 210 q 488 63 375 63 q 661 123 601 63 q 721 297 721 183 l 713 750 q 701 812 710 799 q 661 825 692 825 l 601 822 l 599 828 l 608 889 q 753 885 713 885 q 900 897 810 885 l 894 835 q 816 813 833 826 q 799 756 799 799 l 799 289 q 708 63 799 143 q 463 -17 618 -17 q 229 63 308 -17 q 150 290 150 143 l 150 750 q 140 810 150 794 q 99 825 129 825 l 51 822 l 49 828 l 58 889 q 203 885 163 885 q 361 897 258 885 l 356 835 q 287 812 304 828 q 267 756 269 796 l 256 347 m 275 1079 l 269 1093 l 292 1160 l 304 1168 q 581 1017 450 1085 l 572 983 l 561 976 l 275 1079 z "},"Ú":{"ha":946,"x_min":49,"x_max":900,"o":"m 256 347 q 315 136 256 210 q 488 63 375 63 q 661 123 601 63 q 721 297 721 183 l 713 750 q 701 812 710 799 q 661 825 692 825 l 601 822 l 599 828 l 608 889 q 753 885 713 885 q 900 897 810 885 l 894 835 q 816 813 833 826 q 799 756 799 799 l 799 289 q 708 63 799 143 q 463 -17 618 -17 q 229 63 308 -17 q 150 290 150 143 l 150 750 q 140 810 150 794 q 99 825 129 825 l 51 822 l 49 828 l 58 889 q 203 885 163 885 q 361 897 258 885 l 356 835 q 287 812 304 828 q 267 756 269 796 l 256 347 m 704 1093 l 699 1079 q 413 976 558 1032 l 401 983 l 393 1017 l 669 1168 l 682 1160 l 704 1093 z "},"Û":{"ha":946,"x_min":49,"x_max":900,"o":"m 256 347 q 315 136 256 210 q 488 63 375 63 q 661 123 601 63 q 721 297 721 183 l 713 750 q 701 812 710 799 q 661 825 692 825 l 601 822 l 599 828 l 608 889 q 753 885 713 885 q 900 897 810 885 l 894 835 q 816 813 833 826 q 799 756 799 799 l 799 289 q 708 63 799 143 q 463 -17 618 -17 q 229 63 308 -17 q 150 290 150 143 l 150 750 q 140 810 150 794 q 99 825 129 825 l 51 822 l 49 828 l 58 889 q 203 885 163 885 q 361 897 258 885 l 356 835 q 287 812 304 828 q 267 756 269 796 l 256 347 m 300 990 l 281 1021 l 472 1175 l 492 1175 q 683 1021 593 1089 l 664 990 l 651 989 q 482 1079 558 1043 q 313 989 410 1046 l 300 990 z "},"Ü":{"ha":946,"x_min":49,"x_max":900,"o":"m 256 347 q 315 136 256 210 q 488 63 375 63 q 661 123 601 63 q 721 297 721 183 l 713 750 q 701 812 710 799 q 661 825 692 825 l 601 822 l 599 828 l 608 889 q 753 885 713 885 q 900 897 810 885 l 894 835 q 816 813 833 826 q 799 756 799 799 l 799 289 q 708 63 799 143 q 463 -17 618 -17 q 229 63 308 -17 q 150 290 150 143 l 150 750 q 140 810 150 794 q 99 825 129 825 l 51 822 l 49 828 l 58 889 q 203 885 163 885 q 361 897 258 885 l 356 835 q 287 812 304 828 q 267 756 269 796 l 256 347 m 660 1074 q 660 1061 660 1074 q 640 1027 660 1047 q 592 1007 619 1007 q 549 1025 564 1007 q 533 1069 533 1043 q 553 1116 533 1096 q 601 1136 574 1136 q 644 1119 629 1136 q 660 1074 660 1101 m 429 1074 q 429 1061 429 1074 q 409 1027 429 1047 q 361 1007 389 1007 q 318 1025 333 1007 q 303 1069 303 1043 q 323 1116 303 1096 q 371 1136 343 1136 q 414 1119 399 1136 q 429 1074 429 1101 z "},"Ý":{"ha":747,"x_min":-26,"x_max":775,"o":"m 332 838 q 248 822 269 832 q 226 790 226 811 q 265 680 226 769 q 342 510 304 590 q 382 429 381 429 l 389 429 l 547 724 q 569 793 569 764 q 482 835 569 829 l 479 840 l 488 894 q 642 885 590 885 l 769 890 l 775 881 l 767 829 q 676 790 703 817 q 599 674 649 764 q 594 665 596 668 l 446 404 q 418 283 422 361 q 415 163 415 226 q 428 81 415 100 q 476 61 440 61 l 544 65 l 547 60 l 535 -4 q 374 0 419 0 q 200 -17 297 0 l 208 47 q 299 89 281 61 q 317 197 317 117 l 317 258 q 276 415 317 335 l 151 669 q 85 788 104 767 q -24 829 53 822 l -26 835 l -18 889 q 135 885 71 885 l 332 896 l 336 886 l 332 838 m 618 1093 l 613 1079 q 326 976 472 1032 l 315 983 l 307 1017 l 583 1168 l 596 1160 l 618 1093 z "},"Þ":{"ha":754,"x_min":78,"x_max":724,"o":"m 315 756 q 313 713 315 756 q 313 699 313 713 l 426 699 q 647 640 569 699 q 724 474 724 582 q 625 285 724 365 q 394 206 526 206 l 296 206 l 296 156 q 308 80 296 99 q 357 61 321 61 l 431 65 l 433 60 l 421 -4 q 256 0 304 0 q 78 -17 175 0 l 86 47 q 174 84 151 60 q 197 167 197 108 l 199 750 q 188 810 199 794 q 147 825 178 825 l 89 822 l 86 828 l 96 889 q 247 885 204 885 q 421 897 306 885 l 415 835 q 338 812 357 828 q 315 756 318 796 m 607 446 q 544 586 607 542 q 346 631 482 631 q 308 619 311 631 q 297 290 300 425 q 439 267 360 269 q 607 446 607 288 z "},"ß":{"ha":1275,"x_min":74,"x_max":1193,"o":"m 265 -12 q 170 -3 217 -12 q 81 25 124 6 l 74 38 q 89 225 89 125 l 151 231 q 179 88 151 122 q 283 54 207 54 q 401 83 360 54 q 442 161 442 113 q 392 242 442 207 q 347 269 363 261 q 268 308 308 288 q 201 343 228 328 q 144 382 175 358 q 86 499 86 429 q 164 646 86 588 q 358 704 242 704 q 538 678 456 704 l 543 668 q 517 485 524 583 l 463 479 l 454 485 q 457 547 457 506 q 428 610 457 589 q 335 632 400 632 q 231 605 269 632 q 193 536 193 578 q 231 465 193 494 q 329 408 269 436 q 408 370 389 379 q 461 340 426 361 q 511 300 496 318 q 556 200 556 253 q 475 47 556 106 q 265 -12 394 -12 m 903 -12 q 808 -3 854 -12 q 718 25 761 6 l 711 38 q 726 225 726 125 l 789 231 q 817 88 789 122 q 921 54 844 54 q 1038 83 997 54 q 1079 161 1079 113 q 1029 242 1079 207 q 985 269 1000 261 q 906 308 947 288 q 839 343 865 328 q 783 382 813 358 q 724 499 724 429 q 801 646 724 588 q 996 704 879 704 q 1175 678 1093 704 l 1181 668 q 1154 485 1161 583 l 1100 479 l 1092 485 q 1094 547 1094 506 q 1066 610 1094 589 q 972 632 1038 632 q 869 605 907 632 q 831 536 831 578 q 869 465 831 494 q 967 408 907 436 q 1045 370 1026 379 q 1099 340 1064 361 q 1150 300 1133 318 q 1193 200 1193 253 q 1113 47 1193 106 q 903 -12 1032 -12 z "},"à":{"ha":703,"x_min":-3,"x_max":700,"o":"m 693 -3 q 567 0 608 0 q 392 -10 501 0 l 388 -3 l 392 47 q 470 60 450 51 q 490 89 490 68 q 481 135 490 110 l 447 242 q 356 243 419 243 q 213 235 292 243 q 164 93 164 106 q 229 51 164 51 l 289 51 l 293 46 l 285 -7 q 125 0 200 0 l -3 -3 l 6 54 q 54 76 36 58 q 90 135 72 93 l 308 686 l 407 704 l 417 703 q 593 129 514 353 q 628 73 607 89 q 697 53 650 57 l 700 47 l 693 -3 m 329 300 q 431 306 378 300 l 346 575 l 336 575 l 235 300 l 329 300 m 164 885 l 158 899 l 181 965 l 193 974 q 469 822 339 890 l 461 789 l 450 782 l 164 885 z "},"á":{"ha":703,"x_min":-3,"x_max":700,"o":"m 693 -3 q 567 0 608 0 q 392 -10 501 0 l 388 -3 l 392 47 q 470 60 450 51 q 490 89 490 68 q 481 135 490 110 l 447 242 q 356 243 419 243 q 213 235 292 243 q 164 93 164 106 q 229 51 164 51 l 289 51 l 293 46 l 285 -7 q 125 0 200 0 l -3 -3 l 6 54 q 54 76 36 58 q 90 135 72 93 l 308 686 l 407 704 l 417 703 q 593 129 514 353 q 628 73 607 89 q 697 53 650 57 l 700 47 l 693 -3 m 329 300 q 431 306 378 300 l 346 575 l 336 575 l 235 300 l 329 300 m 563 899 l 557 885 q 271 782 417 838 l 260 789 l 251 822 l 528 974 l 540 965 l 563 899 z "},"â":{"ha":703,"x_min":-3,"x_max":700,"o":"m 693 -3 q 567 0 608 0 q 392 -10 501 0 l 388 -3 l 392 47 q 470 60 450 51 q 490 89 490 68 q 481 135 490 110 l 447 242 q 356 243 419 243 q 213 235 292 243 q 164 93 164 106 q 229 51 164 51 l 289 51 l 293 46 l 285 -7 q 125 0 200 0 l -3 -3 l 6 54 q 54 76 36 58 q 90 135 72 93 l 308 686 l 407 704 l 417 703 q 593 129 514 353 q 628 73 607 89 q 697 53 650 57 l 700 47 l 693 -3 m 329 300 q 431 306 378 300 l 346 575 l 336 575 l 235 300 l 329 300 m 175 796 l 156 826 l 347 981 l 367 981 q 558 826 468 894 l 539 796 l 526 794 q 357 885 433 849 q 188 794 285 851 l 175 796 z "},"ã":{"ha":703,"x_min":-3,"x_max":700,"o":"m 693 -3 q 567 0 608 0 q 392 -10 501 0 l 388 -3 l 392 47 q 470 60 450 51 q 490 89 490 68 q 481 135 490 110 l 447 242 q 356 243 419 243 q 213 235 292 243 q 164 93 164 106 q 229 51 164 51 l 289 51 l 293 46 l 285 -7 q 125 0 200 0 l -3 -3 l 6 54 q 54 76 36 58 q 90 135 72 93 l 308 686 l 407 704 l 417 703 q 593 129 514 353 q 628 73 607 89 q 697 53 650 57 l 700 47 l 693 -3 m 329 300 q 431 306 378 300 l 346 575 l 336 575 l 235 300 l 329 300 m 258 928 q 363 905 282 928 q 458 882 443 882 q 533 929 489 882 l 549 944 l 557 944 l 588 915 l 588 908 l 482 799 l 460 793 q 356 816 436 793 q 258 839 275 839 q 183 792 226 839 l 169 776 l 161 776 l 131 806 l 131 813 l 236 922 l 258 928 z "},"ä":{"ha":703,"x_min":-3,"x_max":700,"o":"m 693 -3 q 567 0 608 0 q 392 -10 501 0 l 388 -3 l 392 47 q 470 60 450 51 q 490 89 490 68 q 481 135 490 110 l 447 242 q 356 243 419 243 q 213 235 292 243 q 164 93 164 106 q 229 51 164 51 l 289 51 l 293 46 l 285 -7 q 125 0 200 0 l -3 -3 l 6 54 q 54 76 36 58 q 90 135 72 93 l 308 686 l 407 704 l 417 703 q 593 129 514 353 q 628 73 607 89 q 697 53 650 57 l 700 47 l 693 -3 m 329 300 q 431 306 378 300 l 346 575 l 336 575 l 235 300 l 329 300 m 535 880 q 535 866 535 880 q 515 833 535 853 q 467 813 494 813 q 424 831 439 813 q 408 875 408 849 q 428 922 408 901 q 476 942 449 942 q 519 924 504 942 q 535 880 535 907 m 304 880 q 304 866 304 880 q 284 833 304 853 q 236 813 264 813 q 193 831 208 813 q 178 875 178 849 q 198 922 178 901 q 246 942 218 942 q 289 924 274 942 q 304 880 304 907 z "},"å":{"ha":703,"x_min":-3,"x_max":700,"o":"m 693 -3 q 567 0 608 0 q 392 -10 501 0 l 388 -3 l 392 47 q 470 60 450 51 q 490 89 490 68 q 481 135 490 110 l 447 242 q 356 243 419 243 q 213 235 292 243 q 164 93 164 106 q 229 51 164 51 l 289 51 l 293 46 l 285 -7 q 125 0 200 0 l -3 -3 l 6 54 q 54 76 36 58 q 90 135 72 93 l 308 686 l 407 704 l 417 703 q 593 129 514 353 q 628 73 607 89 q 697 53 650 57 l 700 47 l 693 -3 m 329 300 q 431 306 378 300 l 346 575 l 336 575 l 235 300 l 329 300 m 360 794 q 421 849 421 794 q 402 897 421 879 q 350 915 383 915 q 289 861 289 915 q 311 811 289 828 q 360 794 333 794 m 468 861 q 468 838 468 861 q 436 778 468 814 q 352 742 404 742 q 272 772 300 742 q 244 853 244 803 q 276 937 244 904 q 361 969 308 969 q 441 939 414 969 q 468 861 468 908 z "},"æ":{"ha":971,"x_min":6,"x_max":926,"o":"m 444 289 l 335 281 l 233 267 l 160 132 q 143 85 143 100 q 206 51 143 51 l 264 50 l 257 -7 q 92 0 163 0 l 13 -4 l 6 43 q 38 76 13 43 q 76 135 63 110 l 347 618 q 318 638 342 638 l 281 636 l 276 642 l 285 694 q 560 692 382 692 q 836 704 739 692 l 840 697 q 814 511 821 611 l 747 506 q 750 551 750 536 q 722 615 750 603 q 612 626 694 626 q 517 621 529 626 q 504 593 506 615 l 538 363 l 665 375 l 772 392 l 778 383 l 764 315 l 664 311 l 546 301 l 575 133 q 603 76 582 93 q 667 60 624 60 q 816 81 785 60 q 860 190 847 103 l 922 196 l 926 189 q 896 0 906 97 l 889 -7 q 575 0 636 0 l 535 0 q 364 -10 471 0 l 361 -3 l 364 47 q 449 63 429 53 q 469 97 469 74 q 444 289 469 119 m 267 338 l 436 350 l 404 574 l 393 574 l 267 338 z "},"ç":{"ha":744,"x_min":57,"x_max":672,"o":"m 375 -12 q 142 84 228 -6 q 57 333 57 174 q 169 598 57 492 q 456 704 281 704 q 658 678 544 704 l 664 669 q 635 481 642 586 l 565 476 q 568 531 568 504 q 413 628 568 628 q 242 556 304 628 q 179 353 179 485 q 245 139 179 221 q 422 57 311 57 q 603 221 565 57 l 672 226 q 643 42 650 124 l 635 31 q 433 -11 551 -4 l 414 -69 q 438 -86 419 -74 q 466 -105 457 -99 q 490 -124 475 -111 q 511 -146 504 -136 q 532 -193 532 -171 q 478 -285 532 -246 q 378 -324 425 -324 q 301 -310 331 -324 q 271 -274 271 -296 q 306 -196 271 -251 l 318 -196 q 340 -254 319 -233 q 392 -275 361 -275 q 442 -260 422 -275 q 461 -222 461 -246 q 343 -118 461 -186 l 375 -12 z "},"è":{"ha":706,"x_min":75,"x_max":629,"o":"m 275 389 l 389 388 l 526 399 l 532 392 l 515 319 q 370 322 419 322 q 272 315 321 322 q 268 145 268 210 q 281 70 268 81 q 369 60 294 60 q 481 69 443 60 q 536 103 519 78 q 563 190 553 128 l 624 196 l 629 189 q 599 0 608 97 l 590 -7 q 281 0 360 0 q 75 -11 164 0 l 82 47 q 151 72 133 53 q 169 139 169 92 l 171 579 q 163 626 171 614 q 129 638 154 638 l 92 636 l 89 642 l 97 694 q 348 692 196 692 q 611 704 500 692 l 615 697 q 589 511 596 611 l 522 506 q 525 551 525 536 q 499 615 525 603 q 390 626 472 626 q 296 620 307 626 q 283 586 285 614 l 275 389 m 176 885 l 171 899 l 193 965 l 206 974 q 482 822 351 890 l 474 789 l 463 782 l 176 885 z "},"é":{"ha":706,"x_min":75,"x_max":629,"o":"m 275 389 l 389 388 l 526 399 l 532 392 l 515 319 q 370 322 419 322 q 272 315 321 322 q 268 145 268 210 q 281 70 268 81 q 369 60 294 60 q 481 69 443 60 q 536 103 519 78 q 563 190 553 128 l 624 196 l 629 189 q 599 0 608 97 l 590 -7 q 281 0 360 0 q 75 -11 164 0 l 82 47 q 151 72 133 53 q 169 139 169 92 l 171 579 q 163 626 171 614 q 129 638 154 638 l 92 636 l 89 642 l 97 694 q 348 692 196 692 q 611 704 500 692 l 615 697 q 589 511 596 611 l 522 506 q 525 551 525 536 q 499 615 525 603 q 390 626 472 626 q 296 620 307 626 q 283 586 285 614 l 275 389 m 576 899 l 571 885 q 285 782 431 838 l 274 789 l 265 822 l 542 974 l 554 965 l 576 899 z "},"ê":{"ha":706,"x_min":75,"x_max":629,"o":"m 275 389 l 389 388 l 526 399 l 532 392 l 515 319 q 370 322 419 322 q 272 315 321 322 q 268 145 268 210 q 281 70 268 81 q 369 60 294 60 q 481 69 443 60 q 536 103 519 78 q 563 190 553 128 l 624 196 l 629 189 q 599 0 608 97 l 590 -7 q 281 0 360 0 q 75 -11 164 0 l 82 47 q 151 72 133 53 q 169 139 169 92 l 171 579 q 163 626 171 614 q 129 638 154 638 l 92 636 l 89 642 l 97 694 q 348 692 196 692 q 611 704 500 692 l 615 697 q 589 511 596 611 l 522 506 q 525 551 525 536 q 499 615 525 603 q 390 626 472 626 q 296 620 307 626 q 283 586 285 614 l 275 389 m 189 796 l 169 826 l 361 981 l 381 981 q 572 826 482 894 l 553 796 l 540 794 q 371 885 447 849 q 201 794 299 851 l 189 796 z "},"ë":{"ha":706,"x_min":75,"x_max":629,"o":"m 275 389 l 389 388 l 526 399 l 532 392 l 515 319 q 370 322 419 322 q 272 315 321 322 q 268 145 268 210 q 281 70 268 81 q 369 60 294 60 q 481 69 443 60 q 536 103 519 78 q 563 190 553 128 l 624 196 l 629 189 q 599 0 608 97 l 590 -7 q 281 0 360 0 q 75 -11 164 0 l 82 47 q 151 72 133 53 q 169 139 169 92 l 171 579 q 163 626 171 614 q 129 638 154 638 l 92 636 l 89 642 l 97 694 q 348 692 196 692 q 611 704 500 692 l 615 697 q 589 511 596 611 l 522 506 q 525 551 525 536 q 499 615 525 603 q 390 626 472 626 q 296 620 307 626 q 283 586 285 614 l 275 389 m 549 880 q 549 866 549 880 q 528 833 549 853 q 481 813 508 813 q 438 831 453 813 q 422 875 422 849 q 442 922 422 901 q 490 942 463 942 q 533 924 518 942 q 549 880 549 907 m 318 880 q 318 866 318 880 q 298 833 318 853 q 250 813 278 813 q 207 831 222 813 q 192 875 192 849 q 212 922 192 901 q 260 942 232 942 q 303 924 288 942 q 318 880 318 907 z "},"ì":{"ha":443,"x_min":26,"x_max":376,"o":"m 88 694 l 229 692 l 368 701 l 363 644 q 301 627 317 639 q 283 583 286 615 q 268 129 268 311 q 278 69 268 85 q 317 54 288 54 l 374 58 l 376 53 l 367 -3 q 225 0 265 0 q 74 -12 151 0 l 81 44 q 151 73 133 54 q 169 138 169 92 l 171 579 q 163 626 171 614 q 129 638 154 638 l 83 636 l 81 642 l 88 694 m 32 885 l 26 899 l 49 965 l 61 974 q 338 822 207 890 l 329 789 l 318 782 l 32 885 z "},"í":{"ha":443,"x_min":74,"x_max":431,"o":"m 88 694 l 229 692 l 368 701 l 363 644 q 301 627 317 639 q 283 583 286 615 q 268 129 268 311 q 278 69 268 85 q 317 54 288 54 l 374 58 l 376 53 l 367 -3 q 225 0 265 0 q 74 -12 151 0 l 81 44 q 151 73 133 54 q 169 138 169 92 l 171 579 q 163 626 171 614 q 129 638 154 638 l 83 636 l 81 642 l 88 694 m 431 899 l 425 885 q 139 782 285 838 l 128 789 l 119 822 l 396 974 l 408 965 l 431 899 z "},"î":{"ha":443,"x_min":24,"x_max":426,"o":"m 88 694 l 229 692 l 368 701 l 363 644 q 301 627 317 639 q 283 583 286 615 q 268 129 268 311 q 278 69 268 85 q 317 54 288 54 l 374 58 l 376 53 l 367 -3 q 225 0 265 0 q 74 -12 151 0 l 81 44 q 151 73 133 54 q 169 138 169 92 l 171 579 q 163 626 171 614 q 129 638 154 638 l 83 636 l 81 642 l 88 694 m 43 796 l 24 826 l 215 981 l 235 981 q 426 826 336 894 l 407 796 l 394 794 q 225 885 301 849 q 56 794 153 851 l 43 796 z "},"ï":{"ha":443,"x_min":46,"x_max":403,"o":"m 88 694 l 229 692 l 368 701 l 363 644 q 301 627 317 639 q 283 583 286 615 q 268 129 268 311 q 278 69 268 85 q 317 54 288 54 l 374 58 l 376 53 l 367 -3 q 225 0 265 0 q 74 -12 151 0 l 81 44 q 151 73 133 54 q 169 138 169 92 l 171 579 q 163 626 171 614 q 129 638 154 638 l 83 636 l 81 642 l 88 694 m 403 880 q 403 866 403 880 q 383 833 403 853 q 335 813 363 813 q 292 831 307 813 q 276 875 276 849 q 297 922 276 901 q 344 942 317 942 q 388 924 372 942 q 403 880 403 907 m 172 880 q 172 866 172 880 q 152 833 172 853 q 104 813 132 813 q 61 831 76 813 q 46 875 46 849 q 66 922 46 901 q 114 942 86 942 q 157 924 142 942 q 172 880 172 907 z "},"ð":{"ha":840,"x_min":25,"x_max":781,"o":"m 386 -12 q 238 0 281 0 q 86 -12 161 0 l 93 46 q 165 77 150 56 q 181 172 181 99 l 181 324 l 33 324 l 25 331 l 35 375 l 181 375 l 181 579 q 173 626 181 614 q 140 638 165 638 l 103 635 l 99 642 l 107 694 q 233 692 189 692 l 408 696 q 677 606 574 696 q 781 363 781 517 q 667 98 781 208 q 386 -12 554 -12 m 410 54 q 592 131 526 54 q 658 346 658 207 q 575 558 658 485 q 333 631 492 631 q 303 626 311 631 q 294 606 296 621 l 285 375 l 465 375 l 472 368 l 465 324 l 283 324 l 279 147 q 306 73 279 92 q 410 54 332 54 z "},"ñ":{"ha":853,"x_min":71,"x_max":804,"o":"m 603 636 l 561 636 l 558 642 l 568 696 q 686 692 644 692 l 804 700 l 799 643 q 722 574 724 633 l 706 -24 l 651 -39 q 250 521 438 272 l 243 521 l 239 100 q 247 64 239 74 q 275 54 256 54 l 331 56 l 335 51 l 324 -4 q 197 0 246 0 l 82 -8 l 89 49 q 158 117 157 57 l 174 575 q 153 623 174 610 q 76 643 133 636 l 71 650 l 81 697 q 186 692 149 692 l 271 696 q 635 189 439 449 l 642 189 l 640 590 q 603 636 640 636 m 340 928 q 444 905 364 928 q 542 882 525 882 q 617 929 571 882 l 631 944 l 639 944 l 669 915 l 669 908 l 564 799 l 542 793 q 438 816 518 793 q 340 839 357 839 q 267 792 308 839 l 251 776 l 243 776 l 213 806 l 213 813 l 318 922 l 340 928 z "},"ò":{"ha":813,"x_min":57,"x_max":756,"o":"m 175 352 q 175 287 175 352 q 240 138 175 222 q 408 54 304 54 q 574 127 511 54 q 636 330 636 200 q 569 543 636 460 q 399 626 503 626 q 235 554 296 626 q 175 352 175 482 m 756 363 q 756 284 756 363 q 647 97 756 206 q 386 -12 539 -12 q 145 80 233 -12 q 57 330 57 172 q 164 596 57 488 q 424 704 271 704 q 667 613 578 704 q 756 363 756 521 m 236 885 l 231 899 l 253 965 l 265 974 q 542 822 411 890 l 533 789 l 522 782 l 236 885 z "},"ó":{"ha":813,"x_min":57,"x_max":756,"o":"m 175 352 q 175 287 175 352 q 240 138 175 222 q 408 54 304 54 q 574 127 511 54 q 636 330 636 200 q 569 543 636 460 q 399 626 503 626 q 235 554 296 626 q 175 352 175 482 m 756 363 q 756 284 756 363 q 647 97 756 206 q 386 -12 539 -12 q 145 80 233 -12 q 57 330 57 172 q 164 596 57 488 q 424 704 271 704 q 667 613 578 704 q 756 363 756 521 m 608 899 l 603 885 q 317 782 463 838 l 306 789 l 297 822 l 574 974 l 586 965 l 608 899 z "},"ô":{"ha":813,"x_min":57,"x_max":756,"o":"m 175 352 q 175 287 175 352 q 240 138 175 222 q 408 54 304 54 q 574 127 511 54 q 636 330 636 200 q 569 543 636 460 q 399 626 503 626 q 235 554 296 626 q 175 352 175 482 m 756 363 q 756 284 756 363 q 647 97 756 206 q 386 -12 539 -12 q 145 80 233 -12 q 57 330 57 172 q 164 596 57 488 q 424 704 271 704 q 667 613 578 704 q 756 363 756 521 m 235 796 l 215 826 l 407 981 l 426 981 q 618 826 528 894 l 599 796 l 586 794 q 417 885 493 849 q 247 794 344 851 l 235 796 z "},"õ":{"ha":813,"x_min":57,"x_max":756,"o":"m 175 352 q 175 287 175 352 q 240 138 175 222 q 408 54 304 54 q 574 127 511 54 q 636 330 636 200 q 569 543 636 460 q 399 626 503 626 q 235 554 296 626 q 175 352 175 482 m 756 363 q 756 284 756 363 q 647 97 756 206 q 386 -12 539 -12 q 145 80 233 -12 q 57 330 57 172 q 164 596 57 488 q 424 704 271 704 q 667 613 578 704 q 756 363 756 521 m 317 928 q 421 905 340 928 q 517 882 501 882 q 592 929 547 882 l 607 944 l 615 944 l 646 915 l 646 908 l 540 799 l 518 793 q 414 816 494 793 q 317 839 333 839 q 242 792 285 839 l 228 776 l 219 776 l 189 806 l 189 813 l 294 922 l 317 928 z "},"ö":{"ha":813,"x_min":57,"x_max":756,"o":"m 175 352 q 175 287 175 352 q 240 138 175 222 q 408 54 304 54 q 574 127 511 54 q 636 330 636 200 q 569 543 636 460 q 399 626 503 626 q 235 554 296 626 q 175 352 175 482 m 756 363 q 756 284 756 363 q 647 97 756 206 q 386 -12 539 -12 q 145 80 233 -12 q 57 330 57 172 q 164 596 57 488 q 424 704 271 704 q 667 613 578 704 q 756 363 756 521 m 594 880 q 594 866 594 880 q 574 833 594 853 q 526 813 554 813 q 483 831 499 813 q 468 875 468 849 q 488 922 468 901 q 536 942 508 942 q 579 924 564 942 q 594 880 594 907 m 364 880 q 364 866 364 880 q 344 833 364 853 q 296 813 324 813 q 253 831 268 813 q 238 875 238 849 q 258 922 238 901 q 306 942 278 942 q 349 924 333 942 q 364 880 364 907 z "},"÷":{"ha":703,"x_min":25,"x_max":678,"o":"m 669 413 l 678 399 l 667 328 l 33 325 l 25 338 l 40 406 q 372 404 249 404 l 669 413 m 428 125 q 428 108 428 125 q 403 65 428 90 q 341 40 379 40 q 283 63 303 40 q 263 121 263 86 q 286 181 263 156 q 348 206 310 206 q 407 183 386 206 q 428 125 428 160 m 428 610 q 428 592 428 610 q 403 550 428 575 q 341 525 379 525 q 283 548 303 525 q 263 606 263 571 q 286 665 263 640 q 348 690 310 690 q 407 667 386 690 q 428 610 428 644 z "},"ø":{"ha":813,"x_min":57,"x_max":756,"o":"m 57 324 q 164 596 57 488 q 432 704 271 704 q 560 682 497 704 l 608 768 l 646 757 l 649 743 l 601 661 q 715 544 674 619 q 756 369 756 468 q 647 97 756 206 q 376 -12 539 -12 q 233 17 300 -12 l 163 -107 l 128 -97 l 125 -86 l 194 38 q 57 324 57 128 m 410 54 q 574 127 511 54 q 636 321 636 200 q 547 567 636 482 l 279 97 q 410 54 335 54 m 394 626 q 235 554 296 626 q 175 348 175 482 q 246 129 175 214 l 510 596 q 394 626 457 626 z "},"ù":{"ha":799,"x_min":50,"x_max":750,"o":"m 413 60 q 590 231 590 60 l 585 579 q 575 627 582 617 q 544 638 568 638 l 497 636 l 496 640 l 504 694 q 633 692 590 692 l 750 700 l 746 644 q 683 626 697 638 q 669 585 669 615 l 669 229 q 595 51 669 114 q 391 -12 521 -12 q 197 49 261 -12 q 132 225 132 110 l 132 579 q 124 626 132 614 q 90 638 115 638 l 53 636 l 50 640 l 58 694 q 196 692 147 692 l 319 700 l 314 644 q 260 626 274 639 q 243 583 246 614 l 235 265 q 281 113 235 167 q 413 60 326 60 m 215 885 l 210 899 l 232 965 l 244 974 q 521 822 390 890 l 513 789 l 501 782 l 215 885 z "},"ú":{"ha":799,"x_min":50,"x_max":750,"o":"m 413 60 q 590 231 590 60 l 585 579 q 575 627 582 617 q 544 638 568 638 l 497 636 l 496 640 l 504 694 q 633 692 590 692 l 750 700 l 746 644 q 683 626 697 638 q 669 585 669 615 l 669 229 q 595 51 669 114 q 391 -12 521 -12 q 197 49 261 -12 q 132 225 132 110 l 132 579 q 124 626 132 614 q 90 638 115 638 l 53 636 l 50 640 l 58 694 q 196 692 147 692 l 319 700 l 314 644 q 260 626 274 639 q 243 583 246 614 l 235 265 q 281 113 235 167 q 413 60 326 60 m 600 899 l 594 885 q 308 782 454 838 l 297 789 l 289 822 l 565 974 l 578 965 l 600 899 z "},"û":{"ha":799,"x_min":50,"x_max":750,"o":"m 413 60 q 590 231 590 60 l 585 579 q 575 627 582 617 q 544 638 568 638 l 497 636 l 496 640 l 504 694 q 633 692 590 692 l 750 700 l 746 644 q 683 626 697 638 q 669 585 669 615 l 669 229 q 595 51 669 114 q 391 -12 521 -12 q 197 49 261 -12 q 132 225 132 110 l 132 579 q 124 626 132 614 q 90 638 115 638 l 53 636 l 50 640 l 58 694 q 196 692 147 692 l 319 700 l 314 644 q 260 626 274 639 q 243 583 246 614 l 235 265 q 281 113 235 167 q 413 60 326 60 m 226 796 l 207 826 l 399 981 l 418 981 q 610 826 519 894 l 590 796 l 578 794 q 408 885 485 849 q 239 794 336 851 l 226 796 z "},"ü":{"ha":799,"x_min":50,"x_max":750,"o":"m 413 60 q 590 231 590 60 l 585 579 q 575 627 582 617 q 544 638 568 638 l 497 636 l 496 640 l 504 694 q 633 692 590 692 l 750 700 l 746 644 q 683 626 697 638 q 669 585 669 615 l 669 229 q 595 51 669 114 q 391 -12 521 -12 q 197 49 261 -12 q 132 225 132 110 l 132 579 q 124 626 132 614 q 90 638 115 638 l 53 636 l 50 640 l 58 694 q 196 692 147 692 l 319 700 l 314 644 q 260 626 274 639 q 243 583 246 614 l 235 265 q 281 113 235 167 q 413 60 326 60 m 586 880 q 586 866 586 880 q 566 833 586 853 q 518 813 546 813 q 475 831 490 813 q 460 875 460 849 q 480 922 460 901 q 528 942 500 942 q 571 924 556 942 q 586 880 586 907 m 356 880 q 356 866 356 880 q 335 833 356 853 q 288 813 315 813 q 244 831 260 813 q 229 875 229 849 q 249 922 229 901 q 297 942 269 942 q 340 924 325 942 q 356 880 356 907 z "},"ý":{"ha":660,"x_min":-4,"x_max":665,"o":"m 419 699 l 553 692 l 661 696 l 665 688 l 658 640 q 583 605 606 629 q 511 500 560 581 l 399 308 q 381 250 383 282 q 375 144 375 203 q 385 71 375 86 q 426 56 396 56 l 482 58 l 485 54 l 474 -4 q 331 0 371 0 q 176 -12 257 0 l 185 44 q 261 75 246 54 q 276 157 276 96 l 276 200 q 243 319 276 258 q 101 586 114 567 q -1 639 71 632 l -4 644 l 4 694 q 135 692 83 692 l 301 700 l 306 692 l 301 646 q 237 635 254 643 q 219 607 219 628 q 339 347 219 586 l 346 347 l 465 561 q 483 614 483 593 q 415 644 483 640 l 413 649 l 419 699 m 557 899 l 551 885 q 265 782 411 838 l 254 789 l 246 822 l 522 974 l 535 965 l 557 899 z "},"þ":{"ha":657,"x_min":74,"x_max":619,"o":"m 283 586 q 281 549 283 586 l 372 549 q 556 502 493 549 q 619 369 619 456 q 539 220 619 282 q 349 158 458 158 l 268 158 l 268 122 q 278 68 268 82 q 317 54 288 54 l 375 58 l 378 53 l 368 -3 q 225 0 265 0 q 74 -12 151 0 l 81 44 q 151 73 133 54 q 169 138 169 92 l 171 579 q 163 626 171 614 q 129 638 154 638 l 83 636 l 81 642 l 88 694 l 229 692 l 368 701 l 363 644 q 301 627 315 639 q 283 586 286 615 m 508 350 q 460 452 508 419 q 307 485 411 485 q 278 474 279 485 q 269 235 269 307 q 379 217 321 219 q 508 350 508 233 z "},"ÿ":{"ha":660,"x_min":-4,"x_max":665,"o":"m 419 699 l 553 692 l 661 696 l 665 688 l 658 640 q 583 605 606 629 q 511 500 560 581 l 399 308 q 381 250 383 282 q 375 144 375 203 q 385 71 375 86 q 426 56 396 56 l 482 58 l 485 54 l 474 -4 q 331 0 371 0 q 176 -12 257 0 l 185 44 q 261 75 246 54 q 276 157 276 96 l 276 200 q 243 319 276 258 q 101 586 114 567 q -1 639 71 632 l -4 644 l 4 694 q 135 692 83 692 l 301 700 l 306 692 l 301 646 q 237 635 254 643 q 219 607 219 628 q 339 347 219 586 l 346 347 l 465 561 q 483 614 483 593 q 415 644 483 640 l 413 649 l 419 699 m 528 880 q 528 866 528 880 q 508 833 528 853 q 460 813 488 813 q 417 831 432 813 q 401 875 401 849 q 422 922 401 901 q 469 942 442 942 q 513 924 497 942 q 528 880 528 907 m 297 880 q 297 866 297 880 q 277 833 297 853 q 229 813 257 813 q 186 831 201 813 q 171 875 171 849 q 191 922 171 901 q 239 942 211 942 q 282 924 267 942 q 297 880 297 907 z "},"Ā":{"ha":803,"x_min":-25,"x_max":821,"o":"m 457 -14 l 453 -4 l 458 50 q 556 67 529 56 q 582 104 582 78 q 569 169 582 131 l 524 321 q 401 322 490 322 q 228 311 313 322 l 176 167 q 164 113 164 129 q 247 56 164 56 l 326 56 l 329 50 l 321 -10 q 128 0 219 0 l -25 -4 l -14 61 q 49 88 25 65 q 94 168 72 111 l 365 878 l 453 901 l 464 901 q 685 157 581 469 q 729 85 701 106 q 818 58 757 64 l 821 53 l 811 -4 q 640 0 711 0 q 457 -14 568 0 m 375 379 q 504 386 425 379 l 394 750 l 385 750 l 253 379 l 375 379 m 608 1081 l 617 1067 l 607 1001 l 210 999 l 201 1011 l 215 1074 q 429 1072 347 1072 l 608 1081 z "},"ā":{"ha":703,"x_min":-3,"x_max":700,"o":"m 693 -3 q 567 0 608 0 q 392 -10 501 0 l 388 -3 l 392 47 q 470 60 450 51 q 490 89 490 68 q 481 135 490 110 l 447 242 q 356 243 419 243 q 213 235 292 243 q 164 93 164 106 q 229 51 164 51 l 289 51 l 293 46 l 285 -7 q 125 0 200 0 l -3 -3 l 6 54 q 54 76 36 58 q 90 135 72 93 l 308 686 l 407 704 l 417 703 q 593 129 514 353 q 628 73 607 89 q 697 53 650 57 l 700 47 l 693 -3 m 329 300 q 431 306 378 300 l 346 575 l 336 575 l 235 300 l 329 300 m 556 886 l 564 872 l 554 807 l 157 804 l 149 817 l 163 879 q 376 878 294 878 l 556 886 z "},"Ă":{"ha":803,"x_min":-25,"x_max":821,"o":"m 457 -14 l 453 -4 l 458 50 q 556 67 529 56 q 582 104 582 78 q 569 169 582 131 l 524 321 q 401 322 490 322 q 228 311 313 322 l 176 167 q 164 113 164 129 q 247 56 164 56 l 326 56 l 329 50 l 321 -10 q 128 0 219 0 l -25 -4 l -14 61 q 49 88 25 65 q 94 168 72 111 l 365 878 l 453 901 l 464 901 q 685 157 581 469 q 729 85 701 106 q 818 58 757 64 l 821 53 l 811 -4 q 640 0 711 0 q 457 -14 568 0 m 375 379 q 504 386 425 379 l 394 750 l 385 750 l 253 379 l 375 379 m 275 1136 q 408 1067 311 1067 q 542 1136 506 1067 l 553 1136 l 575 1122 q 517 1025 558 1064 q 408 986 475 986 q 300 1025 342 986 q 242 1122 258 1064 l 264 1136 l 275 1136 z "},"ă":{"ha":703,"x_min":-3,"x_max":700,"o":"m 693 -3 q 567 0 608 0 q 392 -10 501 0 l 388 -3 l 392 47 q 470 60 450 51 q 490 89 490 68 q 481 135 490 110 l 447 242 q 356 243 419 243 q 213 235 292 243 q 164 93 164 106 q 229 51 164 51 l 289 51 l 293 46 l 285 -7 q 125 0 200 0 l -3 -3 l 6 54 q 54 76 36 58 q 90 135 72 93 l 308 686 l 407 704 l 417 703 q 593 129 514 353 q 628 73 607 89 q 697 53 650 57 l 700 47 l 693 -3 m 329 300 q 431 306 378 300 l 346 575 l 336 575 l 235 300 l 329 300 m 222 942 q 356 872 258 872 q 489 942 453 872 l 500 942 l 522 928 q 464 831 506 869 q 356 792 422 792 q 247 831 289 792 q 189 928 206 869 l 211 942 l 222 942 z "},"Ą":{"ha":803,"x_min":-25,"x_max":821,"o":"m 682 -335 q 570 -300 613 -335 q 528 -212 528 -265 q 560 -112 528 -160 q 658 0 593 -65 q 457 -14 565 0 l 453 -4 l 458 50 q 556 67 529 56 q 582 104 582 78 q 569 169 582 131 l 524 321 q 401 322 490 322 q 228 311 313 322 l 176 167 q 164 113 164 129 q 247 56 164 56 l 326 56 l 329 50 l 321 -10 q 128 0 219 0 l -25 -4 l -14 61 q 49 88 25 65 q 94 168 72 111 l 365 878 l 453 901 l 464 901 q 685 157 581 469 q 729 85 701 106 q 818 58 757 64 l 821 53 l 811 -4 q 719 0 764 -1 q 638 -99 661 -61 q 615 -174 615 -137 q 638 -232 615 -211 q 689 -253 660 -253 q 803 -221 742 -253 l 821 -247 q 682 -335 753 -311 m 375 379 q 504 386 425 379 l 394 750 l 385 750 l 253 379 l 375 379 z "},"ą":{"ha":703,"x_min":-3,"x_max":711,"o":"m 576 -335 q 468 -301 510 -335 q 426 -215 426 -268 q 460 -116 426 -162 q 564 0 494 -69 q 392 -10 501 0 l 388 -3 l 392 47 q 470 60 450 51 q 490 89 490 68 q 481 135 490 110 l 447 242 q 356 243 419 243 q 213 235 292 243 q 164 93 164 106 q 229 51 164 51 l 289 51 l 293 46 l 285 -7 q 125 0 200 0 l -3 -3 l 6 54 q 54 76 36 58 q 90 135 72 93 l 308 686 l 407 704 l 417 703 q 593 129 514 353 q 628 73 607 89 q 697 53 650 57 l 700 47 l 693 -3 q 622 0 657 -1 q 537 -103 561 -65 q 513 -178 513 -142 q 534 -235 513 -214 q 585 -256 556 -256 q 694 -225 636 -256 l 711 -250 q 576 -335 646 -312 m 329 300 q 431 306 378 300 l 346 575 l 336 575 l 235 300 l 329 300 z "},"Ć":{"ha":874,"x_min":56,"x_max":801,"o":"m 756 39 q 458 -17 636 -17 q 168 99 281 -17 q 56 419 56 215 q 193 763 56 624 q 540 901 331 901 q 782 868 643 901 l 788 860 q 753 628 761 756 l 686 622 q 690 690 690 660 q 486 819 690 819 q 263 722 346 819 q 181 449 181 624 q 267 164 181 275 q 499 53 354 53 q 651 106 593 53 q 735 272 708 160 l 801 278 q 764 51 774 151 l 756 39 m 721 1093 l 715 1079 q 429 976 575 1032 l 418 983 l 410 1017 l 686 1168 l 699 1160 l 721 1093 z "},"ć":{"ha":744,"x_min":57,"x_max":672,"o":"m 635 31 q 388 -12 535 -12 q 149 78 240 -12 q 57 330 57 168 q 169 598 57 492 q 456 704 281 704 q 658 678 544 704 l 664 669 q 635 481 642 586 l 565 476 q 568 531 568 504 q 413 628 568 628 q 242 556 304 628 q 179 353 179 485 q 245 139 179 221 q 422 57 311 57 q 603 221 565 57 l 672 226 q 643 42 650 124 l 635 31 m 626 899 l 621 885 q 335 782 481 838 l 324 789 l 315 822 l 592 974 l 604 965 l 626 899 z "},"Ĉ":{"ha":874,"x_min":56,"x_max":801,"o":"m 756 39 q 458 -17 636 -17 q 168 99 281 -17 q 56 419 56 215 q 193 763 56 624 q 540 901 331 901 q 782 868 643 901 l 788 860 q 753 628 761 756 l 686 622 q 690 690 690 660 q 486 819 690 819 q 263 722 346 819 q 181 449 181 624 q 267 164 181 275 q 499 53 354 53 q 651 106 593 53 q 735 272 708 160 l 801 278 q 764 51 774 151 l 756 39 m 292 975 l 272 1006 q 464 1218 340 1076 l 483 1218 q 675 1006 585 1100 l 656 975 l 643 974 q 474 1108 613 1000 q 304 974 365 1028 l 292 975 z "},"ĉ":{"ha":744,"x_min":57,"x_max":672,"o":"m 635 31 q 388 -12 535 -12 q 149 78 240 -12 q 57 330 57 168 q 169 598 57 492 q 456 704 281 704 q 658 678 544 704 l 664 669 q 635 481 642 586 l 565 476 q 568 531 568 504 q 413 628 568 628 q 242 556 304 628 q 179 353 179 485 q 245 139 179 221 q 422 57 311 57 q 603 221 565 57 l 672 226 q 643 42 650 124 l 635 31 m 221 781 l 201 811 q 393 1024 269 882 l 413 1024 q 604 811 514 906 l 585 781 l 572 779 q 403 914 542 806 q 233 779 294 832 l 221 781 z "},"Ċ":{"ha":874,"x_min":56,"x_max":801,"o":"m 756 39 q 458 -17 636 -17 q 168 99 281 -17 q 56 419 56 215 q 193 763 56 624 q 540 901 331 901 q 782 868 643 901 l 788 860 q 753 628 761 756 l 686 622 q 690 690 690 660 q 486 819 690 819 q 263 722 346 819 q 181 449 181 624 q 267 164 181 275 q 499 53 354 53 q 651 106 593 53 q 735 272 708 160 l 801 278 q 764 51 774 151 l 756 39 m 574 1078 q 574 1063 574 1078 q 550 1023 574 1047 q 493 999 526 999 q 442 1019 460 999 q 424 1072 424 1040 q 447 1127 424 1103 q 504 1151 471 1151 q 556 1131 538 1151 q 574 1078 574 1110 z "},"ċ":{"ha":744,"x_min":57,"x_max":672,"o":"m 635 31 q 388 -12 535 -12 q 149 78 240 -12 q 57 330 57 168 q 169 598 57 492 q 456 704 281 704 q 658 678 544 704 l 664 669 q 635 481 642 586 l 565 476 q 568 531 568 504 q 413 628 568 628 q 242 556 304 628 q 179 353 179 485 q 245 139 179 221 q 422 57 311 57 q 603 221 565 57 l 672 226 q 643 42 650 124 l 635 31 m 496 884 q 496 868 496 884 q 472 828 496 853 q 415 804 449 804 q 364 825 382 804 q 346 877 346 846 q 369 933 346 908 q 426 957 393 957 q 478 936 460 957 q 496 884 496 915 z "},"Č":{"ha":874,"x_min":56,"x_max":801,"o":"m 756 39 q 458 -17 636 -17 q 168 99 281 -17 q 56 419 56 215 q 193 763 56 624 q 540 901 331 901 q 782 868 643 901 l 788 860 q 753 628 761 756 l 686 622 q 690 690 690 660 q 486 819 690 819 q 263 722 346 819 q 181 449 181 624 q 267 164 181 275 q 499 53 354 53 q 651 106 593 53 q 735 272 708 160 l 801 278 q 764 51 774 151 l 756 39 m 681 1163 l 700 1132 l 508 978 l 489 978 q 297 1132 388 1064 l 317 1163 l 329 1164 q 499 1074 422 1110 q 668 1164 571 1107 l 681 1163 z "},"č":{"ha":744,"x_min":57,"x_max":672,"o":"m 635 31 q 388 -12 535 -12 q 149 78 240 -12 q 57 330 57 168 q 169 598 57 492 q 456 704 281 704 q 658 678 544 704 l 664 669 q 635 481 642 586 l 565 476 q 568 531 568 504 q 413 628 568 628 q 242 556 304 628 q 179 353 179 485 q 245 139 179 221 q 422 57 311 57 q 603 221 565 57 l 672 226 q 643 42 650 124 l 635 31 m 603 968 l 622 938 l 431 783 l 411 783 q 219 938 310 869 l 239 968 l 251 969 q 421 879 344 915 q 590 969 493 913 l 603 968 z "},"Ď":{"ha":976,"x_min":81,"x_max":921,"o":"m 440 -17 q 261 0 311 0 q 81 -17 178 0 l 89 47 q 175 84 153 60 q 197 167 197 108 l 199 750 q 188 810 199 794 q 147 825 178 825 l 100 822 l 97 828 l 107 889 q 253 885 200 885 l 464 890 q 794 775 667 890 q 921 464 921 660 q 782 126 921 268 q 440 -17 643 -17 m 368 822 q 329 816 339 822 q 318 792 319 810 q 297 181 297 257 q 332 80 297 106 q 472 54 367 54 q 708 158 622 54 q 794 443 794 261 q 684 724 794 625 q 368 822 574 822 m 642 1163 l 661 1132 l 469 978 l 450 978 q 258 1132 349 1064 l 278 1163 l 290 1164 q 460 1074 383 1110 q 629 1164 532 1107 l 642 1163 z "},"ď":{"ha":828,"x_min":76,"x_max":771,"o":"m 376 -12 q 228 0 271 0 q 76 -12 151 0 l 83 46 q 151 74 133 54 q 169 138 169 93 l 171 579 q 163 626 171 614 q 131 638 154 638 l 92 635 l 89 642 l 97 694 q 222 692 179 692 l 397 696 q 669 608 567 696 q 771 364 771 519 q 658 98 771 208 q 376 -12 544 -12 m 324 631 q 294 626 301 631 q 285 606 286 621 q 268 153 268 215 q 294 73 268 92 q 400 54 321 54 q 583 131 517 54 q 649 346 649 207 q 565 558 649 485 q 324 631 482 631 m 576 968 l 596 938 l 404 783 l 385 783 q 193 938 283 869 l 213 968 l 225 969 q 394 879 318 915 q 564 969 467 913 l 576 968 z "},"Đ":{"ha":990,"x_min":13,"x_max":931,"o":"m 450 -17 q 269 0 321 0 q 90 -17 188 0 l 99 47 q 189 90 171 61 q 207 218 207 118 l 207 422 l 22 422 l 13 432 l 22 476 l 207 476 l 208 750 q 198 810 208 794 q 157 825 188 825 l 110 822 l 107 828 l 117 889 q 263 885 210 885 l 474 890 q 802 774 674 890 q 931 475 931 657 q 792 126 931 268 q 450 -17 653 -17 m 482 54 q 718 158 632 54 q 804 443 804 261 q 694 724 804 625 q 378 822 583 822 q 339 816 349 822 q 328 792 329 810 l 315 476 l 551 476 l 558 467 l 550 422 l 314 422 l 307 182 q 342 80 307 106 q 482 54 378 54 z "},"đ":{"ha":840,"x_min":25,"x_max":781,"o":"m 386 -12 q 238 0 281 0 q 86 -12 161 0 l 93 46 q 165 77 150 56 q 181 172 181 99 l 181 324 l 33 324 l 25 331 l 35 375 l 181 375 l 181 579 q 173 626 181 614 q 140 638 165 638 l 103 635 l 99 642 l 107 694 q 233 692 189 692 l 408 696 q 677 606 574 696 q 781 363 781 517 q 667 98 781 208 q 386 -12 554 -12 m 410 54 q 592 131 526 54 q 658 346 658 207 q 575 558 658 485 q 333 631 492 631 q 303 626 311 631 q 294 606 296 621 l 285 375 l 465 375 l 472 368 l 465 324 l 283 324 l 279 147 q 306 73 279 92 q 410 54 332 54 z "},"Ē":{"ha":821,"x_min":81,"x_max":739,"o":"m 304 492 l 447 490 l 617 506 l 622 499 l 603 417 q 420 421 483 421 q 301 411 357 421 q 296 150 296 211 q 313 76 296 89 q 426 63 331 63 q 571 74 522 63 q 641 119 619 86 q 674 232 663 151 l 735 239 l 739 232 q 701 -1 714 117 l 694 -10 q 317 0 406 0 q 81 -14 181 0 l 89 50 q 174 83 151 58 q 197 167 197 107 l 199 750 q 188 810 199 794 q 147 825 178 825 l 100 822 l 97 828 l 107 889 q 406 885 217 885 q 717 901 594 885 l 721 893 q 689 663 697 790 l 622 657 q 625 717 625 697 q 592 800 625 785 q 452 815 560 815 q 331 808 344 815 q 315 761 317 800 l 304 492 m 629 1081 l 638 1067 l 628 1001 l 231 999 l 222 1011 l 236 1074 q 450 1072 368 1072 l 629 1081 z "},"ē":{"ha":706,"x_min":75,"x_max":629,"o":"m 275 389 l 389 388 l 526 399 l 532 392 l 515 319 q 370 322 419 322 q 272 315 321 322 q 268 145 268 210 q 281 70 268 81 q 369 60 294 60 q 481 69 443 60 q 536 103 519 78 q 563 190 553 128 l 624 196 l 629 189 q 599 0 608 97 l 590 -7 q 281 0 360 0 q 75 -11 164 0 l 82 47 q 151 72 133 53 q 169 139 169 92 l 171 579 q 163 626 171 614 q 129 638 154 638 l 92 636 l 89 642 l 97 694 q 348 692 196 692 q 611 704 500 692 l 615 697 q 589 511 596 611 l 522 506 q 525 551 525 536 q 499 615 525 603 q 390 626 472 626 q 296 620 307 626 q 283 586 285 614 l 275 389 m 569 886 l 578 872 l 568 807 l 171 804 l 163 817 l 176 879 q 390 878 308 878 l 569 886 z "},"Ĕ":{"ha":821,"x_min":81,"x_max":739,"o":"m 304 492 l 447 490 l 617 506 l 622 499 l 603 417 q 420 421 483 421 q 301 411 357 421 q 296 150 296 211 q 313 76 296 89 q 426 63 331 63 q 571 74 522 63 q 641 119 619 86 q 674 232 663 151 l 735 239 l 739 232 q 701 -1 714 117 l 694 -10 q 317 0 406 0 q 81 -14 181 0 l 89 50 q 174 83 151 58 q 197 167 197 107 l 199 750 q 188 810 199 794 q 147 825 178 825 l 100 822 l 97 828 l 107 889 q 406 885 217 885 q 717 901 594 885 l 721 893 q 689 663 697 790 l 622 657 q 625 717 625 697 q 592 800 625 785 q 452 815 560 815 q 331 808 344 815 q 315 761 317 800 l 304 492 m 321 1190 q 454 1099 356 1099 q 588 1190 553 1099 l 599 1190 l 621 1176 q 563 1064 604 1110 q 454 1018 521 1018 q 346 1064 388 1018 q 288 1176 304 1110 l 310 1190 l 321 1190 z "},"ĕ":{"ha":706,"x_min":75,"x_max":629,"o":"m 275 389 l 389 388 l 526 399 l 532 392 l 515 319 q 370 322 419 322 q 272 315 321 322 q 268 145 268 210 q 281 70 268 81 q 369 60 294 60 q 481 69 443 60 q 536 103 519 78 q 563 190 553 128 l 624 196 l 629 189 q 599 0 608 97 l 590 -7 q 281 0 360 0 q 75 -11 164 0 l 82 47 q 151 72 133 53 q 169 139 169 92 l 171 579 q 163 626 171 614 q 129 638 154 638 l 92 636 l 89 642 l 97 694 q 348 692 196 692 q 611 704 500 692 l 615 697 q 589 511 596 611 l 522 506 q 525 551 525 536 q 499 615 525 603 q 390 626 472 626 q 296 620 307 626 q 283 586 285 614 l 275 389 m 254 996 q 388 904 290 904 q 521 996 486 904 l 532 996 l 554 982 q 496 869 538 915 q 388 824 454 824 q 279 869 321 824 q 221 982 238 915 l 243 996 l 254 996 z "},"Ė":{"ha":821,"x_min":81,"x_max":739,"o":"m 304 492 l 447 490 l 617 506 l 622 499 l 603 417 q 420 421 483 421 q 301 411 357 421 q 296 150 296 211 q 313 76 296 89 q 426 63 331 63 q 571 74 522 63 q 641 119 619 86 q 674 232 663 151 l 735 239 l 739 232 q 701 -1 714 117 l 694 -10 q 317 0 406 0 q 81 -14 181 0 l 89 50 q 174 83 151 58 q 197 167 197 107 l 199 750 q 188 810 199 794 q 147 825 178 825 l 100 822 l 97 828 l 107 889 q 406 885 217 885 q 717 901 594 885 l 721 893 q 689 663 697 790 l 622 657 q 625 717 625 697 q 592 800 625 785 q 452 815 560 815 q 331 808 344 815 q 315 761 317 800 l 304 492 m 506 1078 q 506 1063 506 1078 q 482 1023 506 1047 q 425 999 458 999 q 374 1019 392 999 q 356 1072 356 1040 q 379 1127 356 1103 q 436 1151 403 1151 q 488 1131 469 1151 q 506 1078 506 1110 z "},"ė":{"ha":706,"x_min":75,"x_max":629,"o":"m 275 389 l 389 388 l 526 399 l 532 392 l 515 319 q 370 322 419 322 q 272 315 321 322 q 268 145 268 210 q 281 70 268 81 q 369 60 294 60 q 481 69 443 60 q 536 103 519 78 q 563 190 553 128 l 624 196 l 629 189 q 599 0 608 97 l 590 -7 q 281 0 360 0 q 75 -11 164 0 l 82 47 q 151 72 133 53 q 169 139 169 92 l 171 579 q 163 626 171 614 q 129 638 154 638 l 92 636 l 89 642 l 97 694 q 348 692 196 692 q 611 704 500 692 l 615 697 q 589 511 596 611 l 522 506 q 525 551 525 536 q 499 615 525 603 q 390 626 472 626 q 296 620 307 626 q 283 586 285 614 l 275 389 m 446 884 q 446 868 446 884 q 422 828 446 853 q 365 804 399 804 q 314 825 332 804 q 296 877 296 846 q 319 933 296 908 q 376 957 343 957 q 428 936 410 957 q 446 884 446 915 z "},"Ę":{"ha":821,"x_min":81,"x_max":739,"o":"m 304 492 l 447 490 l 617 506 l 622 499 l 603 417 q 420 421 483 421 q 301 411 357 421 q 296 150 296 211 q 313 76 296 89 q 426 63 331 63 q 571 74 522 63 q 641 119 619 86 q 674 232 663 151 l 735 239 l 739 232 q 701 -1 714 117 l 694 -10 q 625 -7 667 -8 q 549 -102 571 -65 q 528 -175 528 -139 q 550 -232 528 -211 q 603 -253 572 -253 q 715 -221 654 -253 l 733 -247 q 594 -335 665 -311 q 483 -300 525 -335 q 440 -213 440 -265 q 472 -115 440 -161 q 565 -6 503 -68 q 301 0 376 0 q 81 -14 181 0 l 89 50 q 174 83 151 58 q 197 167 197 107 l 199 750 q 188 810 199 794 q 147 825 178 825 l 100 822 l 97 828 l 107 889 q 406 885 217 885 q 717 901 594 885 l 721 893 q 689 663 697 790 l 622 657 q 625 717 625 697 q 592 800 625 785 q 452 815 560 815 q 331 808 344 815 q 315 761 317 800 l 304 492 z "},"ę":{"ha":706,"x_min":75,"x_max":644,"o":"m 275 389 l 389 388 l 526 399 l 532 392 l 515 319 q 370 322 419 322 q 272 315 321 322 q 268 145 268 210 q 281 70 268 81 q 369 60 294 60 q 481 69 443 60 q 536 103 519 78 q 563 190 553 128 l 624 196 l 629 189 q 599 0 608 97 l 590 -7 q 539 -6 569 -6 q 462 -101 485 -64 q 439 -175 439 -139 q 461 -232 439 -211 q 514 -253 483 -253 q 626 -221 565 -253 l 644 -247 q 506 -335 576 -311 q 394 -300 436 -335 q 351 -212 351 -265 q 383 -114 351 -160 q 479 -3 415 -68 q 264 0 326 0 q 75 -11 164 0 l 82 47 q 151 72 133 53 q 169 139 169 92 l 171 579 q 163 626 171 614 q 129 638 154 638 l 92 636 l 89 642 l 97 694 q 348 692 196 692 q 611 704 500 692 l 615 697 q 589 511 596 611 l 522 506 q 525 551 525 536 q 499 615 525 603 q 390 626 472 626 q 296 620 307 626 q 283 586 285 614 l 275 389 z "},"Ě":{"ha":821,"x_min":81,"x_max":739,"o":"m 304 492 l 447 490 l 617 506 l 622 499 l 603 417 q 420 421 483 421 q 301 411 357 421 q 296 150 296 211 q 313 76 296 89 q 426 63 331 63 q 571 74 522 63 q 641 119 619 86 q 674 232 663 151 l 735 239 l 739 232 q 701 -1 714 117 l 694 -10 q 317 0 406 0 q 81 -14 181 0 l 89 50 q 174 83 151 58 q 197 167 197 107 l 199 750 q 188 810 199 794 q 147 825 178 825 l 100 822 l 97 828 l 107 889 q 406 885 217 885 q 717 901 594 885 l 721 893 q 689 663 697 790 l 622 657 q 625 717 625 697 q 592 800 625 785 q 452 815 560 815 q 331 808 344 815 q 315 761 317 800 l 304 492 m 613 1163 l 632 1132 l 440 978 l 421 978 q 229 1132 319 1064 l 249 1163 l 261 1164 q 431 1074 354 1110 q 600 1164 503 1107 l 613 1163 z "},"ě":{"ha":706,"x_min":75,"x_max":629,"o":"m 275 389 l 389 388 l 526 399 l 532 392 l 515 319 q 370 322 419 322 q 272 315 321 322 q 268 145 268 210 q 281 70 268 81 q 369 60 294 60 q 481 69 443 60 q 536 103 519 78 q 563 190 553 128 l 624 196 l 629 189 q 599 0 608 97 l 590 -7 q 281 0 360 0 q 75 -11 164 0 l 82 47 q 151 72 133 53 q 169 139 169 92 l 171 579 q 163 626 171 614 q 129 638 154 638 l 92 636 l 89 642 l 97 694 q 348 692 196 692 q 611 704 500 692 l 615 697 q 589 511 596 611 l 522 506 q 525 551 525 536 q 499 615 525 603 q 390 626 472 626 q 296 620 307 626 q 283 586 285 614 l 275 389 m 551 968 l 571 938 l 379 783 l 360 783 q 168 938 258 869 l 188 968 l 200 969 q 369 879 293 915 q 539 969 442 913 l 551 968 z "},"Ĝ":{"ha":926,"x_min":56,"x_max":822,"o":"m 822 396 q 788 330 797 375 q 779 193 779 285 q 789 60 779 101 l 781 47 q 630 3 721 22 q 461 -17 539 -17 q 165 99 275 -17 q 56 423 56 215 q 190 766 56 631 q 543 901 325 901 q 813 868 646 901 l 818 860 q 782 628 790 756 l 717 622 q 721 697 721 660 q 672 790 721 761 q 511 819 622 819 q 265 724 353 819 q 176 451 176 629 q 263 163 176 274 q 493 53 350 53 q 590 66 543 53 q 683 106 638 79 l 683 275 q 669 336 683 322 q 607 350 654 350 l 511 350 l 508 356 l 521 425 q 697 419 615 419 l 817 426 l 822 396 m 301 975 l 282 1006 q 474 1218 350 1076 l 493 1218 q 685 1006 594 1100 l 665 975 l 653 974 q 483 1108 622 1000 q 314 974 375 1028 l 301 975 z "},"ĝ":{"ha":786,"x_min":57,"x_max":693,"o":"m 438 339 l 585 336 l 688 342 l 693 311 q 663 260 671 294 q 656 151 656 225 q 663 46 656 78 l 656 35 q 390 -12 542 -12 q 148 78 239 -12 q 57 333 57 169 q 167 600 57 496 q 458 704 276 704 q 681 678 551 704 l 686 669 q 657 483 663 586 l 589 478 q 592 536 592 507 q 554 606 592 585 q 432 628 517 628 q 242 559 308 628 q 176 355 176 490 q 242 138 176 219 q 418 57 307 57 q 493 66 457 57 q 563 93 529 75 l 563 215 q 551 261 563 250 q 503 272 539 272 l 429 272 l 426 278 l 438 339 m 229 781 l 210 811 q 401 1024 278 882 l 421 1024 q 613 811 522 906 l 593 781 l 581 779 q 411 914 550 806 q 242 779 303 832 l 229 781 z "},"Ğ":{"ha":926,"x_min":56,"x_max":822,"o":"m 822 396 q 788 330 797 375 q 779 193 779 285 q 789 60 779 101 l 781 47 q 630 3 721 22 q 461 -17 539 -17 q 165 99 275 -17 q 56 423 56 215 q 190 766 56 631 q 543 901 325 901 q 813 868 646 901 l 818 860 q 782 628 790 756 l 717 622 q 721 697 721 660 q 672 790 721 761 q 511 819 622 819 q 265 724 353 819 q 176 451 176 629 q 263 163 176 274 q 493 53 350 53 q 590 66 543 53 q 683 106 638 79 l 683 275 q 669 336 683 322 q 607 350 654 350 l 511 350 l 508 356 l 521 425 q 697 419 615 419 l 817 426 l 822 396 m 374 1136 q 507 1067 410 1067 q 640 1136 604 1067 l 651 1136 l 674 1122 q 615 1025 657 1064 q 507 986 574 986 q 399 1025 440 986 q 340 1122 357 1064 l 363 1136 l 374 1136 z "},"ğ":{"ha":786,"x_min":57,"x_max":693,"o":"m 438 339 l 585 336 l 688 342 l 693 311 q 663 260 671 294 q 656 151 656 225 q 663 46 656 78 l 656 35 q 390 -12 542 -12 q 148 78 239 -12 q 57 333 57 169 q 167 600 57 496 q 458 704 276 704 q 681 678 551 704 l 686 669 q 657 483 663 586 l 589 478 q 592 536 592 507 q 554 606 592 585 q 432 628 517 628 q 242 559 308 628 q 176 355 176 490 q 242 138 176 219 q 418 57 307 57 q 493 66 457 57 q 563 93 529 75 l 563 215 q 551 261 563 250 q 503 272 539 272 l 429 272 l 426 278 l 438 339 m 294 942 q 428 872 331 872 q 561 942 525 872 l 572 942 l 594 928 q 536 831 578 869 q 428 792 494 792 q 319 831 361 792 q 261 928 278 869 l 283 942 l 294 942 z "},"Ġ":{"ha":926,"x_min":56,"x_max":822,"o":"m 822 396 q 788 330 797 375 q 779 193 779 285 q 789 60 779 101 l 781 47 q 630 3 721 22 q 461 -17 539 -17 q 165 99 275 -17 q 56 423 56 215 q 190 766 56 631 q 543 901 325 901 q 813 868 646 901 l 818 860 q 782 628 790 756 l 717 622 q 721 697 721 660 q 672 790 721 761 q 511 819 622 819 q 265 724 353 819 q 176 451 176 629 q 263 163 176 274 q 493 53 350 53 q 590 66 543 53 q 683 106 638 79 l 683 275 q 669 336 683 322 q 607 350 654 350 l 511 350 l 508 356 l 521 425 q 697 419 615 419 l 817 426 l 822 396 m 583 1078 q 583 1063 583 1078 q 560 1023 583 1047 q 503 999 536 999 q 451 1019 469 999 q 433 1072 433 1040 q 457 1127 433 1103 q 514 1151 481 1151 q 565 1131 547 1151 q 583 1078 583 1110 z "},"ġ":{"ha":786,"x_min":57,"x_max":693,"o":"m 438 339 l 585 336 l 688 342 l 693 311 q 663 260 671 294 q 656 151 656 225 q 663 46 656 78 l 656 35 q 390 -12 542 -12 q 148 78 239 -12 q 57 333 57 169 q 167 600 57 496 q 458 704 276 704 q 681 678 551 704 l 686 669 q 657 483 663 586 l 589 478 q 592 536 592 507 q 554 606 592 585 q 432 628 517 628 q 242 559 308 628 q 176 355 176 490 q 242 138 176 219 q 418 57 307 57 q 493 66 457 57 q 563 93 529 75 l 563 215 q 551 261 563 250 q 503 272 539 272 l 429 272 l 426 278 l 438 339 m 504 884 q 504 868 504 884 q 481 828 504 853 q 424 804 457 804 q 372 825 390 804 q 354 877 354 846 q 378 933 354 908 q 435 957 401 957 q 486 936 468 957 q 504 884 504 915 z "},"Ģ":{"ha":926,"x_min":56,"x_max":822,"o":"m 822 396 q 788 330 797 375 q 779 193 779 285 q 789 60 779 101 l 781 47 q 630 3 721 22 q 461 -17 539 -17 q 165 99 275 -17 q 56 423 56 215 q 190 766 56 631 q 543 901 325 901 q 813 868 646 901 l 818 860 q 782 628 790 756 l 717 622 q 721 697 721 660 q 672 790 721 761 q 511 819 622 819 q 265 724 353 819 q 176 451 176 629 q 263 163 176 274 q 493 53 350 53 q 590 66 543 53 q 683 106 638 79 l 683 275 q 669 336 683 322 q 607 350 654 350 l 511 350 l 508 356 l 521 425 q 697 419 615 419 l 817 426 l 822 396 m 400 -129 q 480 -93 447 -93 q 534 -120 513 -93 q 556 -192 556 -147 q 503 -315 556 -260 q 378 -407 450 -369 l 353 -386 l 353 -372 q 424 -308 396 -346 q 453 -235 453 -269 q 397 -149 453 -182 l 400 -129 z "},"ģ":{"ha":786,"x_min":57,"x_max":693,"o":"m 438 339 l 585 336 l 688 342 l 693 311 q 663 260 671 294 q 656 151 656 225 q 663 46 656 78 l 656 35 q 390 -12 542 -12 q 148 78 239 -12 q 57 333 57 169 q 167 600 57 496 q 458 704 276 704 q 681 678 551 704 l 686 669 q 657 483 663 586 l 589 478 q 592 536 592 507 q 554 606 592 585 q 432 628 517 628 q 242 559 308 628 q 176 355 176 490 q 242 138 176 219 q 418 57 307 57 q 493 66 457 57 q 563 93 529 75 l 563 215 q 551 261 563 250 q 503 272 539 272 l 429 272 l 426 278 l 438 339 m 335 -129 q 415 -93 382 -93 q 469 -120 447 -93 q 490 -192 490 -147 q 438 -315 490 -260 q 313 -407 385 -369 l 288 -386 l 288 -372 q 359 -308 331 -346 q 388 -235 388 -269 q 332 -149 388 -182 l 335 -129 z "},"Ĥ":{"ha":1047,"x_min":81,"x_max":968,"o":"m 842 156 q 854 80 842 99 q 903 61 867 61 l 965 65 l 968 60 l 956 -4 q 785 0 846 0 l 625 -3 l 638 60 q 723 89 703 61 q 743 208 743 117 l 743 418 q 532 419 596 419 l 301 404 l 296 156 q 308 80 296 99 q 357 61 321 61 l 419 65 l 422 60 l 410 -4 q 320 0 410 0 q 156 -6 231 0 q 81 -17 82 -11 l 89 47 q 175 84 153 60 q 197 167 197 108 l 199 750 q 188 810 199 794 q 147 825 178 825 l 100 822 l 97 828 l 107 889 q 247 885 208 885 q 410 897 304 885 l 404 835 q 330 805 344 825 q 313 710 315 785 l 304 485 l 538 483 q 743 497 626 483 l 744 750 q 734 810 744 794 q 693 825 724 825 l 646 822 l 643 828 l 653 889 q 736 885 653 885 q 956 897 833 885 l 950 835 q 881 812 899 828 q 861 756 864 796 q 842 156 842 350 m 342 1011 l 322 1042 q 514 1254 390 1113 l 533 1254 q 725 1042 635 1136 l 706 1011 l 693 1010 q 524 1144 663 1036 q 354 1010 415 1063 l 342 1011 z "},"ĥ":{"ha":888,"x_min":75,"x_max":814,"o":"m 713 129 q 722 70 713 85 q 761 56 732 56 l 810 58 l 814 53 l 803 -3 q 657 0 713 0 l 518 -1 l 529 54 q 597 76 581 54 q 614 164 614 97 l 614 319 q 454 321 503 321 l 272 310 l 268 129 q 278 69 268 85 q 317 54 288 54 l 365 58 l 368 53 l 358 -3 q 245 0 292 0 q 138 -4 199 0 q 75 -12 76 -8 l 82 44 q 151 73 133 54 q 169 138 169 92 l 171 579 q 163 626 171 614 q 129 638 154 638 l 92 636 l 88 642 l 96 694 q 225 692 181 692 l 360 701 l 354 644 q 295 622 307 638 q 281 553 283 607 l 274 385 l 454 383 q 614 393 528 383 l 615 579 q 607 626 615 614 q 574 638 599 638 l 535 636 l 532 642 l 540 694 q 660 692 540 692 l 804 701 l 800 644 q 743 627 757 639 q 728 583 729 615 q 713 129 713 314 m 261 817 l 242 847 q 433 1060 310 918 l 453 1060 q 644 847 554 942 l 625 817 l 613 815 q 443 950 582 842 q 274 815 335 869 l 261 817 z "},"Ħ":{"ha":1042,"x_min":58,"x_max":982,"o":"m 839 156 q 851 80 839 99 q 900 61 864 61 l 963 65 l 965 60 l 953 -4 q 782 0 843 0 l 622 -3 l 635 60 q 720 89 700 61 q 740 208 740 117 l 740 418 q 529 419 593 419 l 299 404 l 293 156 q 306 80 293 99 q 354 61 318 61 l 417 65 l 419 60 l 407 -4 q 317 0 407 0 q 153 -6 228 0 q 78 -17 79 -11 l 86 47 q 172 84 150 60 q 194 167 194 108 l 196 622 l 71 622 l 58 635 l 68 689 q 196 688 124 688 l 196 750 q 185 810 196 794 q 144 825 175 825 l 97 822 l 94 828 l 104 889 q 244 885 206 885 q 407 897 301 885 l 401 835 q 327 805 342 825 q 310 710 313 785 l 308 688 l 550 688 q 742 689 676 688 l 742 750 q 731 810 742 794 q 690 825 721 825 l 643 822 l 640 828 l 650 889 q 733 885 650 885 q 953 897 831 885 l 947 835 q 878 811 896 828 q 856 692 856 790 l 964 694 l 982 676 l 976 625 l 853 624 q 839 156 839 325 m 740 624 l 306 624 l 301 485 l 535 483 q 740 497 624 483 l 740 624 z "},"ħ":{"ha":888,"x_min":57,"x_max":826,"o":"m 719 486 q 710 170 710 256 q 719 70 710 85 q 758 56 729 56 l 807 58 l 811 53 l 800 -3 q 654 0 710 0 l 515 -1 l 526 54 q 594 76 578 54 q 611 164 611 97 l 611 319 q 451 321 500 321 l 269 310 l 265 129 q 275 69 265 85 q 314 54 285 54 l 363 58 l 365 53 l 356 -3 q 242 0 289 0 q 135 -4 196 0 q 72 -12 74 -8 l 79 44 q 149 73 131 54 q 167 138 167 92 l 168 483 l 67 483 l 57 493 l 65 539 q 168 538 110 538 l 168 579 q 160 626 168 614 q 126 638 151 638 l 89 636 l 85 642 l 93 694 q 222 692 178 692 l 357 701 l 351 644 q 292 622 304 638 q 276 538 283 610 l 467 538 q 613 539 563 538 l 613 579 q 604 626 613 614 q 571 638 596 638 l 532 636 l 529 642 l 538 694 q 657 692 538 692 l 801 701 l 797 644 q 740 628 754 639 q 722 540 722 611 l 811 543 l 826 529 l 821 486 l 719 486 m 611 485 l 275 485 l 271 385 l 451 383 q 611 393 525 383 l 611 485 z "},"Ĩ":{"ha":501,"x_min":31,"x_max":488,"o":"m 296 156 q 308 80 296 99 q 357 61 321 61 l 431 65 l 433 60 l 421 -4 q 256 0 304 0 q 78 -17 175 0 l 86 47 q 174 84 151 60 q 197 167 197 108 l 199 750 q 188 810 199 794 q 147 825 178 825 l 89 822 l 86 828 l 96 889 q 247 885 204 885 q 421 897 306 885 l 415 835 q 338 812 357 828 q 315 756 318 796 q 296 156 296 353 m 158 1174 q 263 1151 182 1174 q 359 1128 343 1128 q 397 1147 375 1128 q 449 1204 419 1167 l 457 1204 l 488 1175 l 488 1168 l 382 1044 l 360 1039 q 256 1062 336 1039 q 158 1085 175 1085 q 120 1066 142 1085 q 69 1008 99 1047 l 61 1008 l 31 1038 l 31 1044 l 136 1168 l 158 1174 z "},"ĩ":{"ha":443,"x_min":-1,"x_max":456,"o":"m 88 694 l 229 692 l 368 701 l 363 644 q 301 627 317 639 q 283 583 286 615 q 268 129 268 311 q 278 69 268 85 q 317 54 288 54 l 374 58 l 376 53 l 367 -3 q 225 0 265 0 q 74 -12 151 0 l 81 44 q 151 73 133 54 q 169 138 169 92 l 171 579 q 163 626 171 614 q 129 638 154 638 l 83 636 l 81 642 l 88 694 m 126 979 q 231 956 150 979 q 327 933 311 933 q 365 953 343 933 q 417 1010 388 972 l 425 1010 l 456 981 l 456 974 l 350 850 l 328 844 q 224 867 304 844 q 126 890 143 890 q 88 872 110 890 q 38 814 67 853 l 29 814 l -1 843 l -1 850 l 104 974 l 126 979 z "},"Ī":{"ha":501,"x_min":47,"x_max":463,"o":"m 296 156 q 308 80 296 99 q 357 61 321 61 l 431 65 l 433 60 l 421 -4 q 256 0 304 0 q 78 -17 175 0 l 86 47 q 174 84 151 60 q 197 167 197 108 l 199 750 q 188 810 199 794 q 147 825 178 825 l 89 822 l 86 828 l 96 889 q 247 885 204 885 q 421 897 306 885 l 415 835 q 338 812 357 828 q 315 756 318 796 q 296 156 296 353 m 454 1081 l 463 1067 l 453 1001 l 56 999 l 47 1011 l 61 1074 q 275 1072 193 1072 l 454 1081 z "},"ī":{"ha":443,"x_min":17,"x_max":432,"o":"m 88 694 l 229 692 l 368 701 l 363 644 q 301 627 317 639 q 283 583 286 615 q 268 129 268 311 q 278 69 268 85 q 317 54 288 54 l 374 58 l 376 53 l 367 -3 q 225 0 265 0 q 74 -12 151 0 l 81 44 q 151 73 133 54 q 169 138 169 92 l 171 579 q 163 626 171 614 q 129 638 154 638 l 83 636 l 81 642 l 88 694 m 424 886 l 432 872 l 422 807 l 25 804 l 17 817 l 31 879 q 244 878 163 878 l 424 886 z "},"Ĭ":{"ha":501,"x_min":78,"x_max":433,"o":"m 296 156 q 308 80 296 99 q 357 61 321 61 l 431 65 l 433 60 l 421 -4 q 256 0 304 0 q 78 -17 175 0 l 86 47 q 174 84 151 60 q 197 167 197 108 l 199 750 q 188 810 199 794 q 147 825 178 825 l 89 822 l 86 828 l 96 889 q 247 885 204 885 q 421 897 306 885 l 415 835 q 338 812 357 828 q 315 756 318 796 q 296 156 296 353 m 128 1190 q 260 1099 163 1099 q 394 1190 358 1099 l 406 1190 l 428 1176 q 369 1064 411 1110 q 261 1018 328 1018 q 153 1064 194 1018 q 94 1176 111 1110 l 117 1190 l 128 1190 z "},"ĭ":{"ha":443,"x_min":63,"x_max":396,"o":"m 88 694 l 229 692 l 368 701 l 363 644 q 301 627 317 639 q 283 583 286 615 q 268 129 268 311 q 278 69 268 85 q 317 54 288 54 l 374 58 l 376 53 l 367 -3 q 225 0 265 0 q 74 -12 151 0 l 81 44 q 151 73 133 54 q 169 138 169 92 l 171 579 q 163 626 171 614 q 129 638 154 638 l 83 636 l 81 642 l 88 694 m 96 996 q 230 904 132 904 q 363 996 328 904 l 374 996 l 396 982 q 338 869 379 915 q 229 824 296 824 q 121 869 163 824 q 63 982 79 915 l 85 996 l 96 996 z "},"Į":{"ha":501,"x_min":78,"x_max":457,"o":"m 318 -335 q 206 -300 249 -335 q 164 -212 164 -265 q 197 -112 164 -160 q 294 0 229 -65 l 239 0 q 78 -17 175 0 l 86 47 q 174 84 151 60 q 197 167 197 108 l 199 750 q 188 810 199 794 q 147 825 178 825 l 89 822 l 86 828 l 96 889 q 247 885 204 885 q 421 897 306 885 l 415 835 q 338 812 357 828 q 315 756 318 796 q 296 156 296 353 q 308 80 296 99 q 357 61 321 61 l 431 65 l 433 60 l 421 -4 q 354 -1 390 -3 q 274 -99 297 -61 q 251 -174 251 -137 q 274 -232 251 -211 q 325 -253 296 -253 q 439 -221 378 -253 l 457 -247 q 318 -335 389 -311 z "},"į":{"ha":443,"x_min":74,"x_max":414,"o":"m 88 694 l 229 692 l 368 701 l 363 644 q 301 627 317 639 q 283 583 286 615 q 268 129 268 311 q 276 72 268 88 q 307 54 285 56 l 311 58 l 369 58 l 368 57 l 374 58 l 376 53 l 367 -3 q 311 -1 340 -1 q 231 -99 254 -61 q 208 -174 208 -137 q 231 -232 208 -211 q 283 -253 253 -253 q 396 -221 335 -253 l 414 -247 q 275 -335 346 -311 q 163 -300 206 -335 q 121 -212 121 -265 q 153 -112 121 -160 q 251 0 186 -65 l 213 0 q 74 -12 151 0 l 81 44 q 151 73 133 54 q 169 138 169 92 l 171 579 q 163 626 171 614 q 129 638 154 638 l 83 636 l 81 642 l 88 694 z "},"İ":{"ha":501,"x_min":78,"x_max":433,"o":"m 296 156 q 308 80 296 99 q 357 61 321 61 l 431 65 l 433 60 l 421 -4 q 256 0 304 0 q 78 -17 175 0 l 86 47 q 174 84 151 60 q 197 167 197 108 l 199 750 q 188 810 199 794 q 147 825 178 825 l 89 822 l 86 828 l 96 889 q 247 885 204 885 q 421 897 306 885 l 415 835 q 338 812 357 828 q 315 756 318 796 q 296 156 296 353 m 331 1078 q 331 1063 331 1078 q 307 1023 331 1047 q 250 999 283 999 q 199 1019 217 999 q 181 1072 181 1040 q 204 1127 181 1103 q 261 1151 228 1151 q 313 1131 294 1151 q 331 1078 331 1110 z "},"ı":{"ha":443,"x_min":74,"x_max":376,"o":"m 88 694 l 229 692 l 368 701 l 363 644 q 301 627 317 639 q 283 583 286 615 q 268 129 268 311 q 278 69 268 85 q 317 54 288 54 l 374 58 l 376 53 l 367 -3 q 225 0 265 0 q 74 -12 151 0 l 81 44 q 151 73 133 54 q 169 138 169 92 l 171 579 q 163 626 171 614 q 129 638 154 638 l 83 636 l 81 642 l 88 694 z "},"Ĳ":{"ha":956,"x_min":78,"x_max":886,"o":"m 296 156 q 308 80 296 99 q 357 61 321 61 l 431 65 l 433 60 l 421 -4 q 256 0 304 0 q 78 -17 175 0 l 86 47 q 174 84 151 60 q 197 167 197 108 l 199 750 q 188 810 199 794 q 147 825 178 825 l 89 822 l 86 828 l 96 889 q 247 885 204 885 q 421 897 306 885 l 415 835 q 338 812 357 828 q 315 756 318 796 q 296 156 296 353 m 683 160 l 685 750 q 675 809 685 794 q 633 824 665 824 l 568 818 l 565 824 l 575 885 l 725 885 l 886 897 l 881 835 q 817 814 832 828 q 801 756 803 800 q 783 161 786 425 q 728 -66 782 19 q 557 -200 675 -151 l 533 -154 l 538 -143 q 653 -28 622 -92 q 683 160 683 35 z "},"ĳ":{"ha":817,"x_min":74,"x_max":842,"o":"m 88 694 l 229 692 l 368 701 l 363 644 q 301 627 317 639 q 283 583 286 615 q 268 129 268 311 q 278 69 268 85 q 317 54 288 54 l 374 58 l 376 53 l 367 -3 q 225 0 265 0 q 74 -12 151 0 l 81 44 q 151 73 133 54 q 169 138 169 92 l 171 579 q 163 626 171 614 q 129 638 154 638 l 83 636 l 81 642 l 88 694 m 658 128 l 660 579 q 651 625 660 614 q 618 636 643 636 l 567 633 l 563 639 l 571 692 l 699 692 l 842 701 l 836 644 q 786 628 797 639 q 772 583 775 617 q 758 135 758 260 q 710 -56 757 11 q 561 -160 664 -122 l 539 -121 l 542 -111 q 634 -20 610 -69 q 658 128 658 29 z "},"Ĵ":{"ha":454,"x_min":32,"x_max":443,"o":"m 182 160 l 183 750 q 174 809 183 794 q 132 824 164 824 l 67 818 l 64 824 l 74 885 l 224 885 l 385 897 l 379 835 q 317 814 331 828 q 300 756 303 800 q 282 161 285 425 q 227 -66 281 19 q 56 -200 174 -151 l 32 -154 l 36 -143 q 151 -28 121 -92 q 182 160 182 35 m 60 975 l 40 1006 q 232 1218 108 1076 l 251 1218 q 443 1006 353 1100 l 424 975 l 411 974 q 242 1108 381 1000 q 72 974 133 1028 l 60 975 z "},"ĵ":{"ha":406,"x_min":11,"x_max":414,"o":"m 157 128 l 158 579 q 150 625 158 614 q 117 636 142 636 l 65 633 l 61 639 l 69 692 l 197 692 l 340 701 l 335 644 q 285 628 296 639 q 271 583 274 617 q 256 135 257 260 q 209 -56 256 11 q 60 -160 163 -122 l 38 -121 l 40 -111 q 133 -20 108 -69 q 157 128 157 29 m 31 781 l 11 811 q 203 1024 79 882 l 222 1024 q 414 811 324 906 l 394 781 l 382 779 q 213 914 351 806 q 43 779 104 832 l 31 781 z "},"Ķ":{"ha":872,"x_min":79,"x_max":858,"o":"m 107 889 q 247 885 208 885 q 410 897 304 885 l 404 835 q 333 809 353 826 q 313 751 314 792 q 296 124 296 150 q 308 80 296 99 q 357 61 319 61 l 419 65 l 422 60 l 410 -4 q 239 0 300 0 l 79 -1 l 93 61 q 178 88 158 68 q 197 167 197 107 l 199 750 q 188 810 199 794 q 147 825 178 825 l 100 822 l 97 828 l 107 889 m 629 788 q 542 829 629 824 l 539 835 l 549 894 q 701 885 650 885 l 829 890 l 835 881 l 825 824 q 758 794 789 817 q 665 707 728 772 l 442 472 l 675 168 q 765 76 725 103 q 853 50 804 50 l 858 44 l 850 -3 q 735 -19 750 -19 q 579 100 665 -19 l 336 438 l 338 457 l 586 715 q 629 788 629 758 m 385 -129 q 465 -93 432 -93 q 519 -120 497 -93 q 540 -192 540 -147 q 488 -315 540 -260 q 363 -407 435 -369 l 338 -386 l 338 -372 q 409 -308 381 -346 q 438 -235 438 -269 q 382 -149 438 -182 l 385 -129 z "},"ķ":{"ha":754,"x_min":75,"x_max":729,"o":"m 281 581 q 268 103 268 124 q 278 69 268 83 q 317 54 288 54 l 365 58 l 368 53 l 358 -3 q 213 0 263 0 l 75 -1 l 86 54 q 154 75 139 60 q 169 138 169 90 l 171 579 q 163 626 171 614 q 129 638 154 638 l 92 636 l 88 642 l 96 694 q 229 692 189 692 l 360 701 l 356 644 q 297 624 313 638 q 281 581 282 611 m 528 607 q 460 640 528 636 l 457 646 l 465 699 q 594 692 551 692 l 707 696 l 713 688 l 704 638 q 647 609 674 629 q 568 536 619 589 l 401 371 l 582 140 q 653 69 622 90 q 724 47 685 49 l 729 40 l 722 -3 q 618 -15 632 -15 q 490 76 557 -15 l 299 342 l 300 360 l 494 553 q 528 607 528 583 m 328 -129 q 408 -93 375 -93 q 462 -120 440 -93 q 483 -192 483 -147 q 431 -315 483 -260 q 306 -407 378 -369 l 281 -386 l 281 -372 q 352 -308 324 -346 q 381 -235 381 -269 q 325 -149 381 -182 l 328 -129 z "},"ĸ":{"ha":754,"x_min":75,"x_max":729,"o":"m 281 581 q 268 103 268 124 q 278 69 268 83 q 317 54 288 54 l 365 58 l 368 53 l 358 -3 q 213 0 263 0 l 75 -1 l 86 54 q 154 75 139 60 q 169 138 169 90 l 171 579 q 163 626 171 614 q 129 638 154 638 l 92 636 l 88 642 l 96 694 q 229 692 189 692 l 360 701 l 356 644 q 297 624 313 638 q 281 581 282 611 m 528 607 q 460 640 528 636 l 457 646 l 465 699 q 594 692 551 692 l 707 696 l 713 688 l 704 638 q 647 609 674 629 q 568 536 619 589 l 401 371 l 582 140 q 653 69 622 90 q 724 47 685 49 l 729 40 l 722 -3 q 618 -15 632 -15 q 490 76 557 -15 l 299 342 l 300 360 l 494 553 q 528 607 528 583 z "},"Ĺ":{"ha":704,"x_min":94,"x_max":701,"o":"m 654 -12 q 324 0 413 0 q 94 -14 189 0 l 103 50 q 177 83 157 58 q 197 167 197 107 l 199 750 q 188 810 199 794 q 147 825 178 825 l 100 822 l 97 828 l 107 889 q 250 885 210 885 q 411 897 306 885 l 406 835 q 378 830 390 832 q 358 824 367 828 q 342 817 349 819 q 331 806 336 815 q 324 794 326 797 q 320 777 322 790 q 317 758 318 764 q 314 706 314 731 q 297 169 297 474 q 317 81 297 99 q 437 63 338 63 q 574 97 536 63 q 636 260 613 132 l 697 267 l 701 260 q 661 -4 676 133 l 654 -12 m 486 1093 l 481 1079 q 194 976 340 1032 l 183 983 l 175 1017 l 451 1168 l 464 1160 l 486 1093 z "},"ĺ":{"ha":614,"x_min":85,"x_max":597,"o":"m 96 694 l 231 692 l 365 701 l 360 643 q 292 613 301 636 q 277 483 286 601 q 268 138 268 364 q 284 74 268 88 q 376 60 300 60 q 483 88 453 60 q 532 218 514 115 l 593 225 l 597 217 q 565 -1 578 113 l 558 -10 q 286 0 363 0 q 85 -11 171 0 l 93 47 q 153 73 138 54 q 169 139 169 92 l 171 579 q 163 626 171 614 q 129 638 154 638 l 92 636 l 88 642 l 96 694 m 438 899 l 432 885 q 146 782 292 838 l 135 789 l 126 822 l 403 974 l 415 965 l 438 899 z "},"Ļ":{"ha":704,"x_min":94,"x_max":701,"o":"m 654 -12 q 324 0 413 0 q 94 -14 189 0 l 103 50 q 177 83 157 58 q 197 167 197 107 l 199 750 q 188 810 199 794 q 147 825 178 825 l 100 822 l 97 828 l 107 889 q 250 885 210 885 q 411 897 306 885 l 406 835 q 378 830 390 832 q 358 824 367 828 q 342 817 349 819 q 331 806 336 815 q 324 794 326 797 q 320 777 322 790 q 317 758 318 764 q 314 706 314 731 q 297 169 297 474 q 317 81 297 99 q 437 63 338 63 q 574 97 536 63 q 636 260 613 132 l 697 267 l 701 260 q 661 -4 676 133 l 654 -12 m 343 -129 q 423 -93 390 -93 q 477 -120 456 -93 q 499 -192 499 -147 q 446 -315 499 -260 q 321 -407 393 -369 l 296 -386 l 296 -372 q 367 -308 339 -346 q 396 -235 396 -269 q 340 -149 396 -182 l 343 -129 z "},"ļ":{"ha":614,"x_min":85,"x_max":597,"o":"m 96 694 l 231 692 l 365 701 l 360 643 q 292 613 301 636 q 277 483 286 601 q 268 138 268 364 q 284 74 268 88 q 376 60 300 60 q 483 88 453 60 q 532 218 514 115 l 593 225 l 597 217 q 565 -1 578 113 l 558 -10 q 286 0 363 0 q 85 -11 171 0 l 93 47 q 153 73 138 54 q 169 139 169 92 l 171 579 q 163 626 171 614 q 129 638 154 638 l 92 636 l 88 642 l 96 694 m 286 -129 q 366 -93 333 -93 q 420 -120 399 -93 q 442 -192 442 -147 q 389 -315 442 -260 q 264 -407 336 -369 l 239 -386 l 239 -372 q 310 -308 282 -346 q 339 -235 339 -269 q 283 -149 339 -182 l 286 -129 z "},"Ľ":{"ha":704,"x_min":94,"x_max":701,"o":"m 578 557 q 579 639 579 603 q 569 860 579 733 l 667 879 l 676 868 q 628 574 657 715 l 593 554 l 578 557 m 654 -12 q 324 0 413 0 q 94 -14 189 0 l 103 50 q 177 83 157 58 q 197 167 197 107 l 199 750 q 188 810 199 794 q 147 825 178 825 l 100 822 l 97 828 l 107 889 q 250 885 210 885 q 411 897 306 885 l 406 835 q 378 830 390 832 q 358 824 367 828 q 342 817 349 819 q 331 806 336 815 q 324 794 326 797 q 320 777 322 790 q 317 758 318 764 q 314 706 314 731 q 297 169 297 474 q 317 81 297 99 q 437 63 338 63 q 574 97 536 63 q 636 260 613 132 l 697 267 l 701 260 q 661 -4 676 133 l 654 -12 z "},"ľ":{"ha":656,"x_min":85,"x_max":597,"o":"m 492 433 q 493 497 493 469 q 485 672 493 564 l 574 688 l 582 679 q 540 447 565 560 l 506 431 l 492 433 m 96 694 l 231 692 l 365 701 l 360 643 q 292 613 301 636 q 277 483 286 601 q 268 138 268 364 q 284 74 268 88 q 376 60 300 60 q 483 88 453 60 q 532 218 514 115 l 593 225 l 597 217 q 565 -1 578 113 l 558 -10 q 286 0 363 0 q 85 -11 171 0 l 93 47 q 153 73 138 54 q 169 139 169 92 l 171 579 q 163 626 171 614 q 129 638 154 638 l 92 636 l 88 642 l 96 694 z "},"Ŀ":{"ha":740,"x_min":94,"x_max":701,"o":"m 654 -12 q 324 0 413 0 q 94 -14 189 0 l 103 50 q 177 83 157 58 q 197 167 197 107 l 199 750 q 188 810 199 794 q 147 825 178 825 l 100 822 l 97 828 l 107 889 q 250 885 210 885 q 411 897 306 885 l 406 835 q 378 830 390 832 q 358 824 367 828 q 342 817 349 819 q 331 806 336 815 q 324 794 326 797 q 320 777 322 790 q 317 758 318 764 q 314 706 314 731 q 297 169 297 474 q 317 81 297 99 q 437 63 338 63 q 574 97 536 63 q 636 260 613 132 l 697 267 l 701 260 q 661 -4 676 133 l 654 -12 m 693 617 q 693 599 693 617 q 669 557 693 582 q 606 532 644 532 q 548 555 568 532 q 528 613 528 578 q 551 672 528 647 q 613 697 575 697 q 672 674 651 697 q 693 617 693 651 z "},"ŀ":{"ha":681,"x_min":85,"x_max":603,"o":"m 96 694 l 231 692 l 365 701 l 360 643 q 292 613 301 636 q 277 483 286 601 q 268 138 268 364 q 284 74 268 88 q 376 60 300 60 q 483 88 453 60 q 532 218 514 115 l 593 225 l 597 217 q 565 -1 578 113 l 558 -10 q 286 0 363 0 q 85 -11 171 0 l 93 47 q 153 73 138 54 q 169 139 169 92 l 171 579 q 163 626 171 614 q 129 638 154 638 l 92 636 l 88 642 l 96 694 m 603 450 q 603 433 603 450 q 578 390 603 415 q 516 365 554 365 q 458 388 478 365 q 438 446 438 411 q 461 506 438 481 q 523 531 485 531 q 582 508 561 531 q 603 450 603 485 z "},"Ł":{"ha":765,"x_min":85,"x_max":701,"o":"m 654 -12 q 324 0 413 0 q 94 -14 189 0 l 103 50 q 177 83 157 58 q 197 167 197 107 l 197 404 l 104 358 l 92 363 l 85 407 l 197 463 l 199 750 q 188 810 199 794 q 147 825 178 825 l 100 822 l 97 828 l 107 889 q 250 885 210 885 q 411 897 306 885 l 406 835 q 378 830 390 832 q 358 824 367 828 q 342 817 349 819 q 331 806 336 815 q 324 794 326 797 q 320 777 322 790 q 317 758 318 764 q 303 507 313 722 l 553 631 l 564 624 l 571 581 l 301 447 q 297 169 297 340 q 317 81 297 99 q 437 63 338 63 q 574 97 536 63 q 636 260 613 132 l 697 267 l 701 260 q 661 -4 676 133 l 654 -12 z "},"ł":{"ha":631,"x_min":94,"x_max":614,"o":"m 113 694 l 247 692 l 382 701 l 376 643 q 308 613 318 636 q 290 404 294 583 l 483 496 l 493 490 l 503 446 l 288 346 q 285 138 285 269 q 301 74 285 88 q 393 60 317 60 q 500 88 469 60 q 549 218 531 115 l 610 225 l 614 217 q 582 -1 594 113 l 575 -10 q 303 0 379 0 q 101 -11 188 0 l 110 47 q 170 73 154 54 q 186 139 186 92 l 186 307 l 114 272 l 103 275 l 94 319 l 186 364 l 188 579 q 179 626 188 614 q 146 638 171 638 l 108 636 l 104 642 l 113 694 z "},"Ń":{"ha":999,"x_min":75,"x_max":953,"o":"m 772 201 l 772 764 q 726 824 772 824 l 674 822 l 671 828 l 683 890 q 806 885 768 885 q 953 896 867 885 l 946 832 q 875 805 897 825 q 851 744 853 785 l 832 -36 l 792 -56 q 275 710 540 335 l 268 710 l 261 117 q 271 74 261 86 q 304 61 281 61 l 375 63 l 378 57 l 365 -6 q 236 0 278 0 q 89 -11 169 0 l 96 53 q 182 140 181 63 l 200 747 q 174 808 200 790 q 79 833 149 826 l 75 840 l 86 892 q 206 885 167 885 l 299 890 q 765 201 504 571 l 772 201 m 738 1093 l 732 1079 q 446 976 592 1032 l 435 983 l 426 1017 l 703 1168 l 715 1160 l 738 1093 z "},"ń":{"ha":853,"x_min":71,"x_max":804,"o":"m 603 636 l 561 636 l 558 642 l 568 696 q 686 692 644 692 l 804 700 l 799 643 q 722 574 724 633 l 706 -24 l 651 -39 q 250 521 438 272 l 243 521 l 239 100 q 247 64 239 74 q 275 54 256 54 l 331 56 l 335 51 l 324 -4 q 197 0 246 0 l 82 -8 l 89 49 q 158 117 157 57 l 174 575 q 153 623 174 610 q 76 643 133 636 l 71 650 l 81 697 q 186 692 149 692 l 271 696 q 635 189 439 449 l 642 189 l 640 590 q 603 636 640 636 m 646 899 l 640 885 q 354 782 500 838 l 343 789 l 335 822 l 611 974 l 624 965 l 646 899 z "},"Ņ":{"ha":999,"x_min":75,"x_max":953,"o":"m 772 201 l 772 764 q 726 824 772 824 l 674 822 l 671 828 l 683 890 q 806 885 768 885 q 953 896 867 885 l 946 832 q 875 805 897 825 q 851 744 853 785 l 832 -36 l 792 -56 q 275 710 540 335 l 268 710 l 261 117 q 271 74 261 86 q 304 61 281 61 l 375 63 l 378 57 l 365 -6 q 236 0 278 0 q 89 -11 169 0 l 96 53 q 182 140 181 63 l 200 747 q 174 808 200 790 q 79 833 149 826 l 75 840 l 86 892 q 206 885 167 885 l 299 890 q 765 201 504 571 l 772 201 m 435 -129 q 515 -93 482 -93 q 569 -120 547 -93 q 590 -192 590 -147 q 538 -315 590 -260 q 413 -407 485 -369 l 388 -386 l 388 -372 q 459 -308 431 -346 q 488 -235 488 -269 q 432 -149 488 -182 l 435 -129 z "},"ņ":{"ha":853,"x_min":71,"x_max":804,"o":"m 603 636 l 561 636 l 558 642 l 568 696 q 686 692 644 692 l 804 700 l 799 643 q 722 574 724 633 l 706 -24 l 651 -39 q 250 521 438 272 l 243 521 l 239 100 q 247 64 239 74 q 275 54 256 54 l 331 56 l 335 51 l 324 -4 q 197 0 246 0 l 82 -8 l 89 49 q 158 117 157 57 l 174 575 q 153 623 174 610 q 76 643 133 636 l 71 650 l 81 697 q 186 692 149 692 l 271 696 q 635 189 439 449 l 642 189 l 640 590 q 603 636 640 636 m 365 -129 q 445 -93 413 -93 q 499 -120 478 -93 q 521 -192 521 -147 q 468 -315 521 -260 q 343 -407 415 -369 l 318 -386 l 318 -372 q 390 -308 361 -346 q 418 -235 418 -269 q 363 -149 418 -182 l 365 -129 z "},"Ň":{"ha":999,"x_min":75,"x_max":953,"o":"m 772 201 l 772 764 q 726 824 772 824 l 674 822 l 671 828 l 683 890 q 806 885 768 885 q 953 896 867 885 l 946 832 q 875 805 897 825 q 851 744 853 785 l 832 -36 l 792 -56 q 275 710 540 335 l 268 710 l 261 117 q 271 74 261 86 q 304 61 281 61 l 375 63 l 378 57 l 365 -6 q 236 0 278 0 q 89 -11 169 0 l 96 53 q 182 140 181 63 l 200 747 q 174 808 200 790 q 79 833 149 826 l 75 840 l 86 892 q 206 885 167 885 l 299 890 q 765 201 504 571 l 772 201 m 697 1163 l 717 1132 l 525 978 l 506 978 q 314 1132 404 1064 l 333 1163 l 346 1164 q 515 1074 439 1110 q 685 1164 588 1107 l 697 1163 z "},"ň":{"ha":853,"x_min":71,"x_max":804,"o":"m 603 636 l 561 636 l 558 642 l 568 696 q 686 692 644 692 l 804 700 l 799 643 q 722 574 724 633 l 706 -24 l 651 -39 q 250 521 438 272 l 243 521 l 239 100 q 247 64 239 74 q 275 54 256 54 l 331 56 l 335 51 l 324 -4 q 197 0 246 0 l 82 -8 l 89 49 q 158 117 157 57 l 174 575 q 153 623 174 610 q 76 643 133 636 l 71 650 l 81 697 q 186 692 149 692 l 271 696 q 635 189 439 449 l 642 189 l 640 590 q 603 636 640 636 m 621 968 l 640 938 l 449 783 l 429 783 q 238 938 328 869 l 257 968 l 269 969 q 439 879 363 915 q 608 969 511 913 l 621 968 z "},"Ŋ":{"ha":999,"x_min":75,"x_max":953,"o":"m 772 201 l 772 764 q 726 824 772 824 l 674 822 l 671 828 l 683 890 q 806 885 769 885 q 953 896 867 885 l 946 832 q 874 806 896 826 q 851 744 853 785 l 839 119 q 783 -93 835 -15 q 613 -214 731 -171 l 589 -168 l 593 -157 q 749 11 721 -100 q 275 710 553 314 l 268 710 l 261 117 q 271 74 261 86 q 304 61 281 61 l 374 64 l 378 58 l 365 -6 q 231 0 275 0 q 89 -11 161 0 l 96 53 q 163 81 144 57 q 183 172 181 106 l 200 747 q 176 806 200 788 q 79 833 151 824 l 75 840 l 86 892 q 199 885 169 885 l 299 890 q 765 201 474 615 l 772 201 z "},"ŋ":{"ha":851,"x_min":72,"x_max":803,"o":"m 642 186 l 642 590 q 604 638 642 638 l 561 636 l 558 642 l 568 696 q 686 692 649 692 l 803 700 l 797 643 q 740 622 757 638 q 721 575 722 607 l 711 93 q 663 -74 708 -12 q 515 -169 617 -135 l 493 -132 l 497 -122 q 621 7 597 -75 q 250 524 468 226 l 243 524 l 239 99 q 247 64 239 74 q 275 54 254 54 l 329 57 l 333 51 l 324 -4 q 186 0 244 0 l 83 -8 l 89 47 q 143 70 128 51 q 160 138 158 89 l 174 576 q 154 622 174 608 q 76 643 135 636 l 72 650 l 81 697 q 182 692 153 692 l 271 696 q 635 186 399 503 l 642 186 z "},"Ō":{"ha":961,"x_min":56,"x_max":906,"o":"m 175 449 q 175 364 175 449 q 261 167 175 279 q 481 54 347 54 q 699 155 615 54 q 782 424 782 256 q 694 706 782 593 q 471 818 606 818 q 256 718 336 818 q 175 449 175 618 m 440 -17 q 163 103 269 -17 q 56 420 56 222 q 188 760 56 618 q 503 901 319 901 q 796 782 686 901 q 906 465 906 663 q 772 125 906 267 q 440 -17 638 -17 m 674 1081 l 682 1067 l 672 1001 l 275 999 l 267 1011 l 281 1074 q 494 1072 413 1072 l 674 1081 z "},"ō":{"ha":813,"x_min":57,"x_max":756,"o":"m 175 352 q 175 287 175 352 q 240 138 175 222 q 408 54 304 54 q 574 127 511 54 q 636 330 636 200 q 569 543 636 460 q 399 626 503 626 q 235 554 296 626 q 175 352 175 482 m 756 363 q 756 284 756 363 q 647 97 756 206 q 386 -12 539 -12 q 145 80 233 -12 q 57 330 57 172 q 164 596 57 488 q 424 704 271 704 q 667 613 578 704 q 756 363 756 521 m 615 886 l 624 872 l 614 807 l 217 804 l 208 817 l 222 879 q 436 878 354 878 l 615 886 z "},"Ŏ":{"ha":961,"x_min":56,"x_max":906,"o":"m 175 449 q 175 364 175 449 q 261 167 175 279 q 481 54 347 54 q 699 155 615 54 q 782 424 782 256 q 694 706 782 593 q 471 818 606 818 q 256 718 336 818 q 175 449 175 618 m 440 -17 q 163 103 269 -17 q 56 420 56 222 q 188 760 56 618 q 503 901 319 901 q 796 782 686 901 q 906 465 906 663 q 772 125 906 267 q 440 -17 638 -17 m 318 1190 q 451 1099 353 1099 q 585 1190 550 1099 l 596 1190 l 618 1176 q 560 1064 601 1110 q 451 1018 518 1018 q 343 1064 385 1018 q 285 1176 301 1110 l 307 1190 l 318 1190 z "},"ŏ":{"ha":813,"x_min":57,"x_max":756,"o":"m 175 352 q 175 287 175 352 q 240 138 175 222 q 408 54 304 54 q 574 127 511 54 q 636 330 636 200 q 569 543 636 460 q 399 626 503 626 q 235 554 296 626 q 175 352 175 482 m 756 363 q 756 284 756 363 q 647 97 756 206 q 386 -12 539 -12 q 145 80 233 -12 q 57 330 57 172 q 164 596 57 488 q 424 704 271 704 q 667 613 578 704 q 756 363 756 521 m 265 996 q 399 904 301 904 q 532 996 497 904 l 543 996 l 565 982 q 507 869 549 915 q 399 824 465 824 q 290 869 332 824 q 232 982 249 915 l 254 996 l 265 996 z "},"Ő":{"ha":961,"x_min":56,"x_max":906,"o":"m 175 449 q 175 364 175 449 q 261 167 175 279 q 481 54 347 54 q 699 155 615 54 q 782 424 782 256 q 694 706 782 593 q 471 818 606 818 q 256 718 336 818 q 175 449 175 618 m 440 -17 q 163 103 269 -17 q 56 420 56 222 q 188 760 56 618 q 503 901 319 901 q 796 782 686 901 q 906 465 906 663 q 772 125 906 267 q 440 -17 638 -17 m 597 1097 l 593 1085 q 365 964 482 1029 l 354 971 l 342 1000 l 554 1163 l 567 1157 l 597 1097 m 792 1085 l 788 1072 q 560 951 676 1017 l 550 957 l 536 986 l 749 1150 l 761 1143 l 792 1085 z "},"ő":{"ha":813,"x_min":57,"x_max":756,"o":"m 175 352 q 175 287 175 352 q 240 138 175 222 q 408 54 304 54 q 574 127 511 54 q 636 330 636 200 q 569 543 636 460 q 399 626 503 626 q 235 554 296 626 q 175 352 175 482 m 756 363 q 756 284 756 363 q 647 97 756 206 q 386 -12 539 -12 q 145 80 233 -12 q 57 330 57 172 q 164 596 57 488 q 424 704 271 704 q 667 613 578 704 q 756 363 756 521 m 500 903 l 496 890 q 268 769 385 835 l 257 776 l 244 806 l 457 968 l 469 963 l 500 903 m 694 890 l 690 878 q 463 757 579 822 l 453 763 l 439 792 l 651 956 l 664 949 l 694 890 z "},"Œ":{"ha":1338,"x_min":57,"x_max":1253,"o":"m 810 146 q 827 76 810 89 q 940 63 844 63 q 1085 74 1036 63 q 1155 119 1133 86 q 1188 232 1176 151 l 1249 239 l 1253 232 q 1215 -1 1228 117 l 1208 -10 q 813 1 917 1 q 592 -8 708 1 q 432 -17 475 -17 q 162 103 267 -17 q 57 421 57 224 q 186 760 57 618 q 504 901 315 901 q 649 892 549 901 q 808 882 749 882 q 1231 901 1090 882 l 1235 893 q 1203 663 1211 790 l 1136 657 q 1139 717 1139 697 q 1106 800 1139 785 q 965 815 1072 815 q 844 808 857 815 q 828 761 831 800 l 817 492 l 961 490 l 1131 506 l 1136 499 l 1117 417 q 922 421 997 421 l 814 411 l 810 146 m 176 449 q 176 364 176 449 q 259 167 176 279 q 476 56 342 56 q 665 108 610 56 q 722 289 719 161 l 724 649 q 672 786 724 751 q 481 821 621 821 q 258 719 340 821 q 176 449 176 618 z "},"œ":{"ha":1121,"x_min":58,"x_max":1042,"o":"m 681 125 q 694 70 681 81 q 783 60 708 60 q 895 69 857 60 q 950 103 933 78 q 976 190 967 128 l 1038 196 l 1042 189 q 1011 0 1022 97 l 1004 -7 q 682 1 771 1 q 499 -6 593 1 q 371 -12 406 -12 q 144 80 231 -12 q 58 330 58 172 q 163 595 58 488 q 425 703 267 703 q 544 696 461 703 q 763 689 628 689 q 1025 704 899 689 l 1029 697 q 1003 511 1010 611 l 936 506 q 939 551 939 536 q 912 615 939 603 q 802 626 885 626 q 708 620 719 626 q 696 586 697 614 l 688 389 l 803 388 l 940 399 l 946 392 l 929 319 q 772 322 833 322 l 685 315 l 681 125 m 175 352 q 175 286 175 352 q 237 138 175 221 q 402 54 299 54 q 548 92 506 54 q 592 224 590 131 l 593 501 q 553 603 593 576 q 406 629 513 629 q 237 556 299 629 q 175 352 175 483 z "},"Ŕ":{"ha":849,"x_min":79,"x_max":838,"o":"m 432 890 q 636 832 561 890 q 711 681 711 774 q 507 406 711 499 l 660 164 q 738 72 700 97 q 832 46 776 46 l 838 40 l 829 -7 l 711 -22 q 637 13 676 -22 q 564 110 597 49 l 415 379 l 300 379 l 296 172 q 313 78 296 97 q 396 58 329 58 l 399 53 l 386 -6 q 239 -1 386 -4 l 79 -6 l 92 57 q 177 85 157 64 q 197 167 197 107 l 199 750 q 188 810 199 794 q 147 825 178 825 l 100 822 l 97 828 l 107 889 q 261 885 208 885 l 432 890 m 596 647 q 342 831 596 831 q 323 824 328 831 q 317 799 318 818 q 303 457 304 586 l 446 443 q 544 504 497 456 q 580 563 564 525 q 596 647 596 601 m 646 1093 l 640 1079 q 354 976 500 1032 l 343 983 l 335 1017 l 611 1168 l 624 1160 l 646 1093 z "},"ŕ":{"ha":735,"x_min":75,"x_max":713,"o":"m 375 696 q 551 649 488 696 q 615 531 615 603 q 451 314 615 388 l 569 136 q 633 65 603 86 q 707 44 664 44 l 713 38 l 706 -6 l 599 -17 q 478 85 533 -17 l 361 289 l 271 289 l 268 140 q 281 69 268 83 q 350 53 294 54 l 353 49 l 342 -4 q 214 -1 342 -1 l 75 -6 l 85 51 q 153 75 136 58 q 169 138 169 92 l 171 581 q 163 626 171 614 q 131 638 154 638 l 92 636 l 88 642 l 96 694 q 226 692 183 692 l 375 696 m 386 350 q 503 501 503 397 q 304 636 503 636 q 285 611 285 636 q 274 361 274 442 l 386 350 m 574 899 l 568 885 q 282 782 428 838 l 271 789 l 263 822 l 539 974 l 551 965 l 574 899 z "},"Ŗ":{"ha":849,"x_min":79,"x_max":838,"o":"m 432 890 q 636 832 561 890 q 711 681 711 774 q 507 406 711 499 l 660 164 q 738 72 700 97 q 832 46 776 46 l 838 40 l 829 -7 l 711 -22 q 637 13 676 -22 q 564 110 597 49 l 415 379 l 300 379 l 296 172 q 313 78 296 97 q 396 58 329 58 l 399 53 l 386 -6 q 239 -1 386 -4 l 79 -6 l 92 57 q 177 85 157 64 q 197 167 197 107 l 199 750 q 188 810 199 794 q 147 825 178 825 l 100 822 l 97 828 l 107 889 q 261 885 208 885 l 432 890 m 596 647 q 342 831 596 831 q 323 824 328 831 q 317 799 318 818 q 303 457 304 586 l 446 443 q 544 504 497 456 q 580 563 564 525 q 596 647 596 601 m 371 -129 q 451 -93 418 -93 q 505 -120 483 -93 q 526 -192 526 -147 q 474 -315 526 -260 q 349 -407 421 -369 l 324 -386 l 324 -372 q 395 -308 367 -346 q 424 -235 424 -269 q 368 -149 424 -182 l 371 -129 z "},"ŗ":{"ha":735,"x_min":75,"x_max":713,"o":"m 375 696 q 551 649 488 696 q 615 531 615 603 q 451 314 615 388 l 569 136 q 633 65 603 86 q 707 44 664 44 l 713 38 l 706 -6 l 599 -17 q 478 85 533 -17 l 361 289 l 271 289 l 268 140 q 281 69 268 83 q 350 53 294 54 l 353 49 l 342 -4 q 214 -1 342 -1 l 75 -6 l 85 51 q 153 75 136 58 q 169 138 169 92 l 171 581 q 163 626 171 614 q 131 638 154 638 l 92 636 l 88 642 l 96 694 q 226 692 183 692 l 375 696 m 386 350 q 503 501 503 397 q 304 636 503 636 q 285 611 285 636 q 274 361 274 442 l 386 350 m 315 -129 q 395 -93 363 -93 q 449 -120 428 -93 q 471 -192 471 -147 q 418 -315 471 -260 q 293 -407 365 -369 l 268 -386 l 268 -372 q 340 -308 311 -346 q 368 -235 368 -269 q 313 -149 368 -182 l 315 -129 z "},"Ř":{"ha":849,"x_min":79,"x_max":838,"o":"m 432 890 q 636 832 561 890 q 711 681 711 774 q 507 406 711 499 l 660 164 q 738 72 700 97 q 832 46 776 46 l 838 40 l 829 -7 l 711 -22 q 637 13 676 -22 q 564 110 597 49 l 415 379 l 300 379 l 296 172 q 313 78 296 97 q 396 58 329 58 l 399 53 l 386 -6 q 239 -1 386 -4 l 79 -6 l 92 57 q 177 85 157 64 q 197 167 197 107 l 199 750 q 188 810 199 794 q 147 825 178 825 l 100 822 l 97 828 l 107 889 q 261 885 208 885 l 432 890 m 596 647 q 342 831 596 831 q 323 824 328 831 q 317 799 318 818 q 303 457 304 586 l 446 443 q 544 504 497 456 q 580 563 564 525 q 596 647 596 601 m 606 1163 l 625 1132 l 433 978 l 414 978 q 222 1132 313 1064 l 242 1163 l 254 1164 q 424 1074 347 1110 q 593 1164 496 1107 l 606 1163 z "},"ř":{"ha":735,"x_min":75,"x_max":713,"o":"m 375 696 q 551 649 488 696 q 615 531 615 603 q 451 314 615 388 l 569 136 q 633 65 603 86 q 707 44 664 44 l 713 38 l 706 -6 l 599 -17 q 478 85 533 -17 l 361 289 l 271 289 l 268 140 q 281 69 268 83 q 350 53 294 54 l 353 49 l 342 -4 q 214 -1 342 -1 l 75 -6 l 85 51 q 153 75 136 58 q 169 138 169 92 l 171 581 q 163 626 171 614 q 131 638 154 638 l 92 636 l 88 642 l 96 694 q 226 692 183 692 l 375 696 m 386 350 q 503 501 503 397 q 304 636 503 636 q 285 611 285 636 q 274 361 274 442 l 386 350 m 549 968 l 568 938 l 376 783 l 357 783 q 165 938 256 869 l 185 968 l 197 969 q 367 879 290 915 q 536 969 439 913 l 549 968 z "},"Ś":{"ha":736,"x_min":79,"x_max":647,"o":"m 304 -17 q 192 -5 246 -17 q 86 31 138 7 l 79 44 q 96 286 96 151 l 158 293 q 192 97 158 143 q 326 51 226 51 q 479 92 426 51 q 532 204 532 133 q 469 313 532 265 q 378 371 424 347 q 330 395 332 394 q 326 397 328 396 q 296 413 324 399 q 237 447 268 428 q 168 497 206 465 q 94 643 94 558 q 187 827 94 753 q 414 901 279 901 q 626 867 519 901 l 631 858 q 600 624 608 751 l 546 618 l 538 625 q 542 697 542 654 q 506 799 542 771 q 385 826 469 826 q 251 788 300 826 q 201 694 201 750 q 249 597 201 638 q 413 496 297 556 q 572 397 528 436 q 647 254 647 333 q 551 59 647 135 q 304 -17 456 -17 m 586 1093 l 581 1079 q 294 976 440 1032 l 283 983 l 275 1017 l 551 1168 l 564 1160 l 586 1093 z "},"ś":{"ha":638,"x_min":74,"x_max":556,"o":"m 265 -12 q 170 -3 217 -12 q 81 25 124 6 l 74 38 q 89 225 89 125 l 151 231 q 179 88 151 122 q 283 54 207 54 q 401 83 360 54 q 442 161 442 113 q 392 242 442 207 q 347 269 363 261 q 268 308 308 288 q 201 343 228 328 q 144 382 175 358 q 86 499 86 429 q 164 646 86 588 q 358 704 242 704 q 538 678 456 704 l 543 668 q 517 485 524 583 l 463 479 l 454 485 q 457 547 457 506 q 428 610 457 589 q 335 632 400 632 q 231 605 269 632 q 193 536 193 578 q 231 465 193 494 q 329 408 269 436 q 408 370 389 379 q 461 340 426 361 q 511 300 496 318 q 556 200 556 253 q 475 47 556 106 q 265 -12 394 -12 m 522 899 l 517 885 q 231 782 376 838 l 219 789 l 211 822 l 488 974 l 500 965 l 522 899 z "},"Ŝ":{"ha":736,"x_min":79,"x_max":647,"o":"m 225 975 l 206 1006 q 397 1218 274 1076 l 417 1218 q 608 1006 518 1100 l 589 975 l 576 974 q 407 1108 546 1000 q 238 974 299 1028 l 225 975 m 304 -17 q 192 -5 246 -17 q 86 31 138 7 l 79 44 q 96 286 96 151 l 158 293 q 192 97 158 143 q 326 51 226 51 q 479 92 426 51 q 532 204 532 133 q 469 313 532 265 q 378 371 424 347 q 330 395 332 394 q 326 397 328 396 q 296 413 324 399 q 237 447 268 428 q 168 497 206 465 q 94 643 94 558 q 187 827 94 753 q 414 901 279 901 q 626 867 519 901 l 631 858 q 600 624 608 751 l 546 618 l 538 625 q 542 697 542 654 q 506 799 542 771 q 385 826 469 826 q 251 788 300 826 q 201 694 201 750 q 249 597 201 638 q 413 496 297 556 q 572 397 528 436 q 647 254 647 333 q 551 59 647 135 q 304 -17 456 -17 z "},"ŝ":{"ha":638,"x_min":74,"x_max":556,"o":"m 265 -12 q 170 -3 217 -12 q 81 25 124 6 l 74 38 q 89 225 89 125 l 151 231 q 179 88 151 122 q 283 54 207 54 q 401 83 360 54 q 442 161 442 113 q 392 242 442 207 q 347 269 363 261 q 268 308 308 288 q 201 343 228 328 q 144 382 175 358 q 86 499 86 429 q 164 646 86 588 q 358 704 242 704 q 538 678 456 704 l 543 668 q 517 485 524 583 l 463 479 l 454 485 q 457 547 457 506 q 428 610 457 589 q 335 632 400 632 q 231 605 269 632 q 193 536 193 578 q 231 465 193 494 q 329 408 269 436 q 408 370 389 379 q 461 340 426 361 q 511 300 496 318 q 556 200 556 253 q 475 47 556 106 q 265 -12 394 -12 m 167 781 l 147 811 q 339 1024 215 882 l 358 1024 q 550 811 460 906 l 531 781 l 518 779 q 349 914 488 806 q 179 779 240 832 l 167 781 z "},"Ş":{"ha":736,"x_min":79,"x_max":647,"o":"m 304 -17 q 192 -5 246 -17 q 86 31 138 7 l 79 44 q 96 286 96 151 l 158 293 q 192 97 158 143 q 326 51 226 51 q 479 92 426 51 q 532 204 532 133 q 469 313 532 265 q 378 371 424 347 q 330 395 332 394 q 326 397 328 396 q 296 413 324 399 q 237 447 268 428 q 168 497 206 465 q 94 643 94 558 q 187 827 94 753 q 414 901 279 901 q 626 867 519 901 l 631 858 q 600 624 608 751 l 546 618 l 538 625 q 542 697 542 654 q 506 799 542 771 q 385 826 469 826 q 251 788 300 826 q 201 694 201 750 q 249 597 201 638 q 413 496 297 556 q 572 397 528 436 q 647 254 647 333 q 572 78 647 150 q 375 -11 497 6 l 356 -69 q 380 -86 361 -74 q 408 -105 399 -99 q 431 -124 417 -111 q 453 -146 446 -136 q 474 -193 474 -171 q 420 -285 474 -246 q 319 -324 367 -324 q 242 -310 272 -324 q 213 -274 213 -296 q 247 -196 213 -251 l 260 -196 q 282 -254 261 -233 q 333 -275 303 -275 q 383 -260 364 -275 q 403 -222 403 -246 q 285 -118 403 -186 l 315 -17 l 304 -17 z "},"ş":{"ha":638,"x_min":74,"x_max":556,"o":"m 265 -12 q 170 -3 217 -12 q 81 25 124 6 l 74 38 q 89 225 89 125 l 151 231 q 179 88 151 122 q 283 54 207 54 q 401 83 360 54 q 442 161 442 113 q 392 242 442 207 q 347 269 363 261 q 268 308 308 288 q 201 343 228 328 q 144 382 175 358 q 86 499 86 429 q 164 646 86 588 q 358 704 242 704 q 538 678 456 704 l 543 668 q 517 485 524 583 l 463 479 l 454 485 q 457 547 457 506 q 428 610 457 589 q 335 632 400 632 q 231 605 269 632 q 193 536 193 578 q 231 465 193 494 q 329 408 269 436 q 408 370 389 379 q 461 340 426 361 q 511 300 496 318 q 556 200 556 253 q 495 64 556 119 q 333 -7 435 8 l 313 -69 q 337 -86 318 -74 q 365 -105 356 -99 q 388 -124 374 -111 q 411 -146 403 -136 q 431 -193 431 -171 q 377 -285 431 -246 q 276 -324 324 -324 q 199 -310 229 -324 q 169 -274 169 -296 q 204 -196 169 -251 l 217 -196 q 238 -254 218 -233 q 290 -275 258 -275 q 340 -260 321 -275 q 360 -222 360 -246 q 242 -118 360 -186 l 274 -12 l 265 -12 z "},"Š":{"ha":736,"x_min":79,"x_max":647,"o":"m 304 -17 q 192 -5 246 -17 q 86 31 138 7 l 79 44 q 96 286 96 151 l 158 293 q 192 97 158 143 q 326 51 226 51 q 479 92 426 51 q 532 204 532 133 q 469 313 532 265 q 378 371 424 347 q 330 395 332 394 q 326 397 328 396 q 296 413 324 399 q 237 447 268 428 q 168 497 206 465 q 94 643 94 558 q 187 827 94 753 q 414 901 279 901 q 626 867 519 901 l 631 858 q 600 624 608 751 l 546 618 l 538 625 q 542 697 542 654 q 506 799 542 771 q 385 826 469 826 q 251 788 300 826 q 201 694 201 750 q 249 597 201 638 q 413 496 297 556 q 572 397 528 436 q 647 254 647 333 q 551 59 647 135 q 304 -17 456 -17 m 546 1163 l 565 1132 l 374 978 l 354 978 q 163 1132 253 1064 l 182 1163 l 194 1164 q 364 1074 288 1110 q 533 1164 436 1107 l 546 1163 z "},"š":{"ha":638,"x_min":74,"x_max":556,"o":"m 265 -12 q 170 -3 217 -12 q 81 25 124 6 l 74 38 q 89 225 89 125 l 151 231 q 179 88 151 122 q 283 54 207 54 q 401 83 360 54 q 442 161 442 113 q 392 242 442 207 q 347 269 363 261 q 268 308 308 288 q 201 343 228 328 q 144 382 175 358 q 86 499 86 429 q 164 646 86 588 q 358 704 242 704 q 538 678 456 704 l 543 668 q 517 485 524 583 l 463 479 l 454 485 q 457 547 457 506 q 428 610 457 589 q 335 632 400 632 q 231 605 269 632 q 193 536 193 578 q 231 465 193 494 q 329 408 269 436 q 408 370 389 379 q 461 340 426 361 q 511 300 496 318 q 556 200 556 253 q 475 47 556 106 q 265 -12 394 -12 m 499 968 l 518 938 l 326 783 l 307 783 q 115 938 206 869 l 135 968 l 147 969 q 317 879 240 915 q 486 969 389 913 l 499 968 z "},"Ţ":{"ha":758,"x_min":13,"x_max":743,"o":"m 324 225 l 324 831 q 230 826 258 828 q 169 817 201 825 q 127 801 136 808 q 105 770 118 794 q 88 725 92 746 q 78 656 85 704 l 13 650 q 33 890 29 772 l 46 901 l 161 886 l 592 886 l 710 901 l 722 890 q 743 656 725 800 l 678 650 q 665 721 669 699 q 649 768 661 743 q 626 800 636 793 q 587 816 617 807 q 529 826 557 825 q 443 831 501 828 q 421 156 421 608 q 439 83 421 104 q 500 61 457 61 l 576 65 l 581 60 l 568 -4 q 410 0 478 -1 l 386 -69 q 410 -86 392 -74 q 438 -105 429 -99 q 462 -124 447 -111 q 483 -146 476 -136 q 504 -193 504 -171 q 451 -285 504 -246 q 350 -324 397 -324 q 273 -310 303 -324 q 243 -274 243 -296 q 278 -196 243 -251 l 290 -196 q 313 -254 292 -233 q 364 -275 333 -275 q 414 -260 394 -275 q 433 -222 433 -246 q 315 -118 433 -186 l 351 0 l 174 -6 l 185 54 q 303 88 282 63 q 324 225 324 114 z "},"ţ":{"ha":658,"x_min":24,"x_max":632,"o":"m 276 176 l 276 636 q 136 617 165 632 q 89 497 104 601 l 24 493 q 40 694 38 599 l 51 704 l 150 693 l 504 693 l 606 704 l 617 694 q 632 497 619 593 l 568 493 q 558 552 563 531 q 542 591 554 574 q 524 615 531 608 q 492 628 518 622 q 390 636 463 633 q 372 129 372 468 q 388 72 372 89 q 438 56 403 56 l 499 58 l 503 54 l 493 -4 q 364 0 421 -1 l 340 -69 q 365 -86 346 -74 q 392 -105 383 -99 q 416 -124 401 -111 q 439 -146 431 -136 q 458 -193 458 -171 q 405 -285 458 -246 q 304 -324 351 -324 q 227 -310 257 -324 q 197 -274 197 -296 q 232 -196 197 -251 l 244 -196 q 266 -254 246 -233 q 317 -275 286 -275 q 368 -260 349 -275 q 388 -222 388 -246 q 269 -118 388 -186 l 306 0 l 153 -6 l 163 50 q 259 76 242 56 q 276 176 276 97 z "},"Ť":{"ha":758,"x_min":13,"x_max":743,"o":"m 324 225 l 324 831 q 230 826 258 828 q 169 817 201 825 q 127 801 136 808 q 105 770 118 794 q 88 725 92 746 q 78 656 85 704 l 13 650 q 33 890 29 772 l 46 901 l 161 886 l 592 886 l 710 901 l 722 890 q 743 656 725 800 l 678 650 q 665 721 669 699 q 649 768 661 743 q 626 800 636 793 q 587 816 617 807 q 529 826 557 825 q 443 831 501 828 q 421 156 421 608 q 439 83 421 104 q 500 61 457 61 l 576 65 l 581 60 l 568 -4 q 364 0 429 0 l 174 -6 l 185 54 q 303 88 282 63 q 324 225 324 114 m 565 1163 l 585 1132 l 393 978 l 374 978 q 182 1132 272 1064 l 201 1163 l 214 1164 q 383 1074 307 1110 q 553 1164 456 1107 l 565 1163 z "},"ť":{"ha":658,"x_min":24,"x_max":632,"o":"m 276 176 l 276 636 q 136 617 165 632 q 89 497 104 601 l 24 493 q 40 694 38 599 l 51 704 l 150 693 l 504 693 l 606 704 l 617 694 q 632 497 619 593 l 568 493 q 558 552 563 531 q 542 591 554 574 q 524 615 531 608 q 492 628 518 622 q 390 636 463 633 q 372 129 372 468 q 388 72 372 89 q 438 56 403 56 l 499 58 l 503 54 l 493 -4 q 318 0 372 0 l 153 -6 l 163 50 q 259 76 242 56 q 276 176 276 97 m 514 968 l 533 938 l 342 783 l 322 783 q 131 938 221 869 l 150 968 l 163 969 q 332 879 256 915 q 501 969 404 913 l 514 968 z "},"Ŧ":{"ha":758,"x_min":13,"x_max":743,"o":"m 324 225 l 324 415 l 194 414 l 182 426 l 192 481 q 324 479 258 479 l 324 831 q 230 826 258 828 q 169 817 201 825 q 127 801 136 808 q 105 770 118 794 q 88 725 92 746 q 78 656 85 704 l 13 650 q 33 890 29 772 l 46 901 l 161 886 l 592 886 l 710 901 l 722 890 q 743 656 725 800 l 678 650 q 665 721 669 699 q 649 768 661 743 q 626 800 636 793 q 587 816 617 807 q 529 826 557 825 q 443 831 501 828 q 425 479 432 729 l 532 486 l 550 468 l 544 417 l 424 415 q 421 169 421 235 q 439 83 421 104 q 500 61 457 61 l 576 65 l 581 60 l 568 -4 q 364 0 429 0 l 174 -6 l 185 54 q 303 88 282 63 q 324 225 324 114 z "},"ŧ":{"ha":658,"x_min":24,"x_max":632,"o":"m 276 176 l 276 276 l 151 275 l 139 288 l 149 342 q 276 340 213 340 l 276 636 q 136 617 165 632 q 89 497 104 601 l 24 493 q 40 694 38 599 l 51 704 l 150 693 l 504 693 l 606 704 l 617 694 q 632 497 619 593 l 568 493 q 558 552 563 531 q 542 591 554 574 q 524 615 531 608 q 492 628 518 622 q 390 636 463 633 q 375 340 379 550 l 489 347 l 507 329 l 501 278 l 374 276 q 372 129 372 225 q 388 72 372 89 q 438 56 403 56 l 499 58 l 503 54 l 493 -4 q 318 0 372 0 l 153 -6 l 163 50 q 259 76 242 56 q 276 176 276 97 z "},"Ũ":{"ha":946,"x_min":49,"x_max":900,"o":"m 256 347 q 315 136 256 210 q 488 63 375 63 q 661 123 601 63 q 721 297 721 183 l 713 750 q 701 812 710 799 q 661 825 692 825 l 601 822 l 599 828 l 608 889 q 753 885 713 885 q 900 897 810 885 l 894 835 q 816 813 833 826 q 799 756 799 799 l 799 289 q 708 63 799 143 q 463 -17 618 -17 q 229 63 308 -17 q 150 290 150 143 l 150 750 q 140 810 150 794 q 99 825 129 825 l 51 822 l 49 828 l 58 889 q 203 885 163 885 q 361 897 258 885 l 356 835 q 287 812 304 828 q 267 756 269 796 l 256 347 m 360 1174 q 464 1151 383 1174 q 560 1128 544 1128 q 599 1147 576 1128 q 650 1204 621 1167 l 658 1204 l 689 1175 l 689 1168 l 583 1044 l 561 1039 q 457 1062 538 1039 q 360 1085 376 1085 q 322 1066 343 1085 q 271 1008 300 1047 l 263 1008 l 232 1038 l 232 1044 l 338 1168 l 360 1174 z "},"ũ":{"ha":799,"x_min":50,"x_max":750,"o":"m 413 60 q 590 231 590 60 l 585 579 q 575 627 582 617 q 544 638 568 638 l 497 636 l 496 640 l 504 694 q 633 692 590 692 l 750 700 l 746 644 q 683 626 697 638 q 669 585 669 615 l 669 229 q 595 51 669 114 q 391 -12 521 -12 q 197 49 261 -12 q 132 225 132 110 l 132 579 q 124 626 132 614 q 90 638 115 638 l 53 636 l 50 640 l 58 694 q 196 692 147 692 l 319 700 l 314 644 q 260 626 274 639 q 243 583 246 614 l 235 265 q 281 113 235 167 q 413 60 326 60 m 292 979 q 396 956 315 979 q 492 933 476 933 q 531 953 508 933 q 582 1010 553 972 l 590 1010 l 621 981 l 621 974 l 515 850 l 493 844 q 389 867 469 844 q 292 890 308 890 q 253 872 275 890 q 203 814 232 853 l 194 814 l 164 843 l 164 850 l 269 974 l 292 979 z "},"Ū":{"ha":946,"x_min":49,"x_max":900,"o":"m 256 347 q 315 136 256 210 q 488 63 375 63 q 661 123 601 63 q 721 297 721 183 l 713 750 q 701 812 710 799 q 661 825 692 825 l 601 822 l 599 828 l 608 889 q 753 885 713 885 q 900 897 810 885 l 894 835 q 816 813 833 826 q 799 756 799 799 l 799 289 q 708 63 799 143 q 463 -17 618 -17 q 229 63 308 -17 q 150 290 150 143 l 150 750 q 140 810 150 794 q 99 825 129 825 l 51 822 l 49 828 l 58 889 q 203 885 163 885 q 361 897 258 885 l 356 835 q 287 812 304 828 q 267 756 269 796 l 256 347 m 681 1081 l 689 1067 l 679 1001 l 282 999 l 274 1011 l 288 1074 q 501 1072 419 1072 l 681 1081 z "},"ū":{"ha":799,"x_min":50,"x_max":750,"o":"m 413 60 q 590 231 590 60 l 585 579 q 575 627 582 617 q 544 638 568 638 l 497 636 l 496 640 l 504 694 q 633 692 590 692 l 750 700 l 746 644 q 683 626 697 638 q 669 585 669 615 l 669 229 q 595 51 669 114 q 391 -12 521 -12 q 197 49 261 -12 q 132 225 132 110 l 132 579 q 124 626 132 614 q 90 638 115 638 l 53 636 l 50 640 l 58 694 q 196 692 147 692 l 319 700 l 314 644 q 260 626 274 639 q 243 583 246 614 l 235 265 q 281 113 235 167 q 413 60 326 60 m 607 886 l 615 872 l 606 807 l 208 804 l 200 817 l 214 879 q 428 878 346 878 l 607 886 z "},"Ŭ":{"ha":946,"x_min":49,"x_max":900,"o":"m 256 347 q 315 136 256 210 q 488 63 375 63 q 661 123 601 63 q 721 297 721 183 l 713 750 q 701 812 710 799 q 661 825 692 825 l 601 822 l 599 828 l 608 889 q 753 885 713 885 q 900 897 810 885 l 894 835 q 816 813 833 826 q 799 756 799 799 l 799 289 q 708 63 799 143 q 463 -17 618 -17 q 229 63 308 -17 q 150 290 150 143 l 150 750 q 140 810 150 794 q 99 825 129 825 l 51 822 l 49 828 l 58 889 q 203 885 163 885 q 361 897 258 885 l 356 835 q 287 812 304 828 q 267 756 269 796 l 256 347 m 329 1190 q 463 1099 364 1099 q 596 1190 561 1099 l 607 1190 l 629 1176 q 571 1064 613 1110 q 463 1018 529 1018 q 354 1064 396 1018 q 296 1176 313 1110 l 318 1190 l 329 1190 z "},"ŭ":{"ha":799,"x_min":50,"x_max":750,"o":"m 413 60 q 590 231 590 60 l 585 579 q 575 627 582 617 q 544 638 568 638 l 497 636 l 496 640 l 504 694 q 633 692 590 692 l 750 700 l 746 644 q 683 626 697 638 q 669 585 669 615 l 669 229 q 595 51 669 114 q 391 -12 521 -12 q 197 49 261 -12 q 132 225 132 110 l 132 579 q 124 626 132 614 q 90 638 115 638 l 53 636 l 50 640 l 58 694 q 196 692 147 692 l 319 700 l 314 644 q 260 626 274 639 q 243 583 246 614 l 235 265 q 281 113 235 167 q 413 60 326 60 m 261 996 q 394 904 296 904 q 528 996 492 904 l 539 996 l 561 982 q 503 869 544 915 q 394 824 461 824 q 286 869 328 824 q 228 982 244 915 l 250 996 l 261 996 z "},"Ů":{"ha":946,"x_min":49,"x_max":900,"o":"m 256 347 q 315 136 256 210 q 488 63 375 63 q 661 123 601 63 q 721 297 721 183 l 713 750 q 701 812 710 799 q 661 825 692 825 l 601 822 l 599 828 l 608 889 q 753 885 713 885 q 900 897 810 885 l 894 835 q 816 813 833 826 q 799 756 799 799 l 799 289 q 708 63 799 143 q 463 -17 618 -17 q 229 63 308 -17 q 150 290 150 143 l 150 750 q 140 810 150 794 q 99 825 129 825 l 51 822 l 49 828 l 58 889 q 203 885 163 885 q 361 897 258 885 l 356 835 q 287 812 304 828 q 267 756 269 796 l 256 347 m 485 989 q 546 1043 546 989 q 527 1092 546 1074 q 475 1110 508 1110 q 414 1056 414 1110 q 436 1006 414 1022 q 485 989 458 989 m 593 1056 q 593 1032 593 1056 q 561 972 593 1008 q 477 936 529 936 q 397 967 425 936 q 369 1048 369 997 q 401 1131 369 1099 q 486 1164 433 1164 q 566 1133 539 1164 q 593 1056 593 1103 z "},"ů":{"ha":799,"x_min":50,"x_max":750,"o":"m 413 60 q 590 231 590 60 l 585 579 q 575 627 582 617 q 544 638 568 638 l 497 636 l 496 640 l 504 694 q 633 692 590 692 l 750 700 l 746 644 q 683 626 697 638 q 669 585 669 615 l 669 229 q 595 51 669 114 q 391 -12 521 -12 q 197 49 261 -12 q 132 225 132 110 l 132 579 q 124 626 132 614 q 90 638 115 638 l 53 636 l 50 640 l 58 694 q 196 692 147 692 l 319 700 l 314 644 q 260 626 274 639 q 243 583 246 614 l 235 265 q 281 113 235 167 q 413 60 326 60 m 411 794 q 472 849 472 794 q 453 897 472 879 q 401 915 435 915 q 340 861 340 915 q 363 811 340 828 q 411 794 385 794 m 519 861 q 519 838 519 861 q 488 778 519 814 q 403 742 456 742 q 324 772 351 742 q 296 853 296 803 q 328 937 296 904 q 413 969 360 969 q 493 939 467 969 q 519 861 519 908 z "},"Ű":{"ha":946,"x_min":49,"x_max":900,"o":"m 256 347 q 315 136 256 210 q 488 63 375 63 q 661 123 601 63 q 721 297 721 183 l 713 750 q 701 812 710 799 q 661 825 692 825 l 601 822 l 599 828 l 608 889 q 753 885 713 885 q 900 897 810 885 l 894 835 q 816 813 833 826 q 799 756 799 799 l 799 289 q 708 63 799 143 q 463 -17 618 -17 q 229 63 308 -17 q 150 290 150 143 l 150 750 q 140 810 150 794 q 99 825 129 825 l 51 822 l 49 828 l 58 889 q 203 885 163 885 q 361 897 258 885 l 356 835 q 287 812 304 828 q 267 756 269 796 l 256 347 m 604 1097 l 600 1085 q 372 964 489 1029 l 361 971 l 349 1000 l 561 1163 l 574 1157 l 604 1097 m 799 1085 l 794 1072 q 567 951 683 1017 l 557 957 l 543 986 l 756 1150 l 768 1143 l 799 1085 z "},"ű":{"ha":799,"x_min":50,"x_max":750,"o":"m 413 60 q 590 231 590 60 l 585 579 q 575 627 582 617 q 544 638 568 638 l 497 636 l 496 640 l 504 694 q 633 692 590 692 l 750 700 l 746 644 q 683 626 697 638 q 669 585 669 615 l 669 229 q 595 51 669 114 q 391 -12 521 -12 q 197 49 261 -12 q 132 225 132 110 l 132 579 q 124 626 132 614 q 90 638 115 638 l 53 636 l 50 640 l 58 694 q 196 692 147 692 l 319 700 l 314 644 q 260 626 274 639 q 243 583 246 614 l 235 265 q 281 113 235 167 q 413 60 326 60 m 507 903 l 503 890 q 275 769 392 835 l 264 776 l 251 806 l 464 968 l 476 963 l 507 903 m 701 890 l 697 878 q 469 757 586 822 l 460 763 l 446 792 l 658 956 l 671 949 l 701 890 z "},"Ų":{"ha":946,"x_min":49,"x_max":900,"o":"m 608 -335 q 496 -299 538 -335 q 454 -198 454 -264 q 585 0 454 -132 q 454 -17 526 -17 q 229 63 308 -17 q 150 290 150 143 l 150 750 q 140 810 150 794 q 99 825 129 825 l 51 822 l 49 828 l 58 889 q 203 885 163 885 q 361 897 258 885 l 356 835 q 287 812 304 828 q 267 756 269 796 l 256 347 q 315 136 256 210 q 488 63 375 63 q 661 123 601 63 q 721 297 721 183 l 713 750 q 701 812 710 799 q 661 825 692 825 l 601 822 l 599 828 l 608 889 q 753 885 713 885 q 900 897 810 885 l 894 835 q 816 811 833 825 q 799 756 799 797 l 799 289 q 703 55 799 150 q 574 -87 607 -40 q 542 -172 542 -133 q 564 -232 542 -211 q 617 -253 586 -253 q 729 -221 668 -253 l 747 -247 q 608 -335 679 -311 z "},"ų":{"ha":799,"x_min":50,"x_max":750,"o":"m 511 -335 q 399 -300 442 -335 q 357 -212 357 -265 q 390 -112 357 -160 q 486 -1 422 -65 q 385 -12 438 -12 q 197 49 261 -12 q 132 225 132 110 l 132 579 q 124 626 132 614 q 90 638 115 638 l 53 636 l 50 640 l 58 694 q 196 692 147 692 l 319 700 l 314 644 q 260 626 274 639 q 243 583 246 614 l 235 265 q 281 113 235 167 q 413 60 326 60 q 590 231 590 60 l 585 579 q 575 627 582 617 q 544 638 568 638 l 497 636 l 496 640 l 504 694 q 633 692 590 692 l 750 700 l 746 644 q 683 626 697 636 q 669 585 669 615 l 669 229 q 596 47 669 121 q 474 -89 503 -49 q 444 -170 444 -129 q 467 -232 444 -211 q 519 -253 489 -253 q 632 -221 571 -253 l 650 -247 q 511 -335 582 -311 z "},"Ŵ":{"ha":1294,"x_min":-10,"x_max":1293,"o":"m -8 824 l -10 829 l -1 889 q 156 885 110 885 q 357 900 253 885 l 361 890 l 356 836 q 260 819 285 831 q 236 782 236 808 q 407 135 236 728 l 415 135 l 611 668 l 586 744 q 543 803 572 785 q 461 824 514 821 l 458 829 l 468 889 q 621 885 579 885 q 826 900 710 885 l 831 890 l 825 836 q 728 819 753 831 q 704 783 704 808 q 876 135 704 738 l 885 135 q 1110 781 1110 742 q 1015 829 1110 829 l 946 829 l 943 835 l 953 894 q 1146 885 1057 885 l 1293 889 l 1283 824 q 1225 809 1242 821 q 1194 757 1208 797 l 903 7 l 817 -24 q 643 565 738 261 l 635 565 l 438 7 l 349 -24 q 117 744 233 385 q -8 824 92 822 m 465 990 l 446 1021 l 638 1175 l 657 1175 q 849 1021 758 1089 l 829 990 l 817 989 q 647 1079 724 1043 q 478 989 575 1046 l 465 990 z "},"ŵ":{"ha":1101,"x_min":7,"x_max":1086,"o":"m 15 694 q 144 692 106 692 q 317 703 219 692 l 321 694 l 315 644 q 239 632 257 640 q 221 603 221 624 q 351 117 221 564 l 360 117 q 442 335 388 185 q 513 525 497 485 q 506 542 510 533 q 492 586 499 561 q 396 638 478 632 l 393 642 l 401 694 q 533 692 496 692 q 707 703 601 692 l 711 694 l 707 644 q 630 632 649 640 q 611 604 611 624 q 742 117 611 569 l 751 117 q 860 403 796 225 q 924 603 924 582 q 908 632 924 624 q 851 640 892 640 l 799 640 l 796 646 l 804 699 q 963 692 892 692 l 1086 694 l 1078 638 q 1033 625 1046 635 q 1008 583 1019 615 l 779 6 l 681 -18 q 549 418 669 49 l 542 418 l 390 6 l 290 -18 q 107 574 194 317 q 10 638 88 633 q 7 642 10 639 l 15 694 m 371 796 l 351 826 l 543 981 l 563 981 q 754 826 664 894 l 735 796 l 722 794 q 553 885 629 849 q 383 794 481 851 l 371 796 z "},"Ŷ":{"ha":747,"x_min":-26,"x_max":775,"o":"m 332 838 q 248 822 269 832 q 226 790 226 811 q 265 680 226 769 q 342 510 304 590 q 382 429 381 429 l 389 429 l 547 724 q 569 793 569 764 q 482 835 569 829 l 479 840 l 488 894 q 642 885 590 885 l 769 890 l 775 881 l 767 829 q 676 790 703 817 q 599 674 649 764 q 594 665 596 668 l 446 404 q 418 283 422 361 q 415 163 415 226 q 428 81 415 100 q 476 61 440 61 l 544 65 l 547 60 l 535 -4 q 374 0 419 0 q 200 -17 297 0 l 208 47 q 299 89 281 61 q 317 197 317 117 l 317 258 q 276 415 317 335 l 151 669 q 85 788 104 767 q -24 829 53 822 l -26 835 l -18 889 q 135 885 71 885 l 332 896 l 336 886 l 332 838 m 214 990 l 194 1021 l 386 1175 l 406 1175 q 597 1021 507 1089 l 578 990 l 565 989 q 396 1079 472 1043 q 226 989 324 1046 l 214 990 z "},"ŷ":{"ha":660,"x_min":-4,"x_max":665,"o":"m 419 699 l 553 692 l 661 696 l 665 688 l 658 640 q 583 605 606 629 q 511 500 560 581 l 399 308 q 381 250 383 282 q 375 144 375 203 q 385 71 375 86 q 426 56 396 56 l 482 58 l 485 54 l 474 -4 q 331 0 371 0 q 176 -12 257 0 l 185 44 q 261 75 246 54 q 276 157 276 96 l 276 200 q 243 319 276 258 q 101 586 114 567 q -1 639 71 632 l -4 644 l 4 694 q 135 692 83 692 l 301 700 l 306 692 l 301 646 q 237 635 254 643 q 219 607 219 628 q 339 347 219 586 l 346 347 l 465 561 q 483 614 483 593 q 415 644 483 640 l 413 649 l 419 699 m 168 796 l 149 826 l 340 981 l 360 981 q 551 826 461 894 l 532 796 l 519 794 q 350 885 426 849 q 181 794 278 851 l 168 796 z "},"Ÿ":{"ha":747,"x_min":-26,"x_max":775,"o":"m 332 838 q 248 822 269 832 q 226 790 226 811 q 265 680 226 769 q 342 510 304 590 q 382 429 381 429 l 389 429 l 547 724 q 569 793 569 764 q 482 835 569 829 l 479 840 l 488 894 q 642 885 590 885 l 769 890 l 775 881 l 767 829 q 676 790 703 817 q 599 674 649 764 q 594 665 596 668 l 446 404 q 418 283 422 361 q 415 163 415 226 q 428 81 415 100 q 476 61 440 61 l 544 65 l 547 60 l 535 -4 q 374 0 419 0 q 200 -17 297 0 l 208 47 q 299 89 281 61 q 317 197 317 117 l 317 258 q 276 415 317 335 l 151 669 q 85 788 104 767 q -24 829 53 822 l -26 835 l -18 889 q 135 885 71 885 l 332 896 l 336 886 l 332 838 m 574 1074 q 574 1061 574 1074 q 553 1027 574 1047 q 506 1007 533 1007 q 463 1025 478 1007 q 447 1069 447 1043 q 467 1116 447 1096 q 515 1136 488 1136 q 558 1119 543 1136 q 574 1074 574 1101 m 343 1074 q 343 1061 343 1074 q 323 1027 343 1047 q 275 1007 303 1007 q 232 1025 247 1007 q 217 1069 217 1043 q 237 1116 217 1096 q 285 1136 257 1136 q 328 1119 313 1136 q 343 1074 343 1101 z "},"Ź":{"ha":789,"x_min":47,"x_max":728,"o":"m 688 18 l 667 -4 l 164 4 l 67 -4 l 47 40 l 565 824 l 325 815 q 189 770 229 811 q 138 624 149 729 l 72 618 q 97 889 94 761 l 111 901 l 354 886 l 713 876 l 728 836 q 192 56 463 483 l 474 65 q 590 122 546 67 q 657 296 635 178 l 722 303 q 688 18 694 151 m 628 1093 l 622 1079 q 336 976 482 1032 l 325 983 l 317 1017 l 593 1168 l 606 1160 l 628 1093 z "},"ź":{"ha":681,"x_min":50,"x_max":622,"o":"m 589 15 l 571 -3 l 150 3 l 68 -4 l 50 35 l 468 633 l 285 626 q 176 592 207 622 q 136 482 144 561 l 72 476 q 92 694 90 594 l 104 706 l 304 693 l 607 686 l 622 651 q 190 54 371 335 l 407 64 q 501 108 465 67 q 553 239 536 150 l 618 246 q 589 15 594 119 m 558 899 l 553 885 q 267 782 413 838 l 256 789 l 247 822 l 524 974 l 536 965 l 558 899 z "},"Ż":{"ha":789,"x_min":47,"x_max":728,"o":"m 688 18 l 667 -4 l 164 4 l 67 -4 l 47 40 l 565 824 l 325 815 q 189 770 229 811 q 138 624 149 729 l 72 618 q 97 889 94 761 l 111 901 l 354 886 l 713 876 l 728 836 q 192 56 463 483 l 474 65 q 590 122 546 67 q 657 296 635 178 l 722 303 q 688 18 694 151 m 481 1078 q 481 1063 481 1078 q 457 1023 481 1047 q 400 999 433 999 q 349 1019 367 999 q 331 1072 331 1040 q 354 1127 331 1103 q 411 1151 378 1151 q 463 1131 444 1151 q 481 1078 481 1110 z "},"ż":{"ha":681,"x_min":50,"x_max":622,"o":"m 589 15 l 571 -3 l 150 3 l 68 -4 l 50 35 l 468 633 l 285 626 q 176 592 207 622 q 136 482 144 561 l 72 476 q 92 694 90 594 l 104 706 l 304 693 l 607 686 l 622 651 q 190 54 371 335 l 407 64 q 501 108 465 67 q 553 239 536 150 l 618 246 q 589 15 594 119 m 429 884 q 429 868 429 884 q 406 828 429 853 q 349 804 382 804 q 297 825 315 804 q 279 877 279 846 q 303 933 279 908 q 360 957 326 957 q 411 936 393 957 q 429 884 429 915 z "},"Ž":{"ha":789,"x_min":47,"x_max":728,"o":"m 688 18 l 667 -4 l 164 4 l 67 -4 l 47 40 l 565 824 l 325 815 q 189 770 229 811 q 138 624 149 729 l 72 618 q 97 889 94 761 l 111 901 l 354 886 l 713 876 l 728 836 q 192 56 463 483 l 474 65 q 590 122 546 67 q 657 296 635 178 l 722 303 q 688 18 694 151 m 588 1163 l 607 1132 l 415 978 l 396 978 q 204 1132 294 1064 l 224 1163 l 236 1164 q 406 1074 329 1110 q 575 1164 478 1107 l 588 1163 z "},"ž":{"ha":681,"x_min":50,"x_max":622,"o":"m 589 15 l 571 -3 l 150 3 l 68 -4 l 50 35 l 468 633 l 285 626 q 176 592 207 622 q 136 482 144 561 l 72 476 q 92 694 90 594 l 104 706 l 304 693 l 607 686 l 622 651 q 190 54 371 335 l 407 64 q 501 108 465 67 q 553 239 536 150 l 618 246 q 589 15 594 119 m 535 968 l 554 938 l 363 783 l 343 783 q 151 938 242 869 l 171 968 l 183 969 q 353 879 276 915 q 522 969 425 913 l 535 968 z "},"ƒ":{"ha":531,"x_min":-74,"x_max":571,"o":"m 313 603 l 303 496 l 483 500 l 488 496 l 474 422 q 296 426 390 425 l 254 -29 q 181 -167 246 -112 q 36 -221 115 -221 q -40 -207 -6 -221 q -74 -173 -74 -193 q -65 -119 -74 -153 q -49 -76 -57 -85 l -33 -76 q 14 -138 -18 -112 q 82 -164 46 -164 q 161 -60 151 -164 l 206 383 q 192 423 206 417 q 115 431 179 429 l 110 439 l 119 486 l 217 500 l 231 635 q 297 776 239 721 q 436 831 356 831 q 528 816 486 831 q 571 780 571 801 q 563 723 571 758 q 546 678 554 688 l 528 678 q 473 743 510 715 q 403 771 436 771 q 354 759 371 771 q 329 719 338 747 q 313 603 313 661 z "},"Ǻ":{"ha":803,"x_min":-25,"x_max":821,"o":"m 457 -14 l 453 -4 l 458 50 q 556 67 529 56 q 582 104 582 78 q 569 169 582 131 l 524 321 q 401 322 490 322 q 228 311 313 322 l 176 167 q 164 113 164 129 q 247 56 164 56 l 326 56 l 329 50 l 321 -10 q 128 0 219 0 l -25 -4 l -14 61 q 49 88 25 65 q 94 168 72 111 l 365 878 l 453 901 l 464 901 q 685 157 581 469 q 729 85 701 106 q 818 58 757 64 l 821 53 l 811 -4 q 640 0 711 0 q 457 -14 568 0 m 375 379 q 504 386 425 379 l 394 750 l 385 750 l 253 379 l 375 379 m 435 978 q 490 1026 490 978 q 473 1069 490 1053 q 426 1086 456 1086 q 371 1038 371 1086 q 391 992 371 1007 q 435 978 411 978 m 532 1037 q 532 1016 532 1037 q 503 962 532 994 q 428 929 475 929 q 356 957 382 929 q 331 1030 331 985 q 360 1105 331 1075 q 436 1135 389 1135 q 508 1107 483 1135 q 532 1037 532 1079 m 588 1240 l 582 1228 q 325 1136 457 1186 l 315 1142 l 307 1172 l 557 1308 l 568 1300 l 588 1240 z "},"ǻ":{"ha":703,"x_min":-3,"x_max":700,"o":"m 693 -3 q 567 0 608 0 q 392 -10 501 0 l 388 -3 l 392 47 q 470 60 450 51 q 490 89 490 68 q 481 135 490 110 l 447 242 q 356 243 419 243 q 213 235 292 243 q 164 93 164 106 q 229 51 164 51 l 289 51 l 293 46 l 285 -7 q 125 0 200 0 l -3 -3 l 6 54 q 54 76 36 58 q 90 135 72 93 l 308 686 l 407 704 l 417 703 q 593 129 514 353 q 628 73 607 89 q 697 53 650 57 l 700 47 l 693 -3 m 329 300 q 431 306 378 300 l 346 575 l 336 575 l 235 300 l 329 300 m 371 783 q 426 832 426 783 q 409 875 426 858 q 363 892 392 892 q 307 843 307 892 q 327 798 307 813 q 371 783 347 783 m 468 842 q 468 821 468 842 q 440 767 468 800 q 365 735 411 735 q 292 763 318 735 q 267 835 267 790 q 296 910 267 881 q 372 940 325 940 q 444 913 419 940 q 468 842 468 885 m 515 1046 l 510 1033 q 253 942 385 992 l 243 947 l 235 978 l 485 1114 l 496 1106 l 515 1046 z "},"Ǽ":{"ha":1125,"x_min":-14,"x_max":1089,"o":"m 418 50 q 526 70 500 57 q 553 113 553 83 q 518 383 553 146 l 381 372 l 254 358 l 156 167 q 133 103 133 124 q 210 56 133 56 l 289 56 l 282 -10 q 90 0 179 0 l -4 -6 l -14 43 q 74 168 32 92 l 417 803 q 382 825 411 825 l 335 822 l 332 828 l 342 889 q 563 885 496 885 q 976 901 865 885 l 981 893 q 949 663 957 790 l 882 657 q 885 717 885 697 q 850 800 885 785 q 708 815 815 815 q 586 808 601 815 q 569 772 571 801 l 613 456 l 776 471 l 904 489 l 910 482 l 892 408 l 772 404 l 621 392 l 660 157 q 694 83 668 104 q 776 63 719 63 q 968 90 928 63 q 1024 232 1008 118 l 1085 239 l 1089 232 q 1051 -1 1064 117 l 1044 -10 q 671 0 756 0 l 624 0 q 418 -14 529 0 l 415 -4 l 418 50 m 292 431 l 510 446 l 468 749 l 456 749 l 292 431 m 875 1176 l 874 1161 q 640 967 757 1072 l 628 969 l 600 996 q 808 1236 701 1106 l 822 1233 l 875 1176 z "},"ǽ":{"ha":971,"x_min":6,"x_max":926,"o":"m 444 289 l 335 281 l 233 267 l 160 132 q 143 85 143 100 q 206 51 143 51 l 264 50 l 257 -7 q 92 0 163 0 l 13 -4 l 6 43 q 38 76 13 43 q 76 135 63 110 l 347 618 q 318 638 342 638 l 281 636 l 276 642 l 285 694 q 560 692 382 692 q 836 704 739 692 l 840 697 q 814 511 821 611 l 747 506 q 750 551 750 536 q 722 615 750 603 q 612 626 694 626 q 517 621 529 626 q 504 593 506 615 l 538 363 l 665 375 l 772 392 l 778 383 l 764 315 l 664 311 l 546 301 l 575 133 q 603 76 582 93 q 667 60 624 60 q 816 81 785 60 q 860 190 847 103 l 922 196 l 926 189 q 896 0 906 97 l 889 -7 q 575 0 636 0 l 535 0 q 364 -10 471 0 l 361 -3 l 364 47 q 449 63 429 53 q 469 97 469 74 q 444 289 469 119 m 267 338 l 436 350 l 404 574 l 393 574 l 267 338 m 756 982 l 754 967 q 521 772 638 878 l 508 775 l 481 801 q 689 1042 582 911 l 703 1039 l 756 982 z "},"Ǿ":{"ha":961,"x_min":56,"x_max":906,"o":"m 56 413 q 188 760 56 618 q 513 901 319 901 q 664 872 594 901 l 722 983 l 763 974 l 767 957 l 710 851 q 853 700 801 799 q 906 474 906 601 q 772 125 906 267 q 440 -17 638 -17 q 272 19 353 -17 l 189 -136 l 151 -128 l 149 -114 l 231 43 q 101 194 147 97 q 56 413 56 290 m 483 54 q 699 155 615 54 q 782 415 782 256 q 654 747 782 633 l 318 108 q 483 54 392 54 m 175 457 q 282 142 175 253 l 614 776 q 465 818 546 818 q 256 718 336 818 q 175 457 175 618 m 665 1093 l 660 1079 q 374 976 519 1032 l 363 983 l 354 1017 l 631 1168 l 643 1160 l 665 1093 z "},"ǿ":{"ha":813,"x_min":57,"x_max":756,"o":"m 57 324 q 164 596 57 488 q 432 704 271 704 q 560 682 497 704 l 608 768 l 646 757 l 649 743 l 601 661 q 715 544 674 619 q 756 369 756 468 q 647 97 756 206 q 376 -12 539 -12 q 233 17 300 -12 l 163 -107 l 128 -97 l 125 -86 l 194 38 q 57 324 57 128 m 410 54 q 574 127 511 54 q 636 321 636 200 q 547 567 636 482 l 279 97 q 410 54 335 54 m 394 626 q 235 554 296 626 q 175 348 175 482 q 246 129 175 214 l 510 596 q 394 626 457 626 m 583 906 l 578 892 q 292 789 438 844 l 281 796 l 272 829 l 549 981 l 561 972 l 583 906 z "},"Ș":{"ha":736,"x_min":79,"x_max":647,"o":"m 304 -17 q 192 -5 246 -17 q 86 31 138 7 l 79 44 q 96 286 96 151 l 158 293 q 192 97 158 143 q 326 51 226 51 q 479 92 426 51 q 532 204 532 133 q 469 313 532 265 q 378 371 424 347 q 330 395 332 394 q 326 397 328 396 q 296 413 324 399 q 237 447 268 428 q 168 497 206 465 q 94 643 94 558 q 187 827 94 753 q 414 901 279 901 q 626 867 519 901 l 631 858 q 600 624 608 751 l 546 618 l 538 625 q 542 697 542 654 q 506 799 542 771 q 385 826 469 826 q 251 788 300 826 q 201 694 201 750 q 249 597 201 638 q 413 496 297 556 q 572 397 528 436 q 647 254 647 333 q 551 59 647 135 q 304 -17 456 -17 m 278 -129 q 358 -93 325 -93 q 412 -120 390 -93 q 433 -192 433 -147 q 381 -315 433 -260 q 256 -407 328 -369 l 231 -386 l 231 -372 q 302 -308 274 -346 q 331 -235 331 -269 q 275 -149 331 -182 l 278 -129 z "},"ș":{"ha":638,"x_min":74,"x_max":556,"o":"m 265 -12 q 170 -3 217 -12 q 81 25 124 6 l 74 38 q 89 225 89 125 l 151 231 q 179 88 151 122 q 283 54 207 54 q 401 83 360 54 q 442 161 442 113 q 392 242 442 207 q 347 269 363 261 q 268 308 308 288 q 201 343 228 328 q 144 382 175 358 q 86 499 86 429 q 164 646 86 588 q 358 704 242 704 q 538 678 456 704 l 543 668 q 517 485 524 583 l 463 479 l 454 485 q 457 547 457 506 q 428 610 457 589 q 335 632 400 632 q 231 605 269 632 q 193 536 193 578 q 231 465 193 494 q 329 408 269 436 q 408 370 389 379 q 461 340 426 361 q 511 300 496 318 q 556 200 556 253 q 475 47 556 106 q 265 -12 394 -12 m 235 -129 q 315 -93 282 -93 q 369 -120 347 -93 q 390 -192 390 -147 q 338 -315 390 -260 q 213 -407 285 -369 l 188 -386 l 188 -372 q 259 -308 231 -346 q 288 -235 288 -269 q 232 -149 288 -182 l 235 -129 z "},"Ț":{"ha":758,"x_min":13,"x_max":743,"o":"m 324 225 l 324 831 q 230 826 258 828 q 169 817 201 825 q 127 801 136 808 q 105 770 118 794 q 88 725 92 746 q 78 656 85 704 l 13 650 q 33 890 29 772 l 46 901 l 161 886 l 592 886 l 710 901 l 722 890 q 743 656 725 800 l 678 650 q 665 721 669 699 q 649 768 661 743 q 626 800 636 793 q 587 816 617 807 q 529 826 557 825 q 443 831 501 828 q 421 156 421 608 q 439 83 421 104 q 500 61 457 61 l 576 65 l 581 60 l 568 -4 q 364 0 429 0 l 174 -6 l 185 54 q 303 88 282 63 q 324 225 324 114 m 308 -129 q 388 -93 356 -93 q 442 -120 421 -93 q 464 -192 464 -147 q 411 -315 464 -260 q 286 -407 358 -369 l 261 -386 l 261 -372 q 333 -308 304 -346 q 361 -235 361 -269 q 306 -149 361 -182 l 308 -129 z "},"ț":{"ha":658,"x_min":24,"x_max":632,"o":"m 276 176 l 276 636 q 136 617 165 632 q 89 497 104 601 l 24 493 q 40 694 38 599 l 51 704 l 150 693 l 504 693 l 606 704 l 617 694 q 632 497 619 593 l 568 493 q 558 552 563 531 q 542 591 554 574 q 524 615 531 608 q 492 628 518 622 q 390 636 463 633 q 372 129 372 468 q 388 72 372 89 q 438 56 403 56 l 499 58 l 503 54 l 493 -4 q 318 0 372 0 l 153 -6 l 163 50 q 259 76 242 56 q 276 176 276 97 m 263 -129 q 342 -93 310 -93 q 397 -120 375 -93 q 418 -192 418 -147 q 365 -315 418 -260 q 240 -407 313 -369 l 215 -386 l 215 -372 q 287 -308 258 -346 q 315 -235 315 -269 q 260 -149 315 -182 l 263 -129 z "},"ȷ":{"ha":406,"x_min":38,"x_max":340,"o":"m 157 128 l 158 579 q 150 625 158 614 q 117 636 142 636 l 65 633 l 61 639 l 69 692 l 197 692 l 340 701 l 335 644 q 285 628 296 639 q 271 583 274 617 q 256 135 257 260 q 209 -56 256 11 q 60 -160 163 -122 l 38 -121 l 40 -111 q 133 -20 108 -69 q 157 128 157 29 z "},"ˆ":{"ha":553,"x_min":75,"x_max":478,"o":"m 94 733 l 75 764 q 267 976 143 835 l 286 976 q 478 764 388 858 l 458 733 l 446 732 q 276 867 415 758 q 107 732 168 786 l 94 733 z "},"ˇ":{"ha":553,"x_min":65,"x_max":488,"o":"m 65 953 l 88 985 l 99 986 q 276 846 182 914 q 454 986 392 932 l 465 985 l 488 953 q 286 731 415 879 l 267 731 q 65 953 161 854 z "},"˘":{"ha":553,"x_min":110,"x_max":443,"o":"m 143 947 q 276 856 178 856 q 410 947 375 856 l 421 947 l 443 933 q 385 821 426 867 q 276 775 343 775 q 168 821 210 775 q 110 933 126 867 l 132 947 l 143 947 z "},"˙":{"ha":553,"x_min":201,"x_max":351,"o":"m 351 916 q 351 900 351 916 q 328 860 351 885 q 271 836 304 836 q 219 857 238 836 q 201 909 201 878 q 225 965 201 940 q 282 989 249 989 q 333 968 315 989 q 351 916 351 947 z "},"˚":{"ha":553,"x_min":164,"x_max":388,"o":"m 279 808 q 340 863 340 808 q 322 911 340 893 q 269 929 303 929 q 208 875 208 929 q 231 825 208 842 q 279 808 253 808 m 388 875 q 388 851 388 875 q 356 792 388 828 q 272 756 324 756 q 192 786 219 756 q 164 867 164 817 q 196 951 164 918 q 281 983 228 983 q 360 953 333 983 q 388 875 388 922 z "},"˛":{"ha":553,"x_min":128,"x_max":421,"o":"m 128 -204 q 144 -141 128 -165 q 166 -106 160 -117 q 186 -80 172 -96 q 208 -55 200 -64 q 233 -27 215 -46 q 260 0 251 -8 q 318 58 289 29 l 376 58 q 249 -85 282 -39 q 215 -171 215 -131 q 238 -232 215 -211 q 289 -253 260 -253 q 403 -221 342 -253 l 421 -247 q 282 -335 353 -311 q 170 -300 213 -335 q 128 -204 128 -265 z "},"˜":{"ha":553,"x_min":49,"x_max":506,"o":"m 176 931 q 281 908 200 931 q 377 885 361 885 q 415 903 393 885 q 467 961 438 922 l 475 961 l 506 932 l 506 925 l 400 801 l 378 796 q 274 819 354 796 q 176 842 193 842 q 103 783 147 842 l 88 765 l 79 765 l 49 794 l 49 801 l 154 925 l 176 931 z "},"˝":{"ha":553,"x_min":103,"x_max":533,"o":"m 356 922 l 353 910 q 138 742 247 833 l 125 744 l 103 769 l 297 979 l 310 975 l 356 922 m 533 922 l 531 910 q 315 742 425 833 l 303 744 l 281 769 l 475 979 l 488 975 l 533 922 z "},"̣":{"ha":553,"x_min":194,"x_max":360,"o":"m 360 -182 q 360 -199 360 -182 q 335 -242 360 -217 q 273 -267 311 -267 q 215 -244 235 -267 q 194 -186 194 -221 q 218 -126 194 -151 q 280 -101 242 -101 q 339 -124 318 -101 q 360 -182 360 -147 z "},"Δ":{"ha":747,"x_min":11,"x_max":703,"o":"m 24 0 l 11 18 l 340 878 l 428 901 l 439 901 q 703 10 599 322 l 693 0 l 24 0 m 369 750 l 360 750 l 115 79 l 569 79 l 369 750 z "},"Ω":{"ha":1179,"x_min":58,"x_max":1117,"o":"m 646 32 q 829 244 774 142 q 885 487 885 347 q 802 722 885 626 q 584 818 719 818 q 363 731 449 818 q 278 506 278 643 q 340 243 278 368 q 513 33 403 118 l 503 1 l 446 11 l 107 -8 l 85 14 q 58 235 82 113 l 111 242 q 156 113 126 147 q 253 78 185 78 l 381 78 q 217 269 276 160 q 158 490 158 378 q 288 782 158 663 q 599 901 417 901 q 895 793 782 901 q 1008 513 1008 685 q 944 269 1008 386 q 771 78 881 153 l 919 78 q 1016 110 986 78 q 1061 235 1046 143 l 1117 242 q 1088 14 1089 114 l 1065 -8 l 713 11 l 656 3 l 646 32 z "},"π":{"ha":833,"x_min":6,"x_max":797,"o":"m 599 213 q 629 106 599 139 q 728 72 660 72 l 735 63 q 708 17 735 51 q 674 -17 682 -17 q 550 27 589 -17 q 511 165 511 71 l 518 539 q 501 603 518 592 q 407 614 483 614 q 315 603 331 614 q 296 544 299 592 q 279 31 279 271 l 285 -110 l 278 -119 l 178 -142 l 169 -125 q 185 122 176 -108 q 194 536 194 351 q 183 599 194 583 q 144 614 171 614 q 96 591 117 614 q 53 522 75 568 l 43 521 l 7 546 l 6 556 l 89 692 l 110 701 q 377 694 199 701 q 589 688 556 688 q 789 701 658 688 l 797 692 l 783 628 l 774 618 q 652 603 681 618 q 621 542 624 589 q 599 213 599 246 z "},"Ẁ":{"ha":1294,"x_min":-10,"x_max":1293,"o":"m -8 824 l -10 829 l -1 889 q 156 885 110 885 q 357 900 253 885 l 361 890 l 356 836 q 260 819 285 831 q 236 782 236 808 q 407 135 236 728 l 415 135 l 611 668 l 586 744 q 543 803 572 785 q 461 824 514 821 l 458 829 l 468 889 q 621 885 579 885 q 826 900 710 885 l 831 890 l 825 836 q 728 819 753 831 q 704 783 704 808 q 876 135 704 738 l 885 135 q 1110 781 1110 742 q 1015 829 1110 829 l 946 829 l 943 835 l 953 894 q 1146 885 1057 885 l 1293 889 l 1283 824 q 1225 809 1242 821 q 1194 757 1208 797 l 903 7 l 817 -24 q 643 565 738 261 l 635 565 l 438 7 l 349 -24 q 117 744 233 385 q -8 824 92 822 m 440 1079 l 435 1093 l 457 1160 l 469 1168 q 746 1017 615 1085 l 738 983 l 726 976 l 440 1079 z "},"ẁ":{"ha":1101,"x_min":7,"x_max":1086,"o":"m 15 694 q 144 692 106 692 q 317 703 219 692 l 321 694 l 315 644 q 239 632 257 640 q 221 603 221 624 q 351 117 221 564 l 360 117 q 442 335 388 185 q 513 525 497 485 q 506 542 510 533 q 492 586 499 561 q 396 638 478 632 l 393 642 l 401 694 q 533 692 496 692 q 707 703 601 692 l 711 694 l 707 644 q 630 632 649 640 q 611 604 611 624 q 742 117 611 569 l 751 117 q 860 403 796 225 q 924 603 924 582 q 908 632 924 624 q 851 640 892 640 l 799 640 l 796 646 l 804 699 q 963 692 892 692 l 1086 694 l 1078 638 q 1033 625 1046 635 q 1008 583 1019 615 l 779 6 l 681 -18 q 549 418 669 49 l 542 418 l 390 6 l 290 -18 q 107 574 194 317 q 10 638 88 633 q 7 642 10 639 l 15 694 m 360 885 l 354 899 l 376 965 l 389 974 q 665 822 535 890 l 657 789 l 646 782 l 360 885 z "},"Ẃ":{"ha":1294,"x_min":-10,"x_max":1293,"o":"m -8 824 l -10 829 l -1 889 q 156 885 110 885 q 357 900 253 885 l 361 890 l 356 836 q 260 819 285 831 q 236 782 236 808 q 407 135 236 728 l 415 135 l 611 668 l 586 744 q 543 803 572 785 q 461 824 514 821 l 458 829 l 468 889 q 621 885 579 885 q 826 900 710 885 l 831 890 l 825 836 q 728 819 753 831 q 704 783 704 808 q 876 135 704 738 l 885 135 q 1110 781 1110 742 q 1015 829 1110 829 l 946 829 l 943 835 l 953 894 q 1146 885 1057 885 l 1293 889 l 1283 824 q 1225 809 1242 821 q 1194 757 1208 797 l 903 7 l 817 -24 q 643 565 738 261 l 635 565 l 438 7 l 349 -24 q 117 744 233 385 q -8 824 92 822 m 869 1093 l 864 1079 q 578 976 724 1032 l 567 983 l 558 1017 l 835 1168 l 847 1160 l 869 1093 z "},"ẃ":{"ha":1101,"x_min":7,"x_max":1086,"o":"m 15 694 q 144 692 106 692 q 317 703 219 692 l 321 694 l 315 644 q 239 632 257 640 q 221 603 221 624 q 351 117 221 564 l 360 117 q 442 335 388 185 q 513 525 497 485 q 506 542 510 533 q 492 586 499 561 q 396 638 478 632 l 393 642 l 401 694 q 533 692 496 692 q 707 703 601 692 l 711 694 l 707 644 q 630 632 649 640 q 611 604 611 624 q 742 117 611 569 l 751 117 q 860 403 796 225 q 924 603 924 582 q 908 632 924 624 q 851 640 892 640 l 799 640 l 796 646 l 804 699 q 963 692 892 692 l 1086 694 l 1078 638 q 1033 625 1046 635 q 1008 583 1019 615 l 779 6 l 681 -18 q 549 418 669 49 l 542 418 l 390 6 l 290 -18 q 107 574 194 317 q 10 638 88 633 q 7 642 10 639 l 15 694 m 758 899 l 753 885 q 467 782 613 838 l 456 789 l 447 822 l 724 974 l 736 965 l 758 899 z "},"Ẅ":{"ha":1294,"x_min":-10,"x_max":1293,"o":"m -8 824 l -10 829 l -1 889 q 156 885 110 885 q 357 900 253 885 l 361 890 l 356 836 q 260 819 285 831 q 236 782 236 808 q 407 135 236 728 l 415 135 l 611 668 l 586 744 q 543 803 572 785 q 461 824 514 821 l 458 829 l 468 889 q 621 885 579 885 q 826 900 710 885 l 831 890 l 825 836 q 728 819 753 831 q 704 783 704 808 q 876 135 704 738 l 885 135 q 1110 781 1110 742 q 1015 829 1110 829 l 946 829 l 943 835 l 953 894 q 1146 885 1057 885 l 1293 889 l 1283 824 q 1225 809 1242 821 q 1194 757 1208 797 l 903 7 l 817 -24 q 643 565 738 261 l 635 565 l 438 7 l 349 -24 q 117 744 233 385 q -8 824 92 822 m 825 1074 q 825 1061 825 1074 q 805 1027 825 1047 q 757 1007 785 1007 q 714 1025 729 1007 q 699 1069 699 1043 q 719 1116 699 1096 q 767 1136 739 1136 q 810 1119 794 1136 q 825 1074 825 1101 m 594 1074 q 594 1061 594 1074 q 574 1027 594 1047 q 526 1007 554 1007 q 483 1025 499 1007 q 468 1069 468 1043 q 488 1116 468 1096 q 536 1136 508 1136 q 579 1119 564 1136 q 594 1074 594 1101 z "},"ẅ":{"ha":1101,"x_min":7,"x_max":1086,"o":"m 15 694 q 144 692 106 692 q 317 703 219 692 l 321 694 l 315 644 q 239 632 257 640 q 221 603 221 624 q 351 117 221 564 l 360 117 q 442 335 388 185 q 513 525 497 485 q 506 542 510 533 q 492 586 499 561 q 396 638 478 632 l 393 642 l 401 694 q 533 692 496 692 q 707 703 601 692 l 711 694 l 707 644 q 630 632 649 640 q 611 604 611 624 q 742 117 611 569 l 751 117 q 860 403 796 225 q 924 603 924 582 q 908 632 924 624 q 851 640 892 640 l 799 640 l 796 646 l 804 699 q 963 692 892 692 l 1086 694 l 1078 638 q 1033 625 1046 635 q 1008 583 1019 615 l 779 6 l 681 -18 q 549 418 669 49 l 542 418 l 390 6 l 290 -18 q 107 574 194 317 q 10 638 88 633 q 7 642 10 639 l 15 694 m 731 880 q 731 866 731 880 q 710 833 731 853 q 663 813 690 813 q 619 831 635 813 q 604 875 604 849 q 624 922 604 901 q 672 942 644 942 q 715 924 700 942 q 731 880 731 907 m 500 880 q 500 866 500 880 q 480 833 500 853 q 432 813 460 813 q 389 831 404 813 q 374 875 374 849 q 394 922 374 901 q 442 942 414 942 q 485 924 469 942 q 500 880 500 907 z "},"Ỳ":{"ha":747,"x_min":-26,"x_max":775,"o":"m 332 838 q 248 822 269 832 q 226 790 226 811 q 265 680 226 769 q 342 510 304 590 q 382 429 381 429 l 389 429 l 547 724 q 569 793 569 764 q 482 835 569 829 l 479 840 l 488 894 q 642 885 590 885 l 769 890 l 775 881 l 767 829 q 676 790 703 817 q 599 674 649 764 q 594 665 596 668 l 446 404 q 418 283 422 361 q 415 163 415 226 q 428 81 415 100 q 476 61 440 61 l 544 65 l 547 60 l 535 -4 q 374 0 419 0 q 200 -17 297 0 l 208 47 q 299 89 281 61 q 317 197 317 117 l 317 258 q 276 415 317 335 l 151 669 q 85 788 104 767 q -24 829 53 822 l -26 835 l -18 889 q 135 885 71 885 l 332 896 l 336 886 l 332 838 m 189 1079 l 183 1093 l 206 1160 l 218 1168 q 494 1017 364 1085 l 486 983 l 475 976 l 189 1079 z "},"ỳ":{"ha":660,"x_min":-4,"x_max":665,"o":"m 419 699 l 553 692 l 661 696 l 665 688 l 658 640 q 583 605 606 629 q 511 500 560 581 l 399 308 q 381 250 383 282 q 375 144 375 203 q 385 71 375 86 q 426 56 396 56 l 482 58 l 485 54 l 474 -4 q 331 0 371 0 q 176 -12 257 0 l 185 44 q 261 75 246 54 q 276 157 276 96 l 276 200 q 243 319 276 258 q 101 586 114 567 q -1 639 71 632 l -4 644 l 4 694 q 135 692 83 692 l 301 700 l 306 692 l 301 646 q 237 635 254 643 q 219 607 219 628 q 339 347 219 586 l 346 347 l 465 561 q 483 614 483 593 q 415 644 483 640 l 413 649 l 419 699 m 157 885 l 151 899 l 174 965 l 186 974 q 463 822 332 890 l 454 789 l 443 782 l 157 885 z "},"–":{"ha":636,"x_min":-8,"x_max":644,"o":"m 633 314 l 0 311 l -8 324 l 7 392 q 326 390 215 390 q 537 394 438 390 q 636 399 636 397 l 644 385 l 633 314 z "},"—":{"ha":1275,"x_min":-8,"x_max":1283,"o":"m 1272 314 l 0 311 l -8 324 l 7 392 q 658 390 419 390 l 1275 399 l 1283 385 l 1272 314 z "},"‘":{"ha":244,"x_min":39,"x_max":242,"o":"m 194 624 q 115 588 147 588 q 60 615 82 588 q 39 686 39 642 q 92 809 39 754 q 217 901 144 864 l 242 881 l 242 867 q 170 802 199 840 q 142 729 142 764 q 197 643 142 676 l 194 624 z "},"’":{"ha":244,"x_min":3,"x_max":206,"o":"m 50 865 q 130 901 97 901 q 184 874 163 901 q 206 803 206 847 q 153 680 206 735 q 28 588 100 625 l 3 608 l 3 622 q 74 687 46 649 q 103 760 103 725 q 47 846 103 813 l 50 865 z "},"‚":{"ha":331,"x_min":21,"x_max":240,"o":"m 89 101 q 168 138 136 138 q 220 109 200 138 q 240 19 240 81 q 182 -108 240 -43 q 46 -218 124 -172 l 21 -197 l 21 -183 q 100 -104 69 -150 q 131 -9 131 -58 q 86 82 131 40 l 89 101 z "},"“":{"ha":460,"x_min":39,"x_max":457,"o":"m 410 624 q 330 588 363 588 q 276 615 297 588 q 254 686 254 642 q 307 809 254 754 q 432 901 360 864 l 457 881 l 457 867 q 385 802 414 840 q 357 729 357 764 q 413 643 357 676 l 410 624 m 194 624 q 115 588 147 588 q 60 615 82 588 q 39 686 39 642 q 92 809 39 754 q 217 901 144 864 l 242 881 l 242 867 q 170 802 199 840 q 142 729 142 764 q 197 643 142 676 l 194 624 z "}}}
